<svg xmlns="http://www.w3.org/2000/svg" xmlns:xlink="http://www.w3.org/1999/xlink" viewBox="0 0 62.55 59.13"><defs><style>.cls-1{fill:none;}.cls-2{clip-path:url(#clip-path);}.cls-3{fill:#fff;}</style><clipPath id="clip-path" transform="translate(-0.72 -2.43)"><rect class="cls-1" width="64" height="64"/></clipPath></defs><title>资源 2</title><g id="图层_2" data-name="图层 2"><g id="图层_1-2" data-name="图层 1"><g class="cls-2"><path class="cls-3" d="M38.2,36.42a17,17,0,1,0-17-17A17,17,0,0,0,38.2,36.42Zm-13.08-17A13.08,13.08,0,1,1,38.2,32.5,13.1,13.1,0,0,1,25.11,19.42Z" transform="translate(-0.72 -2.43)"/><path class="cls-3" d="M29.5,24a1.11,1.11,0,1,0-1.11-1.1A1.11,1.11,0,0,0,29.5,24Z" transform="translate(-0.72 -2.43)"/><path class="cls-3" d="M29.7,19.42a8.5,8.5,0,0,1,8.49-8.49,1.1,1.1,0,1,0,0-2.2,10.71,10.71,0,0,0-10.7,10.7,1.1,1.1,0,0,0,1.1,1.1A1.09,1.09,0,0,0,29.7,19.42Z" transform="translate(-0.72 -2.43)"/><path class="cls-3" d="M49.38,36.17A2,2,0,0,0,47.7,39.7c6.17,2.94,11.67,11.53,11.67,16.24a2,2,0,0,1-1.89,1.72H18.39a2,2,0,0,1-1.89-1.72c0-4.71,5.49-13.3,11.67-16.24A2,2,0,0,0,28,36.09a1.94,1.94,0,0,0-1.49.08c-7,3.34-13.9,13.13-13.9,19.77a5.86,5.86,0,0,0,5.79,5.63H57.49a5.86,5.86,0,0,0,5.79-5.63C63.28,49.29,56.39,39.5,49.38,36.17Z" transform="translate(-0.72 -2.43)"/><path class="cls-3" d="M21.81,31.81h0a1.48,1.48,0,0,0,1.45-1.5,1.41,1.41,0,0,0-1.47-1.44,9.28,9.28,0,1,1,0-18.56,1.78,1.78,0,0,0,1.08-.42,1.41,1.41,0,0,0,.39-1,1.41,1.41,0,0,0-.39-1,1.7,1.7,0,0,0-1.07-.43,12.22,12.22,0,1,0,0,24.44Z" transform="translate(-0.72 -2.43)"/><path class="cls-3" d="M13.59,49.61A1.62,1.62,0,0,0,12,48H5.43A1.52,1.52,0,0,1,4,46.66c0-3.77,4.4-10.65,9.35-13a1.62,1.62,0,0,0-1.4-2.92C6.27,33.42.72,41.31.72,46.66a4.76,4.76,0,0,0,4.7,4.57H12A1.62,1.62,0,0,0,13.59,49.61Z" transform="translate(-0.72 -2.43)"/></g></g></g></svg>