<svg xmlns="http://www.w3.org/2000/svg" xmlns:xlink="http://www.w3.org/1999/xlink" viewBox="0 0 55.38 62.54"><defs><style>.cls-1{fill:none;}.cls-2{clip-path:url(#clip-path);}.cls-3{fill:#fff;}</style><clipPath id="clip-path" transform="translate(-4.31 -0.73)"><rect class="cls-1" width="64" height="64"/></clipPath></defs><title>资源 5</title><g id="图层_2" data-name="图层 2"><g id="图层_1-2" data-name="图层 1"><g class="cls-2"><path class="cls-3" d="M55.92,34.63H16.06V29.15a1.91,1.91,0,0,1,1.9-1.9H46.15a1.89,1.89,0,0,1,1.9,1.9v2.18h0a1.91,1.91,0,0,0,3.82,0s0-.07,0-.1v-2a5.71,5.71,0,0,0-5.72-5.72H18a5.73,5.73,0,0,0-5.72,5.72v5.48H8.12a3.81,3.81,0,0,0-3.81,3.8v21a3.81,3.81,0,0,0,3.81,3.8H55.88a3.81,3.81,0,0,0,3.81-3.8v-21a3.81,3.81,0,0,0-3.77-3.8m-.05,24.82H8.13v-21H55.87Z" transform="translate(-4.31 -0.73)"/><path class="cls-3" d="M30.84,21.37a11.41,11.41,0,0,0,1.39.09c4.23,0,7.27-2.51,7.75-6.4a9.92,9.92,0,0,0-1.57-6.62,18.61,18.61,0,0,0-5.49-5.32A32.55,32.55,0,0,0,29.1.92,1.82,1.82,0,0,0,26.48,2.6a87.14,87.14,0,0,1-.83,10.73,9,9,0,0,0,.49,5,5.53,5.53,0,0,0,4.7,3.09m-1.58-7.6c.29-2.36.64-5.46.79-8.18l.84.54a15.08,15.08,0,0,1,4.44,4.24,6.29,6.29,0,0,1,1,4.24A3.38,3.38,0,0,1,35.14,17a4.66,4.66,0,0,1-2.91.86,7.78,7.78,0,0,1-.95-.06c-1.45-.18-2.44-.57-2-4" transform="translate(-4.31 -0.73)"/><path class="cls-3" d="M49.95,44.18H14A1.91,1.91,0,0,0,14,48h36a1.91,1.91,0,0,0,0-3.82" transform="translate(-4.31 -0.73)"/></g></g></g></svg>