<svg xmlns="http://www.w3.org/2000/svg" xmlns:xlink="http://www.w3.org/1999/xlink" viewBox="0 0 61.22 61.22"><defs><style>.cls-1{fill:none;}.cls-2{clip-path:url(#clip-path);}.cls-3{fill:#fff;}</style><clipPath id="clip-path" transform="translate(-1.39 -1.39)"><rect class="cls-1" width="64" height="64"/></clipPath></defs><title>资源 1</title><g id="图层_2" data-name="图层 2"><g id="图层_1-2" data-name="图层 1"><g class="cls-2"><path class="cls-3" d="M8.28,45.89c3.07,3.46,14.8.19,18.65-1a12.08,12.08,0,0,1-3.84-3.84c-.77-1.92-2.5-4.8,1-4.42,14.22,1.92,15.76-4.81,19.22-11.72A32.05,32.05,0,0,1,59,10.72c-7.3-12.68-29.79-1-33.63,7.88a2.6,2.6,0,0,1-2.31,1.54,2.48,2.48,0,0,1-2.31-2.31s-.58-.57.19-5.19a17.24,17.24,0,0,0-3.84,5c-1.92,3.46-3.65,6.73-2.88,10.57.38,1.15,0,1.92-1.15,2.69-.77.77-2.31.38-3.07-.77-1.15-1.54-1.34-4-2.11-6C6,29.93,3.33,40.8,8.28,45.89ZM21.34,62.61h24.6a1.54,1.54,0,0,0,0-3.07H21.34a1.54,1.54,0,0,0,0,3.07ZM4,47.23C-.57,38.78,1.36,26.48,6.35,18.41c.77-1.15,2.31-1.54,3.07-.77a5.31,5.31,0,0,1,1.15,1.54c0,.38.38.77.38,1.15a26.69,26.69,0,0,1,1.92-5c2.69-5,6.92-9.22,11.53-11.15a2.29,2.29,0,0,1,3.07,1.54c.38.77,0,1.15,0,1.92L26.34,11.1A42.58,42.58,0,0,1,38.64,3c9.7-3,20-2.69,23.83,8.46a2.29,2.29,0,0,1-1.54,3.07h-.38c-8.07,2.31-11.72,7.69-14.42,12.68-3.84,7.3-5.76,13.84-18.45,13.45.77.38,1,.77,2.5,1.54a2.61,2.61,0,0,1,1.54,3.07c0,.77-.77,1.15-1.15,1.54C24.8,50.31,14,53,7.51,50.31A14.12,14.12,0,0,0,6,59.53h6.92a1.54,1.54,0,1,1,0,3.07H4.43a2.89,2.89,0,0,1-2.69-1.92C.59,54.15,2.51,49.54,4,47.23Z" transform="translate(-1.39 -1.39)"/></g></g></g></svg>