<svg xmlns="http://www.w3.org/2000/svg" xmlns:xlink="http://www.w3.org/1999/xlink" viewBox="0 0 59.69 62.02"><defs><style>.cls-1{fill:none;}.cls-2{clip-path:url(#clip-path);}.cls-3{fill:#fff;}</style><clipPath id="clip-path" transform="translate(-2.15 -0.99)"><rect class="cls-1" width="64" height="64"/></clipPath></defs><title>资源 3</title><g id="图层_2" data-name="图层 2"><g id="图层_1-2" data-name="图层 1"><g class="cls-2"><path class="cls-3" d="M32,48.77a2.41,2.41,0,0,1-2.25-1.69c-.74-1.65-7.89-9.43-12.88-12.5C10.75,30.81,5.68,26.9,5.75,17.23,5.83,6.56,13,1,20.06,1A14.83,14.83,0,0,1,32,7.27a15.12,15.12,0,0,1,12-6.1c7,0,14.2,5.48,14.28,16,.08,9.9-5.32,13.49-11,17.29-4.75,3.15-12.22,11-12.94,12.65A2.3,2.3,0,0,1,32,48.77Zm-11.95-43c-4.55,0-9.47,3.6-9.53,11.5-.05,7.25,3.31,9.85,8.86,13.26C23.17,32.85,28.86,38.2,32,42.1A73.76,73.76,0,0,1,44.55,30.46c5.42-3.61,9-6,8.92-13.3C53.42,9.41,48.66,5.93,44,5.93c-4.17,0-7.84,2.6-9.81,7a2.39,2.39,0,1,1-4.34,0C27.78,8.43,24.13,5.76,20.06,5.76Zm2.4,47.71a2.39,2.39,0,0,0-2.39,2.39h0v4.77a2.39,2.39,0,0,0,4.77,0V55.85a2.39,2.39,0,0,0-2.39-2.39Zm19.09,0a2.39,2.39,0,0,0-2.39,2.39h0v4.77a2.39,2.39,0,0,0,4.77,0V55.85a2.39,2.39,0,0,0-2.39-2.39Z" transform="translate(-2.15 -0.99)"/><path class="cls-3" d="M22.45,58a2.41,2.41,0,0,1-.81-.14A31.49,31.49,0,0,1,2.25,36.9a2.38,2.38,0,0,1,4.58-1.32A26.74,26.74,0,0,0,23.26,53.33,2.39,2.39,0,0,1,22.45,58Zm19.09,0a2.39,2.39,0,0,1-.81-4.63A26.73,26.73,0,0,0,57.17,35.57a2.39,2.39,0,0,1,4.59,1.32h0a31.48,31.48,0,0,1-19.4,20.92A2.2,2.2,0,0,1,41.54,58Z" transform="translate(-2.15 -0.99)"/></g></g></g></svg>