<svg xmlns="http://www.w3.org/2000/svg" xmlns:xlink="http://www.w3.org/1999/xlink" viewBox="0 0 59.65 62.25"><defs><style>.cls-1{fill:none;}.cls-2{clip-path:url(#clip-path);}.cls-3{fill:#fff;stroke:#fff;stroke-miterlimit:10;stroke-width:0.25px;}</style><clipPath id="clip-path" transform="translate(-2.17 -0.88)"><rect class="cls-1" width="64" height="64"/></clipPath></defs><title>资源 4</title><g id="图层_2" data-name="图层 2"><g id="图层_1-2" data-name="图层 1"><g class="cls-2"><path class="cls-3" d="M58.22,1H6.14A3.69,3.69,0,0,0,3.66,2,4.2,4.2,0,0,0,2.3,5.34V58.66a4.9,4.9,0,0,0,1,3.35,3.17,3.17,0,0,0,2.36,1,8.56,8.56,0,0,0,3.22-.74l20.71-8.31a1.74,1.74,0,0,0,1.49-1.74,1.7,1.7,0,0,0-1.74-1.74,1.57,1.57,0,0,0-.74.12v-.12L8.87,58.16a5.25,5.25,0,0,1-1.49.5H7.14a1.92,1.92,0,0,1-1.24-2V7c0-1.12.74-2.36,1.74-2.36H56.36c1.24,0,1.74,1.12,1.74,2.11V57c0,1.36-.25,1.49-.62,1.61h-.25a1,1,0,0,1-.62-.25c-.12,0-.12-.12-.25-.12L35.78,50.85a1.79,1.79,0,0,0-.87-.25,1.7,1.7,0,0,0-1.74,1.74,1.86,1.86,0,0,0,1.36,1.74L55.87,62.5a4.53,4.53,0,0,0,1.86.37,3.85,3.85,0,0,0,2.73-1.12A5,5,0,0,0,61.7,58V4.72A3.78,3.78,0,0,0,58.22,1ZM31.69,41.18l12.15,5.58L42,33.24l9.55-10.29L37.89,20.72,31.44,8.32l-6.2,12.52L12.1,23.57l9.18,10L19.66,47.25ZM17.8,25.43l9.42-1.49L31.32,15l4.34,8.8,9.42,1.36-6.7,6.94,1.74,9.67-8.43-4.46L23.38,42,24.5,32.5Z" transform="translate(-2.17 -0.88)"/></g></g></g></svg>