<svg xmlns="http://www.w3.org/2000/svg" viewBox="0 0 94.5 20.75"><defs><style>.cls-1{fill:none;stroke:#c9a16d;stroke-miterlimit:10;stroke-width:0.75px;}.cls-2{fill:#c9a16d;}</style></defs><title>口碑资源 4</title><g id="图层_2" data-name="图层 2"><g id="图层_1-2" data-name="图层 1"><circle class="cls-1" cx="10.38" cy="10.38" r="10"/><path class="cls-2" d="M18.38,12.25c0-2.23-2.18-4-4.87-4s-4.87,1.81-4.87,4,2.18,4,4.87,4A5.74,5.74,0,0,0,15.27,16l1.53.84-.4-1.35h0A3.86,3.86,0,0,0,18.38,12.25Zm-6.63-.76a.65.65,0,1,1,.65-.65A.65.65,0,0,1,11.75,11.48Zm3.3,0a.65.65,0,1,1,.65-.65A.65.65,0,0,1,15,11.48Z"/><path class="cls-2" d="M13.34,8h.23C13.26,5.72,10.88,3.9,8,3.9,4.89,3.9,2.37,6,2.37,8.55a4.44,4.44,0,0,0,2.26,3.73h0l-.47,1.56,1.77-1a6.64,6.64,0,0,0,2,.32,6.52,6.52,0,0,0,.66,0,3.4,3.4,0,0,1-.18-1.09C8.47,9.85,10.65,8,13.34,8ZM10,6.17a.75.75,0,1,1-.75.75A.75.75,0,0,1,10,6.17Zm-3.8,1.5A.75.75,0,1,1,7,6.92.75.75,0,0,1,6.21,7.67Z"/><path class="cls-2" d="M30.24,15.63l3.24.07,4.84-.12q-.15.45-.38,1.08H33.4l-3.29-.07A3.53,3.53,0,0,1,26.91,15a20.57,20.57,0,0,0-1.64,1.83l-.56-1.13L26.46,14V9.43H24.83v-1h2.68v5.83A3.06,3.06,0,0,0,30.24,15.63ZM26.32,3.8q1,1.3,1.91,2.58-.57.37-1,.68a26.2,26.2,0,0,0-1.78-2.68Zm2.06,6.13h2.34q0-1.07,0-2.9H29V6h1.72V3.64h1.09V6h2.71V3.64h1.09V6h2V7h-2v2.9H38.2v1H35.64v4.16H34.55V10.91H31.74a5.81,5.81,0,0,1-2.36,4.16q-.36-.4-.83-.83a4.66,4.66,0,0,0,2.07-3.32H28.38Zm3.45,0h2.72V7H31.84Q31.84,9.38,31.83,9.92Z"/><path class="cls-2" d="M42.55,4.39l.9-.64q1.53.94,3.36,4.84,2.56,5.59,5.55,6.82l-1,1.2q-3-1.78-5.54-7.49l-.4-.87a15.11,15.11,0,0,1-5.9,8.45,7.42,7.42,0,0,0-.83-1,14,14,0,0,0,6-8.85A6.83,6.83,0,0,0,42.55,4.39Z"/><path class="cls-2" d="M52.72,11.65A17.12,17.12,0,0,0,55.34,7.4l.9.42q-.51,1.07-1.05,2V17h-.93V11.25a15.48,15.48,0,0,1-1.19,1.49Q52.91,12.19,52.72,11.65Zm.07-4.4a13.21,13.21,0,0,0,2.58-3.57l.85.48a16.18,16.18,0,0,1-3.1,4.16Q53,7.78,52.79,7.24Zm6.88,5.32h-1.8v.63a4.1,4.1,0,0,1-1.38,3.5,9.38,9.38,0,0,0-.62-.87,3,3,0,0,0,1.08-2.73V11.63h3.64V14q.63-.55,1.44-1.29.12.6.23,1.05-.75.6-1.71,1.48L60,15.8l-.7-.87a1.33,1.33,0,0,0,.37-1ZM56.51,8.2V4.85h.88V7.27H58.5V3.8h.9V7.27h1.12V4.84h.88v3.8h-.87V8.2Zm.27,1.22h4.35v1H56.78ZM63,3.61l.93.16Q63.7,5,63.4,6.18h2.95v1h-.66a18.69,18.69,0,0,1-1.32,6.2A8.48,8.48,0,0,0,66.43,16q-.3.53-.57,1.05a10.65,10.65,0,0,1-2-2.65,13.67,13.67,0,0,1-2.11,2.75,10.82,10.82,0,0,0-.67-.86,11.37,11.37,0,0,0,2.3-2.94,13.93,13.93,0,0,1-.93-4.26q-.22.53-.46,1a5.8,5.8,0,0,0-.66-.71A17.82,17.82,0,0,0,63,3.61Zm1.78,3.55H63.12l0,.13a14.67,14.67,0,0,0,.79,4.91A21.7,21.7,0,0,0,64.76,7.16Z"/><path class="cls-2" d="M66.86,5H73.1q-.26-.49-.64-1.08l1.05-.48q.41.7.86,1.56h5.89V6H66.86Zm1,2.93h3.32q-.47-.69-1-1.37L71,6q.66.77,1.19,1.42L71.44,8h3.1A17.72,17.72,0,0,0,75.81,6.1l1,.6Q76.2,7.47,75.76,8h3.4v7.16q0,1.72-1.57,1.74-.85,0-1.91,0a10.27,10.27,0,0,0-.21-1.15q1.08.11,1.78.11.89,0,.89-1V8.91H68.88V17h-1Zm4,1.09.74.71q-1.6,1.37-3,2.41a9.13,9.13,0,0,0-.64-.81A21.93,21.93,0,0,0,71.86,9.06Zm-1.05,6.62v-4.4h5.48V15h-4.5v.72Zm4.5-1.6V12.15H71.79v1.93Zm-1-4.27.6-.75q2,1.27,3.06,2l-.68.86A35,35,0,0,0,74.27,9.81Z"/><path class="cls-2" d="M80.65,13.14l1.68-.42V8H80.77v-1h1.56V3.73h1V7.05h1.48V8H83.36v4.39L84.81,12q0,.63,0,1.07-2.21.64-4,1.24Zm7.18,2.93a12.67,12.67,0,0,0,2.77-2.69A37.81,37.81,0,0,1,89.93,7H86.39V9.16h2.76q0,2.41-.1,4.17T87.4,15h-1q-.08-.45-.23-1.07a9.7,9.7,0,0,0,1.08.07q.79,0,.83-.93.07-1.33.07-3H86.38A17.54,17.54,0,0,1,86,13.9,8.88,8.88,0,0,1,84.38,17q-.38-.4-.83-.78A7.79,7.79,0,0,0,85,13.45a19.32,19.32,0,0,0,.34-4.33V6h4.53q0-1.18-.05-2.47h1.08q0,1.31,0,2.47h3.38V7H91a43,43,0,0,0,.44,5.15,18,18,0,0,0,1.65-3.47l1,.48a23.48,23.48,0,0,1-2.37,4.4A4.72,4.72,0,0,0,92.33,15q.37.55.64.55t.33-.38q.11-.6.21-1.91a10.08,10.08,0,0,0,1,.37q-.14,1.34-.25,1.93-.26,1.24-1.08,1.24a1.94,1.94,0,0,1-1.56-.92A4.78,4.78,0,0,1,91,14.59a13.22,13.22,0,0,1-2.37,2.28A9.78,9.78,0,0,0,87.83,16.06ZM91.44,4.28l.63-.66q.86.64,1.7,1.38l-.7.75A19.66,19.66,0,0,0,91.44,4.28Z"/></g></g></svg>