<svg xmlns="http://www.w3.org/2000/svg" viewBox="0 0 79.9 20.75"><defs><style>.cls-1{fill:none;stroke:#c9a16d;stroke-miterlimit:10;stroke-width:0.75px;}.cls-2{fill:#c19e69;}.cls-3{fill:#c9a16d;}</style></defs><title>口碑资源 5</title><g id="图层_2" data-name="图层 2"><g id="图层_1-2" data-name="图层 1"><circle class="cls-1" cx="10.38" cy="10.38" r="10"/><path class="cls-2" d="M7.77,8,4.54,4.78,5.79,3.52a.5.5,0,0,1,.7,0L9,6a.5.5,0,0,1,0,.7l-.55.55-.51.51A1.41,1.41,0,0,0,7.77,8Zm2.66,5.27c-.53-.46-1-.94-1.53-1.43s-1-1-1.43-1.53a1.59,1.59,0,0,1-.25-1.58L3.9,5.41c-.77.79-.67,2.76.17,4.49A12.45,12.45,0,0,0,5.4,12,18.42,18.42,0,0,0,7,13.78a17.64,17.64,0,0,0,1.8,1.59,12.4,12.4,0,0,0,2.06,1.32c1.73.85,3.7.94,4.5.17L12,13.53A1.6,1.6,0,0,1,10.43,13.28Zm6.8,1-2.52-2.52a.5.5,0,0,0-.7,0h0l-.55.55-.51.51a1.55,1.55,0,0,1-.2.17L16,16.21,17.23,15A.49.49,0,0,0,17.23,14.26Z"/><path class="cls-3" d="M26.93,7.44a11.43,11.43,0,0,0,.92.75Q26.64,10,25.31,12l-1-.72A39.94,39.94,0,0,0,26.93,7.44ZM25.6,4.14q1.13,1,2.13,1.9l-.85.81q-1-1-2.05-2Zm.63,8.13h9.65V17.6H34.81v-.75H27.3v.78H26.23ZM32,6.73h1q0,.14-.07.53a6.35,6.35,0,0,0,5,3.71q-.34.52-.66,1.05a7.28,7.28,0,0,1-4.7-3.54Q31.42,11.05,27.72,12a9.28,9.28,0,0,0-.63-1Q31.56,10.11,32,6.73Zm2.83,6.49H27.3v2.67h7.52ZM27.94,7.88a8.57,8.57,0,0,0,2.15-3.79h1.11q-.22.75-.49,1.44h6.4v.94q-.53.86-1.13,1.9A6.38,6.38,0,0,0,34.91,8q.53-.78,1-1.56H30.28A10,10,0,0,1,28.9,8.56,5.68,5.68,0,0,0,27.94,7.88Z"/><path class="cls-3" d="M42.48,14.29q0,.71.1,1.18A27.35,27.35,0,0,0,40,17.29l-.64-.92a1.46,1.46,0,0,0,.46-1.18V9.77h-1.6v-1h2.65v6.6Q41.69,14.87,42.48,14.29Zm-2.86-10q1.49,1.53,2.16,2.27l-.93.78a26.31,26.31,0,0,0-2-2.35Zm1.91,4.22A18,18,0,0,0,44.37,4l1,.4q-.36.74-.73,1.41h6.67q-.16,6.25-.27,9.05-.11,2.46-2.13,2.46-1.24,0-2.23-.07-.08-.55-.23-1.2a14.31,14.31,0,0,0,2.2.19q1.23,0,1.33-1.59.14-3.08.23-7.86H44.11a20.42,20.42,0,0,1-1.68,2.39A7.65,7.65,0,0,0,41.54,8.54Zm1.71-.16h5v6.23h-4v.81h-1Zm4,.93h-3V11h3Zm0,4.38V11.91h-3v1.76Z"/><path class="cls-3" d="M52.42,9.69l2.11-.57V7H52.59V6.09h1.94v-2h1v2h1.61V7H55.57V8.82l1.49-.47q0,.63,0,1l-1.52.48v2q0,1.65-1.54,1.65l-1.27,0q-.05-.47-.16-1.12a7.63,7.63,0,0,0,1.22.11.65.65,0,0,0,.72-.74V10.19l-1.9.59ZM54,14.12l1,.41a27,27,0,0,1-1.5,2.91q-.41-.23-.94-.48A17.17,17.17,0,0,0,54,14.12Zm2.23.55.9-.4q.63,1.15,1.3,2.54l-1,.44Q56.84,15.84,56.24,14.66Zm1.18-5.58L58,8.31l1.25.77a9.57,9.57,0,0,0,.23-2H57.8v-1h1.7q0-1.13,0-2.06h1.05q0,.89,0,2.06h3.17a28,28,0,0,0,.18,5.48q.18.81.52.81t.36-.46q.12-.67.22-1.83.52.19,1,.33-.14,1.22-.29,1.93-.29,1.26-1.27,1.26-1.18,0-1.59-1.9a26.88,26.88,0,0,1-.21-4.62H60.52a11.09,11.09,0,0,1-.33,2.62q1,.62,1.89,1.26l-.68,1q-.81-.62-1.56-1.17a6.57,6.57,0,0,1-2.75,3.18q-.34-.42-.79-.89a5.49,5.49,0,0,0,2.63-2.93Q58.15,9.55,57.41,9.08Zm2.3,5.51.9-.4q.7,1.22,1.31,2.5l-1,.42A22.13,22.13,0,0,0,59.71,14.59Zm3.36-.27.88-.52q.89,1.31,1.76,2.78l-1,.57Q64,15.8,63.07,14.32Z"/><path class="cls-3" d="M68,12.34q1.22-.18,2.87-.46-.08.51-.12,1.05l-4,.64-.22-1a17.77,17.77,0,0,0,2.08-2.91q-1.11.06-2.08.16l-.26-.93A25.2,25.2,0,0,0,68.89,4l1,.41Q68.52,7.18,67.5,8.78l1.65-.06q.47-.84,1-1.83l1,.51Q69.47,10.29,68,12.34ZM66.27,15.5q2.41-.52,4.87-1.13,0,.55,0,1-2.28.53-4.53,1.13Zm4.07,1a21.65,21.65,0,0,0,4.45-2.14A14.6,14.6,0,0,1,74,11.4l-2.92.41-.16-1,2.95-.41q-.12-1-.17-2l-2.47.28-.16-1,2.58-.29Q73.59,6,73.53,4.11h1.12q0,1.76.09,3.14l4.57-.52.12,1-4.66.54q0,1.08.16,2l4.72-.66.12,1-4.71.67a12.87,12.87,0,0,0,.63,2.46,11.89,11.89,0,0,0,2.41-2.39L79,12a16.24,16.24,0,0,1-2.86,2.69,4.14,4.14,0,0,0,1.26,1.44q.9.53,1.16-.55.18-.88.29-1.94a9.17,9.17,0,0,0,1.05.4,17.11,17.11,0,0,1-.46,2.23q-.4,1.16-1.35,1.16a2.61,2.61,0,0,1-1.85-.82,5.49,5.49,0,0,1-1-1.31A22.67,22.67,0,0,1,71,17.4Q70.79,17,70.35,16.47ZM75.8,4.83l.59-.68q1,.62,2.08,1.48l-.66.79Q76.68,5.45,75.8,4.83Z"/></g></g></svg>