<svg xmlns="http://www.w3.org/2000/svg" viewBox="0 0 137 40.17677"><defs><style>.cls-1{fill:#999;}.cls-2{fill:none;}</style></defs><title>产品系列-灰</title><g id="图层_2" data-name="图层 2"><g id="图层_1-2" data-name="图层 1"><path class="cls-1" d="M31.45664,19.97018H22.36181V19.9696H7.97113v-3.2264a1.12318,1.12318,0,0,1,1.12043-1.11926H25.69837a1.11466,1.11466,0,0,1,1.121,1.11926V18.0268h.00177a1.12461,1.12461,0,0,0,2.24912-.01532c0-.02121-.00059-.04124-.00177-.06126v-1.207a3.36471,3.36471,0,0,0-3.37014-3.369H9.09156a3.37249,3.37249,0,0,0-3.36955,3.369v3.2264H3.29382a2.24633,2.24633,0,0,0-2.24263,2.24028V34.59944a2.24292,2.24292,0,0,0,2.24263,2.24028H31.43308a2.24659,2.24659,0,0,0,2.242-2.24028V22.20987a2.24155,2.24155,0,0,0-2.21848-2.23969M31.426,34.59H3.30089V22.21812H31.426Z"/><path class="cls-1" d="M16.68218,12.15925a6.72,6.72,0,0,0,.82.05125,4.27516,4.27516,0,0,0,4.566-3.77189,5.84179,5.84179,0,0,0-.9225-3.90208A10.96219,10.96219,0,0,0,17.911,1.40026,19.17258,19.17258,0,0,0,15.65364.109a1.07264,1.07264,0,0,0-1.54281.9926,51.335,51.335,0,0,1-.48776,6.31967,5.27487,5.27487,0,0,0,.28806,2.91831,3.25491,3.25491,0,0,0,2.771,1.81967M15.752,7.68105c.17024-1.39259.37642-3.21815.46537-4.81987q.25537.15817.49777.32046a8.883,8.883,0,0,1,2.61552,2.49771,3.7051,3.7051,0,0,1,.60793,2.4983,1.98842,1.98842,0,0,1-.72516,1.3814,2.743,2.743,0,0,1-1.71128.506,4.58126,4.58126,0,0,1-.559-.03534c-.8524-.10427-1.43677-.334-1.19112-2.34867"/><path class="cls-1" d="M27.93694,25.59285H6.74825a1.12456,1.12456,0,0,0,0,2.24912H27.93694a1.12456,1.12456,0,0,0,0-2.24912"/><path class="cls-1" d="M40.61816,16.9258h6.92871q.98877-1.45752,1.77246-2.90039l1.12793.7168q-.77637,1.09277-1.626,2.18359h4.33594v1.02539H41.80469v1.02539a14.008,14.008,0,0,1-.39551,3.86719,6.693,6.693,0,0,1-1.55273,2.666q-.38086-.47021-.791-.99609a5.18307,5.18307,0,0,0,1.21582-2.168,13.19635,13.19635,0,0,0,.33691-3.36914ZM39.417,12.73634h6.687q-.32227-.60059-.71045-1.23047l1.084-.543q.47607.77783.97412,1.77344h6.08643V13.7754H39.417Zm3.06152,1.875.9668-.64453q.9082,1.14258,1.61133,2.168l-1.04.7168A24.13174,24.13174,0,0,0,42.47852,14.61134Z"/><path class="cls-1" d="M54.88574,18.68361H60.4668v6.76758H59.35352v-.98242H55.999v.98242H54.88574ZM59.35352,19.709H55.999v3.76367h3.35449Zm-3.03223-8.02734H66.42871v5.80078H65.25684v-.46875H57.49316v.46875H56.32129ZM65.25684,12.707H57.49316V15.9883h7.76367ZM62.2832,18.68361h5.5957v6.76758H66.76563v-.99609H63.39648v.99609H62.2832ZM66.76563,19.709H63.39648v3.793h3.36914Z"/><path class="cls-1" d="M72.81543,21.09962l.95215.748q-1.875,1.68457-3.94043,3.252-.35156-.42627-.80566-.89453A30.38551,30.38551,0,0,0,72.81543,21.09962Zm6.5918-4.02734q1.875,1.50879,3.83789,3.31055-.4834.46875-.89355.89258-.60791-.59912-1.23047-1.18555-1.95557.08057-3.999.18945v3.29688q0,1.66992-1.75781,1.66992-.71777,0-1.88965-.0293c-.04883-.3623-.1123-.76172-.19043-1.20117q1.23047.13184,1.88965.13086a.70571.70571,0,0,0,.80566-.791V20.3379q-1.77979.09668-3.61816.20508a13.42073,13.42073,0,0,0-1.65527.19141l-.4834-1.25977a7.68678,7.68678,0,0,0,1.83105-.57227q2.24121-1.09863,4.16016-2.21094-2.54883.19629-4.27734.35156a10.30216,10.30216,0,0,0-1.15723.16016l-.46875-1.23047a5.51617,5.51617,0,0,0,1.31836-.51172,31.59962,31.59962,0,0,0,3.68408-2.4248q-2.51221.15381-5.09033.27051a10.01158,10.01158,0,0,0-.26367-1.02539q6.9873-.26367,12.40723-.80469l.21973,1.03906q-3.17871.26367-6.45264.47656l.59326.418q-2.2998,1.53809-4.248,2.5918,3.28125-.18164,5.43457-.35156,1.46484-.936,2.71-1.88867l.95215.77539a54.84542,54.84542,0,0,1-8.54,4.9082q2.915-.10254,7.06787-.30859-.73242-.67236-1.47217-1.31836ZM78.543,21.877l.74707-.791q1.8457,1.23047,4.05762,2.94336l-.86426.95313Q80.43262,23.28175,78.543,21.877Z"/><path class="cls-1" d="M86.59961,18.93165l.71777-.82031q1.11328.917,2.02881,1.79492a12.13738,12.13738,0,0,0,1.38428-3.68359h-3.2959a21.19189,21.19189,0,0,1-2.82715,4.74609,9.23558,9.23558,0,0,0-.58594-1.17187,22.22934,22.22934,0,0,0,3.40576-6.959H84.50488V11.78322h8.21777V12.8379H88.63574q-.34424,1.21-.769,2.33008h4.06494v1.06836a13.77445,13.77445,0,0,1-6.31348,9.27344,8.79145,8.79145,0,0,0-.9082-.89453,14.46858,14.46858,0,0,0,4.01367-3.74219Q87.88867,20.05275,86.59961,18.93165Zm7.86621,2.916H93.33789V12.88283h1.12793Zm2.10938-10.5918h1.17188V23.35548q0,1.86035-1.68458,1.875-.80565.01465-2.38768-.01367a9.73729,9.73729,0,0,0-.23437-1.31836q1.50879.13184,2.22656.13086.9082,0,.9082-.98047Z"/><path class="cls-1" d="M41.21875,32.53419v3.39258H40.04688V26.8506H42.625a3.358,3.358,0,0,1,2.28223.709,2.54779,2.54779,0,0,1,.81152,2.02734,2.73786,2.73786,0,0,1-.94922,2.165,3.3025,3.3025,0,0,1-2.373.78223Zm0-4.65234v3.62109h1.084a2.41778,2.41778,0,0,0,1.62891-.4834,1.7362,1.7362,0,0,0,.55664-1.38574q0-1.752-2.07422-1.752Z"/><path class="cls-1" d="M50.417,30.583a1.33989,1.33989,0,0,0-.791-.20508,1.29761,1.29761,0,0,0-1.10156.624,2.82549,2.82549,0,0,0-.43359,1.64355v3.28125H46.94238V29.4463h1.14844v1.31836h.02344A1.772,1.772,0,0,1,49.81348,29.335a1.62749,1.62749,0,0,1,.60352.08789Z"/><path class="cls-1" d="M50.62061,32.75685a3.49527,3.49527,0,0,1,.89648-2.53418,3.22207,3.22207,0,0,1,2.43164-.92871,2.96752,2.96752,0,0,1,2.28809.89355,3.491,3.491,0,0,1,.8291,2.46973,3.47627,3.47627,0,0,1-.88477,2.47852,3.09813,3.09813,0,0,1-2.373.94336,3.04773,3.04773,0,0,1-2.32031-.91406A3.35481,3.35481,0,0,1,50.62061,32.75685Zm1.17188-.03516a2.582,2.582,0,0,0,.56543,1.76367,1.92069,1.92069,0,0,0,1.52051.64453,1.82623,1.82623,0,0,0,1.5-.62988A2.788,2.788,0,0,0,55.894,32.6924a2.81081,2.81081,0,0,0-.51562-1.81641,1.82235,1.82235,0,0,0-1.5-.63281,1.89315,1.89315,0,0,0-1.52637.66211A2.72634,2.72634,0,0,0,51.79248,32.72169Z"/><path class="cls-1" d="M64.0083,35.92677H62.85986V34.84865h-.02344a2.36667,2.36667,0,0,1-2.20312,1.23047,2.41081,2.41081,0,0,1-1.957-.876,3.589,3.589,0,0,1-.72656-2.36426,3.85409,3.85409,0,0,1,.82031-2.5752,2.67422,2.67422,0,0,1,2.14453-.96973,2.054,2.054,0,0,1,1.92188,1.03125h.02344V26.335H64.0083ZM62.86572,32.0713a1.79108,1.79108,0,0,0-.5127-1.30371,1.69651,1.69651,0,0,0-1.2627-.52441,1.72276,1.72276,0,0,0-1.44141.68262,2.97021,2.97021,0,0,0-.52734,1.86035A2.6583,2.6583,0,0,0,59.62842,34.5a1.64575,1.64575,0,0,0,1.35059.62988,1.70471,1.70471,0,0,0,1.35938-.61816,2.28735,2.28735,0,0,0,.52734-1.53809Z"/><path class="cls-1" d="M71.1084,35.92677H69.9541V34.90724h-.02344a2.13784,2.13784,0,0,1-1.998,1.17188q-2.30273,0-2.30273-2.75391V29.4463H66.7666v3.709q0,1.97461,1.51172,1.97461a1.50456,1.50456,0,0,0,1.21289-.55371,2.10475,2.10475,0,0,0,.46289-1.39746V29.4463h1.1543Z"/><path class="cls-1" d="M77.33008,35.6338a3.42983,3.42983,0,0,1-1.793.44531,2.97158,2.97158,0,0,1-2.26172-.90234,3.25919,3.25919,0,0,1-.85547-2.33789,3.58545,3.58545,0,0,1,.92285-2.56934,3.239,3.239,0,0,1,2.46972-.97559,3.37525,3.37525,0,0,1,1.52345.31641v1.13672a2.51207,2.51207,0,0,0-1.52345-.50391A2.062,2.062,0,0,0,74.21,30.9258a2.607,2.607,0,0,0-.61816,1.81934,2.48765,2.48765,0,0,0,.583,1.752,2.03469,2.03469,0,0,0,1.57324.63281,2.61355,2.61355,0,0,0,1.582-.55078Z"/><path class="cls-1" d="M81.68262,35.86232a2.12034,2.12034,0,0,1-1.01367.20508q-1.74023,0-1.74023-1.92773V30.39552H77.81543V29.4463h1.11328V27.88771l1.14258-.36328V29.4463h1.61133v.94922H80.07129v3.53906a1.49662,1.49662,0,0,0,.2168.91406.86334.86334,0,0,0,.7207.27539,1.08677,1.08677,0,0,0,.67383-.2168Z"/><path class="cls-1" d="M85.62939,34.52638a3.12827,3.12827,0,0,0,1.86914.627q1.3418,0,1.3418-.87891a.76858.76858,0,0,0-.293-.61816,4.6,4.6,0,0,0-1.18945-.57715,3.39746,3.39746,0,0,1-1.40039-.8584,1.65194,1.65194,0,0,1-.32227-1.02832,1.61341,1.61341,0,0,1,.72949-1.37988,3.02027,3.02027,0,0,1,1.7959-.51855,4.05131,4.05131,0,0,1,1.53516.28711v1.10742a2.97083,2.97083,0,0,0-1.64648-.46875,1.53845,1.53845,0,0,0-.89648.24023.73742.73742,0,0,0-.3457.63281.75782.75782,0,0,0,.249.60352,4.44071,4.44071,0,0,0,1.10449.55664,3.73308,3.73308,0,0,1,1.46484.83789,1.56654,1.56654,0,0,1,.38086,1.07227,1.62505,1.62505,0,0,1-.72949,1.40332,3.21528,3.21528,0,0,1-1.88965.5127,3.83464,3.83464,0,0,1-1.75781-.38086Z"/><path class="cls-1" d="M96.52637,32.97951H91.99121a2.33146,2.33146,0,0,0,.56836,1.60254,1.9814,1.9814,0,0,0,1.50586.56543,3.20708,3.20708,0,0,0,1.998-.69727V35.4756a3.85691,3.85691,0,0,1-2.26758.60352,2.7773,2.7773,0,0,1-2.19434-.89062,3.60358,3.60358,0,0,1-.78809-2.47266,3.5456,3.5456,0,0,1,.86426-2.45508,2.76383,2.76383,0,0,1,2.14746-.9668,2.4999,2.4999,0,0,1,1.98633.81738,3.3628,3.3628,0,0,1,.71484,2.28809Zm-1.14844-.91992a2.05494,2.05494,0,0,0-.416-1.35938,1.43515,1.43515,0,0,0-1.1543-.48047,1.60811,1.60811,0,0,0-1.18652.50977,2.363,2.363,0,0,0-.62988,1.33008Z"/><path class="cls-1" d="M101.23047,30.583a1.33989,1.33989,0,0,0-.791-.20508,1.29761,1.29761,0,0,0-1.10156.624,2.82549,2.82549,0,0,0-.43359,1.64355v3.28125H97.75586V29.4463H98.9043v1.31836h.02344A1.772,1.772,0,0,1,100.627,29.335a1.62749,1.62749,0,0,1,.60352.08789Z"/><path class="cls-1" d="M101.89746,27.16115a.71044.71044,0,0,1,.7207-.7207.729.729,0,0,1,.52441.20508.68439.68439,0,0,1,.21387.51563.66824.66824,0,0,1-.21387.50684.73476.73476,0,0,1-.52441.20215.70456.70456,0,0,1-.51562-.20215A.68235.68235,0,0,1,101.89746,27.16115Zm.13477,8.76563V29.4463h1.14844v6.48047Z"/><path class="cls-1" d="M110.21045,32.97951h-4.53516a2.33146,2.33146,0,0,0,.56836,1.60254,1.9814,1.9814,0,0,0,1.50586.56543,3.20708,3.20708,0,0,0,1.998-.69727V35.4756a3.85691,3.85691,0,0,1-2.26758.60352,2.7773,2.7773,0,0,1-2.19434-.89062,3.60358,3.60358,0,0,1-.78809-2.47266,3.5456,3.5456,0,0,1,.86426-2.45508,2.76383,2.76383,0,0,1,2.14746-.9668,2.4999,2.4999,0,0,1,1.98633.81738,3.3628,3.3628,0,0,1,.71484,2.28809Zm-1.14844-.91992a2.05494,2.05494,0,0,0-.416-1.35938,1.43515,1.43515,0,0,0-1.1543-.48047,1.60811,1.60811,0,0,0-1.18652.50977,2.363,2.363,0,0,0-.62988,1.33008Z"/><path class="cls-1" d="M111.07666,34.52638a3.12827,3.12827,0,0,0,1.86914.627q1.3418,0,1.3418-.87891a.76858.76858,0,0,0-.293-.61816,4.6,4.6,0,0,0-1.18945-.57715,3.39746,3.39746,0,0,1-1.40039-.8584,1.65194,1.65194,0,0,1-.32227-1.02832,1.61341,1.61341,0,0,1,.72949-1.37988,3.02027,3.02027,0,0,1,1.7959-.51855,4.05131,4.05131,0,0,1,1.53516.28711v1.10742a2.97083,2.97083,0,0,0-1.64648-.46875,1.53845,1.53845,0,0,0-.89648.24023.73742.73742,0,0,0-.3457.63281.75782.75782,0,0,0,.249.60352,4.44071,4.44071,0,0,0,1.10449.55664,3.73308,3.73308,0,0,1,1.46484.83789,1.56654,1.56654,0,0,1,.38086,1.07227,1.62505,1.62505,0,0,1-.72949,1.40332,3.21528,3.21528,0,0,1-1.88965.5127,3.83464,3.83464,0,0,1-1.75781-.38086Z"/><rect class="cls-2" y="1.17677" width="137" height="39"/></g></g></svg>