<svg xmlns="http://www.w3.org/2000/svg" viewBox="0 0 137 39"><defs><style>.cls-1{fill:#999;}.cls-2{fill:none;}</style></defs><title>品牌故事-灰</title><g id="图层_2" data-name="图层 2"><g id="图层_1-2" data-name="图层 1"><path class="cls-1" d="M5.06953,26.98211c1.72639,1.94219,8.31014.10727,10.46813-.54012a6.78408,6.78408,0,0,1-2.158-2.158c-.4316-1.079-1.40332-2.69686.53887-2.48106,7.98456,1.079,8.8465-2.69811,10.78869-6.58249a17.99582,17.99582,0,0,1,8.849-7.98456c-4.10018-7.12136-16.725-.54138-18.883,4.422a1.45709,1.45709,0,0,1-1.29479.8632,1.39241,1.39241,0,0,1-1.29479-1.29479s-.32432-.32182.10727-2.91141a9.67968,9.67968,0,0,0-2.158,2.80539c-1.079,1.94219-2.05072,3.77586-1.61912,5.93384.2158.6474,0,1.079-.6474,1.51059A1.19643,1.19643,0,0,1,6.04,18.1331c-.6474-.8632-.75467-2.26652-1.18627-3.34551C3.77474,18.02458,2.29037,24.12594,5.06953,26.98211Zm7.33716,9.38663H26.21783a.8632.8632,0,1,0,0-1.72639H12.4067a.8632.8632,0,1,0,0,1.72639Zm-9.711-8.632C.10616,22.98921,1.18515,16.08364,3.99054,11.55186a1.19643,1.19643,0,0,1,1.72639-.4316,2.979,2.979,0,0,1,.6474.8632c0,.2158.2158.4316.2158.6474a14.98376,14.98376,0,0,1,1.079-2.80539,13.93,13.93,0,0,1,6.474-6.25817,1.28846,1.28846,0,0,1,1.72639.8632c.2158.4316,0,.6474,0,1.079l-.6474,1.94219a23.90387,23.90387,0,0,1,6.90557-4.53178c5.446-1.70983,11.22154-1.51059,13.37953,4.74758a1.28846,1.28846,0,0,1-.8632,1.72639h-.2158c-4.53178,1.29479-6.58249,4.316-8.09309,7.12136-2.158,4.10018-3.23573,7.76876-10.3571,7.553.4316.2158.53887.4316,1.40207.8632a1.46773,1.46773,0,0,1,.8632,1.72639c0,.4316-.4316.6474-.6474.8632-3.237,1.94219-9.27935,3.45278-12.94794,1.94219a7.92676,7.92676,0,0,0-.8632,5.17917H7.65912a.8632.8632,0,1,1,0,1.72639H2.91154a1.6228,1.6228,0,0,1-1.51059-1.079A10.31014,10.31014,0,0,1,2.69574,27.73678Z"/><path class="cls-1" d="M39.88574,17.50684H45.4668v6.76758H44.35352V23.292H40.999v.98242H39.88574Zm4.46777,1.02539H40.999V22.2959h3.35449Zm-3.03223-8.02734H51.42871v5.80078H50.25684v-.46875H42.49316v.46875H41.32129Zm8.93555,1.02539H42.49316v3.28125h7.76367ZM47.2832,17.50684h5.5957v6.76758H51.76563v-.99609H48.39648v.99609H47.2832Zm4.48242,1.02539H48.39648v3.793h3.36914Z"/><path class="cls-1" d="M58.84082,24.12793H57.77148V18.63379h-1.582a11.55387,11.55387,0,0,1-1.12793,5.71289q-.38086-.39551-.9082-.84961a10.09625,10.09625,0,0,0,.9668-4.93555V10.43066h1.06934V14.7373h1.47949V10.00684h1.06934V14.7373h1.06934v.9082H56.18945v2.08008h2.65137Zm.46875-3.58984h1.78711q-.293-.37939-.64453-.76172a5.93918,5.93918,0,0,0,2.22656-1.78711H60.335v-6.5332H62.8252q.27832-.70312.57129-1.625l1.14258.35156q-.32227.70313-.60059,1.27344h3.7793V18.4873H66.69238v-.498H63.92383A6.42936,6.42936,0,0,1,61.375,20.53809h2.92969v-1.875H65.374v1.875h3.31055V21.5498H65.374v2.67969H64.30469V21.5498H59.30957Zm2.05078-6.29883h2.124V12.42285h-2.124Zm2.09473.9375H61.36035v1.8457h1.78711A7.84292,7.84292,0,0,0,63.45508,15.17676Zm.791,1.8457h2.44629v-1.8457H64.48047A9.25263,9.25263,0,0,1,64.24609,17.02246Zm2.44629-4.59961H64.50977v1.81641h2.18262Z"/><path class="cls-1" d="M69.72461,17.09668h2.3877V13.917H69.10938V12.833H72.1123V9.88965h1.14258V12.833h2.92969v1.084H73.25488v3.17969H75.584v5.60938H70.83789v.9668H69.72461Zm4.74609,4.584v-3.5293H70.83789v3.5293Zm3.54492-11.9082,1.17188.18945a22.717,22.717,0,0,1-.8125,2.69531h5.207v1.02539H82.30762a14.76571,14.76571,0,0,1-1.99219,6.79687,9.6725,9.6725,0,0,0,3.48633,2.71094q-.498.65918-.82031,1.17188a12.68825,12.68825,0,0,1-3.43457-2.87109,15.20667,15.20667,0,0,1-3.53809,2.959,8.29113,8.29113,0,0,0-.835-.92383A14.24251,14.24251,0,0,0,78.81445,20.458a12.92268,12.92268,0,0,1-1.65625-5.1416,16.24652,16.24652,0,0,1-1.01758,1.60449,10.76805,10.76805,0,0,0-.74707-.9375A15.95751,15.95751,0,0,0,78.01563,9.77246Zm3.14258,3.91016H78.02344a13.36963,13.36963,0,0,0,1.54492,5.69922A13.02432,13.02432,0,0,0,81.1582,13.68262Z"/><path class="cls-1" d="M85.12012,20.6123h5.72754V19.5127H84.21191v-.9082h6.63574v-1.084H85.16406V16.6416h5.68359v-.99609H87.127v.38086H86.10156V12.87793h4.74609v-.9668h-6.5918v-.9082h6.5918V9.86035h1.084v1.14258h6.57715v.9082H91.93164v.9668h4.74609v3.14844H95.65234v-.38086h-3.7207v.99609H97v1.96289h1.626v.9082H97v2.68164H95.94531v-.70312H91.93164v.86328a1.544,1.544,0,0,1-1.69922,1.77344q-.80566,0-2.10937-.0293-.05859-.49951-.17578-1.2168a16.19916,16.19916,0,0,0,2.03613.14648.77044.77044,0,0,0,.86426-.87891v-.6582H85.12012ZM87.127,14.8252h3.7207v-1.127H87.127Zm8.52539-1.127h-3.7207v1.127h3.7207Zm.293,3.82227H91.93164v1.084h4.01367Zm-4.01367,3.0918h4.01367V19.5127H91.93164Z"/><path class="cls-1" d="M40.04688,35.75V26.67383h2.666a2.972,2.972,0,0,1,1.91016.57129,1.84228,1.84228,0,0,1,.71484,1.51465,2.16738,2.16738,0,0,1-.4248,1.32422,2.27854,2.27854,0,0,1-1.16895.81445v.02344a2.2995,2.2995,0,0,1,1.47949.7002,2.12713,2.12713,0,0,1,.55371,1.50879,2.38052,2.38052,0,0,1-.84082,1.89551A3.18366,3.18366,0,0,1,42.7832,35.75Zm1.17188-8.05078V30.541h1.06641a1.98686,1.98686,0,0,0,1.333-.41309,1.42611,1.42611,0,0,0,.4834-1.14551q0-1.2832-1.71094-1.2832Zm0,3.86133v3.16406H42.625a2.13516,2.13516,0,0,0,1.4209-.4248,1.46441,1.46441,0,0,0,.501-1.18066q0-1.55859-2.11523-1.55859Z"/><path class="cls-1" d="M50.60449,30.40625a1.33989,1.33989,0,0,0-.791-.20508,1.29761,1.29761,0,0,0-1.10156.624,2.82549,2.82549,0,0,0-.43359,1.64355V35.75H47.12988V29.26953h1.14844v1.31836h.02344A1.772,1.772,0,0,1,50.001,29.1582a1.62749,1.62749,0,0,1,.60352.08789Z"/><path class="cls-1" d="M51.56445,29.7207a4.12732,4.12732,0,0,1,2.23242-.60352q2.34375,0,2.34375,2.46094V35.75H55.00391V34.748h-.0293a2.16565,2.16565,0,0,1-1.98633,1.1543,2.1352,2.1352,0,0,1-1.5-.50977,1.77536,1.77536,0,0,1-.55664-1.377q0-1.81641,2.15039-2.11523l1.92188-.26953q0-1.58789-1.3125-1.58789a3.28258,3.28258,0,0,0-2.127.78516Zm1.92188,2.98242a1.96994,1.96994,0,0,0-1.09961.39844,1.08986,1.08986,0,0,0-.30078.82031.9668.9668,0,0,0,.32813.75586,1.25336,1.25336,0,0,0,.86719.293,1.60821,1.60821,0,0,0,1.23633-.52734,1.87816,1.87816,0,0,0,.48633-1.32422V32.498Z"/><path class="cls-1" d="M63.22266,35.75H62.08008V32.06445q0-1.998-1.459-1.998a1.56882,1.56882,0,0,0-1.24219.5625,2.09912,2.09912,0,0,0-.48633,1.42383V35.75H57.74414V29.26953h1.14844V30.3418H58.916a2.33805,2.33805,0,0,1,2.127-1.22461,1.97237,1.97237,0,0,1,1.623.68262,3.08364,3.08364,0,0,1,.55664,1.98926Z"/><path class="cls-1" d="M70.46387,35.75H69.31543V34.67188H69.292a2.36667,2.36667,0,0,1-2.20312,1.23047,2.41081,2.41081,0,0,1-1.957-.876,3.589,3.589,0,0,1-.72656-2.36426,3.85409,3.85409,0,0,1,.82031-2.5752,2.67422,2.67422,0,0,1,2.14453-.96973A2.054,2.054,0,0,1,69.292,30.14844h.02344V26.1582h1.14844Zm-1.14258-3.85547a1.79108,1.79108,0,0,0-.5127-1.30371,1.69651,1.69651,0,0,0-1.2627-.52441,1.72276,1.72276,0,0,0-1.44141.68262,2.97021,2.97021,0,0,0-.52734,1.86035,2.6583,2.6583,0,0,0,.50684,1.71387,1.64575,1.64575,0,0,0,1.35059.62988,1.70471,1.70471,0,0,0,1.35938-.61816,2.28735,2.28735,0,0,0,.52734-1.53809Z"/><path class="cls-1" d="M75.10254,34.34961a3.12827,3.12827,0,0,0,1.86914.627q1.3418,0,1.3418-.87891a.76858.76858,0,0,0-.293-.61816,4.6,4.6,0,0,0-1.18945-.57715,3.39746,3.39746,0,0,1-1.40039-.8584,1.65194,1.65194,0,0,1-.32227-1.02832,1.61341,1.61341,0,0,1,.72949-1.37988,3.02027,3.02027,0,0,1,1.7959-.51855,4.05131,4.05131,0,0,1,1.53516.28711v1.10742a2.97083,2.97083,0,0,0-1.64648-.46875,1.53845,1.53845,0,0,0-.89648.24023.73742.73742,0,0,0-.3457.63281.75782.75782,0,0,0,.249.60352,4.44071,4.44071,0,0,0,1.10449.55664,3.73308,3.73308,0,0,1,1.46484.83789,1.56654,1.56654,0,0,1,.38086,1.07227A1.62505,1.62505,0,0,1,78.75,35.38965a3.21528,3.21528,0,0,1-1.88965.5127,3.83464,3.83464,0,0,1-1.75781-.38086Z"/><path class="cls-1" d="M83.832,35.68555a2.12034,2.12034,0,0,1-1.01367.20508q-1.74023,0-1.74023-1.92773V30.21875H79.96484v-.94922h1.11328V27.71094l1.14258-.36328v1.92188H83.832v.94922H82.2207v3.53906a1.49662,1.49662,0,0,0,.2168.91406.86334.86334,0,0,0,.7207.27539,1.08677,1.08677,0,0,0,.67383-.2168Z"/><path class="cls-1" d="M84.35742,32.58008a3.49527,3.49527,0,0,1,.89648-2.53418,3.22207,3.22207,0,0,1,2.43164-.92871,2.96972,2.96972,0,0,1,2.28906.89355,3.49055,3.49055,0,0,1,.82813,2.46973A3.47627,3.47627,0,0,1,89.918,34.959a3.09813,3.09813,0,0,1-2.373.94336,3.04773,3.04773,0,0,1-2.32031-.91406A3.35481,3.35481,0,0,1,84.35742,32.58008Zm1.17188-.03516a2.58239,2.58239,0,0,0,.56641,1.76367,1.91865,1.91865,0,0,0,1.51953.64453,1.82623,1.82623,0,0,0,1.5-.62988,2.788,2.788,0,0,0,.51563-1.80762,2.81081,2.81081,0,0,0-.51562-1.81641,1.82235,1.82235,0,0,0-1.5-.63281,1.89117,1.89117,0,0,0-1.52539.66211A2.72661,2.72661,0,0,0,85.5293,32.54492Z"/><path class="cls-1" d="M95.59473,30.40625a1.33989,1.33989,0,0,0-.791-.20508,1.29761,1.29761,0,0,0-1.10156.624,2.82549,2.82549,0,0,0-.43359,1.64355V35.75H92.12012V29.26953h1.14844v1.31836H93.292a1.772,1.772,0,0,1,1.69922-1.42969,1.62749,1.62749,0,0,1,.60352.08789Z"/><path class="cls-1" d="M102.19727,29.26953l-2.94141,7.459q-.82031,2.07422-2.31445,2.07422A2.50972,2.50972,0,0,1,96.209,38.709V37.70117a1.78633,1.78633,0,0,0,.64453.12891,1.25478,1.25478,0,0,0,1.166-.91406l.498-1.17773-2.543-6.46875h1.27148l1.69336,4.86914.14063.5332h.0293a5.33,5.33,0,0,1,.14063-.52148l1.76953-4.88086Z"/><rect class="cls-2" width="137" height="39"/></g></g></svg>