<svg xmlns="http://www.w3.org/2000/svg" viewBox="0 0 137 39"><defs><style>.cls-1{fill:#c9a16d;}.cls-2{fill:none;}</style></defs><title>米旗公益</title><g id="图层_2" data-name="图层 2"><g id="图层_1-2" data-name="图层 1"><path class="cls-1" d="M20.00652,27.56261a1.3752,1.3752,0,0,1-1.28008-.9621,30.88379,30.88379,0,0,0-7.33531-7.1206c-3.49235-2.14977-6.37864-4.37564-6.33788-9.88459C5.09946,3.52379,9.187.34941,13.20118.34941A8.44519,8.44519,0,0,1,20.00652,3.9233,8.61149,8.61149,0,0,1,26.81729.45c4.00874,0,8.08813,3.12274,8.13162,9.091.04348,5.63941-3.02761,7.68318-6.27809,9.84654-2.7042,1.79646-6.95753,6.28081-7.36792,7.20214a1.30726,1.30726,0,0,1-1.27464.96753A.03655.03655,0,0,1,20.00652,27.56261ZM13.20118,3.06448c-2.59277,0-5.39481,2.04921-5.43014,6.54987-.0299,4.12832,1.88614,5.60679,5.04421,7.55a35.63838,35.63838,0,0,1,7.20485,6.59607,42.00746,42.00746,0,0,1,7.12875-6.626c3.08741-2.05465,5.11488-3.40267,5.08226-7.57447-.03261-4.4164-2.74225-6.395-5.41383-6.395a6.19533,6.19533,0,0,0-5.58505,3.96253,1.35889,1.35889,0,1,1-2.47319.00544C17.59856,4.58645,15.51945,3.06448,13.20118,3.06448ZM14.56551,30.2342a1.35889,1.35889,0,0,0-1.35889,1.35889h0v2.71779a1.35889,1.35889,0,0,0,2.71779,0V31.59309a1.35889,1.35889,0,0,0-1.35889-1.35889Zm10.87115,0a1.35889,1.35889,0,0,0-1.35889,1.35889h0v2.71779a1.35889,1.35889,0,0,0,2.71779,0V31.59309a1.35889,1.35889,0,0,0-1.35889-1.35889Z"/><path class="cls-1" d="M14.56551,32.79164a1.36976,1.36976,0,0,1-.462-.08153A17.93289,17.93289,0,0,1,3.0584,20.798a1.35776,1.35776,0,0,1,2.60908-.75283A15.22768,15.22768,0,0,0,15.02753,30.1581a1.35889,1.35889,0,0,1-.462,2.63354Zm10.87115,0a1.35889,1.35889,0,0,1-.462-2.63625A15.222,15.222,0,0,0,34.33469,20.0425a1.35906,1.35906,0,0,1,2.61179.75283h0a17.93059,17.93059,0,0,1-11.0478,11.91206A1.25018,1.25018,0,0,1,25.43665,32.79164Z"/><path class="cls-1" d="M58.19922,21.43066a9.13419,9.13419,0,0,0-.791,1.05469,14.11642,14.11642,0,0,1-5.88867-5.91113v7.18457H50.34766V16.57422a14.25722,14.25722,0,0,1-6.00586,6.24707q-.293-.4248-.77637-.99609a14.37556,14.37556,0,0,0,5.79346-5.47852H43.77051V15.2334h6.57715V9.5498h1.17188V15.2334h6.47461v1.11328H52.52295A12.93344,12.93344,0,0,0,58.19922,21.43066ZM45.001,11.05957l.835-.68945q1.582,1.78857,2.92969,3.35547l-.98145.82031Q46.46582,12.77344,45.001,11.05957Zm8.08594,2.72461a28.29654,28.29654,0,0,0,2.71-3.38477l1.05469.76172q-1.8457,2.30127-2.88574,3.39844Z"/><path class="cls-1" d="M58.74121,11.7334h2.55615q-.46143-1.09863-.94482-2.00781l.89355-.43945q.52734.87891,1.084,2.02148l-.91553.42578h2.45361v.99609H61.16553q-.01465,1.13525-.03662,2.13867h2.59277q-.08789,3.7793-.21973,6.5625-.10254,1.90283-1.47949,1.918-.70312.01465-1.46484-.01367c-.05859-.32227-.13184-.69434-.21973-1.11328q.82031.08789,1.21582.08789.86426,0,.9082-1.01172.13184-2.09326.20508-5.44922H61.09961q0,5.68506-1.8457,7.7793-.293-.39551-.73242-.87891,1.3916-1.72852,1.50879-5.83008.03662-1.13525.09521-4.18945H58.74121ZM67.01758,20.874l.74707.77539a27.39846,27.39846,0,0,1-3.208,2.18359,5.9275,5.9275,0,0,0-.70313-.9082A16.071,16.071,0,0,0,67.01758,20.874Zm-2.915-1.041h1.55273V14.55957H64.21973v-.9668h1.43555V12.43652H66.71v1.15625h3.61816V12.4209h1.05469v1.17188h1.40625v.9668H71.38281V19.833h1.68457v.9668H64.10254Zm.0293-7.38281A10.72262,10.72262,0,0,0,65.8457,9.27246l1.05469.27734q-.27832.646-.55664,1.2168h6.665v.99609H65.82373a12.752,12.752,0,0,1-.97412,1.50781A9.10434,9.10434,0,0,0,64.13184,12.4502ZM66.71,15.71777h3.61816v-1.1582H66.71Zm0,2.06445h3.61816V16.626H66.71Zm0,2.05078h3.61816V18.66113H66.71Zm2.59277,1.77344.67383-.76172q1.53809.99609,3.01758,2.09375l-.73242.87891Q70.72363,22.55762,69.30273,21.60645Z"/><path class="cls-1" d="M73.55078,16.28809a16.95072,16.95072,0,0,0,4.87793-6.2832l1.15723.48242a19.88277,19.88277,0,0,1-5.09766,6.73828A6.11307,6.11307,0,0,0,73.55078,16.28809Zm9.53613,1.81641q2.10938,2.74072,3.55957,4.98047l-1.11328.73242q-.41016-.67383-.87158-1.39844-4.834.23438-7.85889.47656a10.50771,10.50771,0,0,0-1.34766.248l-.64453-1.24414a3.70687,3.70687,0,0,0,1.21582-.80664,30.85511,30.85511,0,0,0,3.7207-5.84375l1.25977.57031A56.37866,56.37866,0,0,1,77.125,21.64941q3.0249-.09375,6.84814-.27051-.835-1.26709-1.83838-2.67285Zm-1.25977-7.88086,1.084-.42383a11.57958,11.57958,0,0,0,5.28809,6.06445,9.68332,9.68332,0,0,0-.9082,1.14258A13.85476,13.85476,0,0,1,81.82715,10.22363Z"/><path class="cls-1" d="M88.63867,22.0752h2.124V17.15332h10.2832V22.0752h2.02148v1.02539H88.63867Zm5.21484-8.4082.71777.95117q-2.28516,1.39307-5.127,2.82813a9.81836,9.81836,0,0,0-.60059-1.02539A49.73707,49.73707,0,0,0,93.85352,13.667Zm-4.86328-1.48047H96.981a24.72632,24.72632,0,0,0,2.51221-2.85547l1.06932.67383q-.99607,1.15723-2.03612,2.18164h4.32129v1.02539H88.99023Zm2.28516-2.10937.76172-.76172q1.25977.90967,2.27051,1.77344l-.835.87891Q92.52051,11.05957,91.27539,10.07715Zm.542,11.998h2.03613V18.14941H91.81738Zm3.06152,0H96.915V18.14941H94.87891Zm2.3877-7.48633.60059-.89258q2.92969,1.377,5.06836,2.54883l-.64453,1.084Q99.40527,15.65918,97.2666,14.58887Zm2.72461,3.56055H97.94043V22.0752h2.05078Z"/><path class="cls-1" d="M55.90723,35.75h-1.1543V34.73047h-.02344a2.13784,2.13784,0,0,1-1.998,1.17188q-2.30273,0-2.30273-2.75391V29.26953h1.13672v3.709q0,1.97461,1.51172,1.97461A1.50456,1.50456,0,0,0,54.29,34.39941a2.10475,2.10475,0,0,0,.46289-1.39746V29.26953h1.1543Z"/><path class="cls-1" d="M58.80029,34.83594V35.75H57.65186V26.1582h1.14844v4.23047h.02344a2.44417,2.44417,0,0,1,2.22656-1.27148,2.39335,2.39335,0,0,1,1.93652.8584,3.5466,3.5466,0,0,1,.71777,2.34668,3.95733,3.95733,0,0,1-.80566,2.61035,2.65071,2.65071,0,0,1-2.14746.96973,2.13367,2.13367,0,0,1-1.92773-1.06641Zm-.00586-1.752a1.86481,1.86481,0,0,0,.50977,1.32715,1.79171,1.79171,0,0,0,2.707-.16113,3.23272,3.23272,0,0,0,.51563-1.94531,2.55588,2.55588,0,0,0-.48047-1.63184,1.58407,1.58407,0,0,0-1.3125-.60645,1.79714,1.79714,0,0,0-1.3916.60352,2.19658,2.19658,0,0,0-.54785,1.53516Z"/><path class="cls-1" d="M65.01025,35.75V26.1582h1.14844V35.75Z"/><path class="cls-1" d="M67.76855,26.98438a.71044.71044,0,0,1,.7207-.7207.729.729,0,0,1,.52441.20508.68439.68439,0,0,1,.21387.51563.66824.66824,0,0,1-.21387.50684.73476.73476,0,0,1-.52441.20215.70456.70456,0,0,1-.51562-.20215A.68235.68235,0,0,1,67.76855,26.98438ZM67.90332,35.75V29.26953h1.14844V35.75Z"/><path class="cls-1" d="M75.2793,35.457a3.42983,3.42983,0,0,1-1.793.44531A2.97158,2.97158,0,0,1,71.22461,35a3.25919,3.25919,0,0,1-.85547-2.33789,3.58545,3.58545,0,0,1,.92285-2.56934,3.239,3.239,0,0,1,2.46973-.97559,3.37524,3.37524,0,0,1,1.52344.31641v1.13672a2.51206,2.51206,0,0,0-1.52344-.50391,2.062,2.062,0,0,0-1.60254.68262,2.607,2.607,0,0,0-.61816,1.81934,2.48765,2.48765,0,0,0,.583,1.752,2.03469,2.03469,0,0,0,1.57324.63281,2.61355,2.61355,0,0,0,1.582-.55078Z"/><path class="cls-1" d="M88.07373,29.26953,86.14014,35.75H84.94482l-1.28906-4.54687a3.12431,3.12431,0,0,1-.10547-.62109h-.02344a2.68369,2.68369,0,0,1-.13477.60938L81.99756,35.75H80.8374l-1.94531-6.48047H80.0874l1.29492,4.80469a3.37864,3.37864,0,0,1,.08789.5918h.04688a2.75965,2.75965,0,0,1,.11133-.60937l1.39453-4.78711H84.0835l1.35938,4.81055a3.566,3.566,0,0,1,.09375.59766h.05273a2.75961,2.75961,0,0,1,.10547-.59766l1.26563-4.81055Z"/><path class="cls-1" d="M94.16064,32.80273H89.62549a2.33146,2.33146,0,0,0,.56836,1.60254,1.9814,1.9814,0,0,0,1.50586.56543,3.20708,3.20708,0,0,0,1.998-.69727v1.02539a3.85691,3.85691,0,0,1-2.26758.60352,2.7773,2.7773,0,0,1-2.19434-.89062,3.60358,3.60358,0,0,1-.78809-2.47266A3.5456,3.5456,0,0,1,89.312,30.084a2.76383,2.76383,0,0,1,2.14746-.9668,2.4999,2.4999,0,0,1,1.98633.81738,3.3628,3.3628,0,0,1,.71484,2.28809Zm-1.14844-.91992a2.05494,2.05494,0,0,0-.416-1.35937,1.43515,1.43515,0,0,0-1.1543-.48047,1.60811,1.60811,0,0,0-1.18652.50977,2.363,2.363,0,0,0-.62988,1.33008Z"/><path class="cls-1" d="M95.38379,35.75V26.1582h1.14844V35.75Z"/><path class="cls-1" d="M101.60547,27.13672a1.47235,1.47235,0,0,0-.69727-.16992q-1.07812,0-1.07812,1.33594v.9668h1.51758v.94922H99.83008V35.75H98.69336V30.21875H97.58594v-.94922h1.10742V28.25a2.20078,2.20078,0,0,1,.60059-1.6377,2.07875,2.07875,0,0,1,1.52637-.59473,2.2632,2.2632,0,0,1,.78516.11133Z"/><path class="cls-1" d="M102.2959,29.7207a4.12732,4.12732,0,0,1,2.23242-.60352q2.34375,0,2.34375,2.46094V35.75h-1.13672V34.748h-.0293a2.16565,2.16565,0,0,1-1.98633,1.1543,2.1352,2.1352,0,0,1-1.5-.50977,1.77536,1.77536,0,0,1-.55664-1.377q0-1.81641,2.15039-2.11523l1.92188-.26953q0-1.58789-1.3125-1.58789a3.28258,3.28258,0,0,0-2.127.78516Zm1.92188,2.98242a1.96624,1.96624,0,0,0-1.09863.39844,1.09036,1.09036,0,0,0-.30176.82031.9668.9668,0,0,0,.32813.75586,1.25336,1.25336,0,0,0,.86719.293,1.60821,1.60821,0,0,0,1.23633-.52734,1.87816,1.87816,0,0,0,.48633-1.32422V32.498Z"/><path class="cls-1" d="M111.95068,30.40625a1.33989,1.33989,0,0,0-.791-.20508,1.29761,1.29761,0,0,0-1.10156.624,2.82549,2.82549,0,0,0-.43359,1.64355V35.75h-1.14844V29.26953h1.14844v1.31836h.02344a1.772,1.772,0,0,1,1.69922-1.42969,1.62749,1.62749,0,0,1,.60352.08789Z"/><path class="cls-1" d="M117.86768,32.80273h-4.53516a2.33147,2.33147,0,0,0,.56836,1.60254,1.9814,1.9814,0,0,0,1.50586.56543,3.20708,3.20708,0,0,0,1.998-.69727v1.02539a3.85691,3.85691,0,0,1-2.26758.60352,2.7773,2.7773,0,0,1-2.19434-.89062,3.60358,3.60358,0,0,1-.78809-2.47266A3.5456,3.5456,0,0,1,113.019,30.084a2.76383,2.76383,0,0,1,2.14746-.9668,2.4999,2.4999,0,0,1,1.98633.81738,3.3628,3.3628,0,0,1,.71484,2.28809Zm-1.14844-.91992a2.05494,2.05494,0,0,0-.416-1.35937,1.43515,1.43515,0,0,0-1.1543-.48047,1.60811,1.60811,0,0,0-1.18652.50977,2.363,2.363,0,0,0-.62988,1.33008Z"/><path class="cls-1" d="M44.45374,32.23219v3.64007H43.19638V26.134h2.7662a3.603,3.603,0,0,1,2.44872.7607,2.73365,2.73365,0,0,1,.87072,2.17524,2.93758,2.93758,0,0,1-1.01846,2.323,3.54342,3.54342,0,0,1-2.54616.83929Zm0-4.99173v3.88525h1.16306a2.59415,2.59415,0,0,0,1.74774-.51866,1.86286,1.86286,0,0,0,.59725-1.48683q0-1.87976-2.22553-1.87976Z"/><rect class="cls-2" width="137" height="39"/></g></g></svg>