<svg xmlns="http://www.w3.org/2000/svg" viewBox="0 0 137 39"><defs><style>.cls-1{fill:#999;}.cls-2{fill:none;}</style></defs><title>企业服务-灰</title><g id="图层_2" data-name="图层 2"><g id="图层_1-2" data-name="图层 1"><path class="cls-1" d="M23.24316,25.83691a.52782.52782,0,0,0,.21094-.501l-.89258-6.48047a.28527.28527,0,0,1,.07324-.23242l4.58594-4.94336A.53383.53383,0,0,0,26.915,12.79l-6.52539-1.06836a.2859.2859,0,0,1-.20605-.14941L17.11426,5.66992a.53221.53221,0,0,0-.47363-.28809l-.00684.001a.53158.53158,0,0,0-.47266.29688l-2.9541,5.9668a.28369.28369,0,0,1-.19629.15234L6.70166,13.10742a.53455.53455,0,0,0-.28564.88379l4.41992,4.83887a.28634.28634,0,0,1,.07324.22559l-.77246,6.53613a.52757.52757,0,0,0,.22461.501.52659.52659,0,0,0,.54688.03906l5.73926-2.89941a.288.288,0,0,1,.24707-.00488l5.80664,2.666A.52358.52358,0,0,0,23.24316,25.83691ZM12.93555,18.3916a.34813.34813,0,0,0-.09375-.28223L9.53711,14.62109a.10086.10086,0,0,1,.05664-.16895l4.626-.73047a.3496.3496,0,0,0,.26367-.2002L16.47949,9.167a.10054.10054,0,0,1,.08984-.05859.10193.10193,0,0,1,.0918.05664l2.11719,4.2959a.3534.3534,0,0,0,.26465.19238l4.61523.668a.09646.09646,0,0,1,.08008.06641.09936.09936,0,0,1-.02246.10254l-3.28516,3.40723a.3498.3498,0,0,0-.09375.30664l.84961,4.73438a.097.097,0,0,1-.04.09863.09816.09816,0,0,1-.10547.00781l-4.10645-2.1748a.35075.35075,0,0,0-.33594.00684l-4.06152,2.30273a.10391.10391,0,0,1-.10645-.00391.09951.09951,0,0,1-.04395-.09473Z"/><path class="cls-1" d="M32.76953,1.57813A2.11465,2.11465,0,0,0,31.31934.875H2.75928a2.13361,2.13361,0,0,0-1.44141.57422,2.44679,2.44679,0,0,0-.7915,1.93066V32.62012a2.81769,2.81769,0,0,0,.58057,1.9248A1.86917,1.86917,0,0,0,2.4873,35.125a4.76363,4.76363,0,0,0,1.81445-.417l11.32715-4.54785a1.07523,1.07523,0,0,0,.92383-1.07617,1.0533,1.0533,0,0,0-1.07715-1.07715,1.43014,1.43014,0,0,0-.2832.01953v-.07715L4.21582,32.22949c-.06494.02148-.14307.05566-.22754.09375a1.58416,1.58416,0,0,1-.54883.17188l-.106.00391a.93745.93745,0,0,1-.585-.9668V4.26367c0-.54.36133-1.167.82666-1.167H30.2998c.60938,0,.82617.55566.82617,1.03125v27.6084c0,.65039-.09766.71094-.23535.75879h-.11523a.39541.39541,0,0,1-.251-.09961l-.0166-.0332h-.05176a.21064.21064,0,0,0-.12988-.06934L19.06738,28.22461a1.09915,1.09915,0,0,0-.53223-.14941A1.0533,1.0533,0,0,0,17.458,29.15234a1.14246,1.14246,0,0,0,.82715,1.06738l11.68652,4.61914a2.59588,2.59588,0,0,0,1.0752.21777,2.22732,2.22732,0,0,0,1.585-.64746,2.86636,2.86636,0,0,0,.7168-2.12891V3.04785A1.97788,1.97788,0,0,0,32.76953,1.57813Z"/><path class="cls-1" d="M49.48828,10.00684l-.293.39453a14.69613,14.69613,0,0,0,6.48926,4.6875q-.32227.47021-.80566,1.25977a19.15454,19.15454,0,0,1-6.44531-5.03906,21.39147,21.39147,0,0,1-6.63574,5.39063Q41.417,16.145,40.94824,15.499a17.04748,17.04748,0,0,0,6.958-5.49219Zm-7.749,12.56836H43.7168V16.8916h1.21582V22.5752h3.03223V14.38574h1.21582V17.624h4.46777v1.06836H49.18066V22.5752H55.04v1.084H41.73926Z"/><path class="cls-1" d="M56.15332,22.22363h4.70215V10.124h1.23047V22.22363h2.56348V10.124h1.23047V22.22363H70.626v1.084H56.15332Zm1.69922-9.22852q1.20117,2.82715,2.3291,6.00586l-1.20117.541q-.98145-3.08936-2.19727-6.07812Zm8.55469,6.13672A59.0734,59.0734,0,0,0,68.86816,13.126l1.18652.46875q-1.3623,3.50244-2.59277,6.02148Z"/><path class="cls-1" d="M72.13477,10.69434h4.13086V22.5752q0,1.46338-1.3623,1.46484-.74707,0-1.3916-.04492-.05859-.43945-.17578-1.03906a8.61735,8.61735,0,0,0,1.28906.11719.53154.53154,0,0,0,.60059-.60156V19.10254H73.1748A8.62391,8.62391,0,0,1,71.959,24.24512a4.85153,4.85153,0,0,0-.80566-.82031,7.83469,7.83469,0,0,0,.98145-4.27734Zm3.09082.95313H73.1748V14.46h2.05078ZM73.1748,18.19434h2.05078V15.36816H73.1748Zm4.30664-7.44141h7.23633q-.07324,1.18652-.11719,1.875a2.04627,2.04627,0,0,1-2.31445,2.22656q-.60059-.01318-1.88965-.05859-.08789-.57129-.19043-1.15625,1.084.13184,1.94824.16016a1.1682,1.1682,0,0,0,1.3623-1.20117q.04395-.37939.07324-.834H78.59473V15.9834h6.18164v.86328a10.7073,10.7073,0,0,1-2.14551,4.47559,8.76409,8.76409,0,0,0,3.1416,1.86816q-.498.58447-.84961,1.05469a10.62619,10.62619,0,0,1-3.05371-2.0957,12.19975,12.19975,0,0,1-2.62988,1.94922q-.27832-.4834-.60059-.9668A10.22477,10.22477,0,0,0,81.166,21.34473a9.79166,9.79166,0,0,1-1.88281-4.41016h-.68848v7.28125H77.48145Zm6.1377,6.18164h-3.332a8.65465,8.65465,0,0,0,1.61816,3.58984A9.27859,9.27859,0,0,0,83.61914,16.93457Z"/><path class="cls-1" d="M90.32813,9.69824l1.09863.46875q-.32959.54346-.68848,1.05469h7.9248v.98242a11.87078,11.87078,0,0,1-3.72754,2.89258,21.07766,21.07766,0,0,0,5.86621,1.10547q-.46875.65918-.82031,1.23047a22.14828,22.14828,0,0,1-6.40137-1.70605,32.1526,32.1526,0,0,1-7.03125,1.95605q-.249-.4541-.60059-1.02539a31.18148,31.18148,0,0,0,6.37207-1.59766,9.02922,9.02922,0,0,1-2.67383-2.40918,20.09513,20.09513,0,0,1-2.51172,2.49707q-.43945-.46729-.80566-.791A14.55918,14.55918,0,0,0,90.32813,9.69824Zm-3.07617,8.584h4.2627q.10254-.709.17578-1.582H92.877q-.09521.873-.19727,1.582h5.91016q-.14648,2.62354-.27832,3.67773A2.17606,2.17606,0,0,1,95.85059,24.04q-.86426.01318-2.59277-.05859-.08789-.54346-.21973-1.2168,1.68457.14648,2.7832.16211a1.26865,1.26865,0,0,0,1.377-1.25977q.13184-1.09863.19043-2.34375H92.50391q-.77637,3.52295-5.457,5.11133-.33691-.4834-.71777-.98047,4.2041-1.3623,4.98047-4.13086H87.252Zm9.84375-6.09375h-6.541a9.16131,9.16131,0,0,0,3.0332,2.33008A12.84777,12.84777,0,0,0,97.0957,12.18848Z"/><path class="cls-1" d="M46.92773,35.75H42.04688V26.67383h4.67578v1.043H43.21875V30.623h3.24609v1.03711H43.21875v3.05273h3.709Z"/><path class="cls-1" d="M53.67676,35.75H52.53418V32.06445q0-1.998-1.459-1.998a1.56882,1.56882,0,0,0-1.24219.5625,2.09912,2.09912,0,0,0-.48633,1.42383V35.75H48.19824V29.26953h1.14844V30.3418h.02344a2.33805,2.33805,0,0,1,2.127-1.22461,1.97237,1.97237,0,0,1,1.623.68262,3.08364,3.08364,0,0,1,.55664,1.98926Z"/><path class="cls-1" d="M58.4043,35.68555a2.12034,2.12034,0,0,1-1.01367.20508q-1.74023,0-1.74023-1.92773V30.21875H54.53711v-.94922h1.11328V27.71094l1.14258-.36328v1.92188H58.4043v.94922H56.793v3.53906a1.49662,1.49662,0,0,0,.2168.91406.86334.86334,0,0,0,.7207.27539,1.08677,1.08677,0,0,0,.67383-.2168Z"/><path class="cls-1" d="M64.64258,32.80273H60.10742a2.33146,2.33146,0,0,0,.56836,1.60254,1.9814,1.9814,0,0,0,1.50586.56543,3.20708,3.20708,0,0,0,1.998-.69727v1.02539a3.85691,3.85691,0,0,1-2.26758.60352,2.7752,2.7752,0,0,1-2.19336-.89062,3.60389,3.60389,0,0,1-.78906-2.47266,3.54623,3.54623,0,0,1,.86523-2.45508,2.76185,2.76185,0,0,1,2.14648-.9668,2.4999,2.4999,0,0,1,1.98633.81738,3.3628,3.3628,0,0,1,.71484,2.28809Zm-1.14844-.91992a2.05494,2.05494,0,0,0-.416-1.35937,1.43515,1.43515,0,0,0-1.1543-.48047,1.606,1.606,0,0,0-1.18555.50977,2.364,2.364,0,0,0-.63086,1.33008Z"/><path class="cls-1" d="M69.34668,30.40625a1.33989,1.33989,0,0,0-.791-.20508,1.29761,1.29761,0,0,0-1.10156.624,2.82549,2.82549,0,0,0-.43359,1.64355V35.75H65.87207V29.26953h1.14844v1.31836h.02344a1.772,1.772,0,0,1,1.69922-1.42969,1.62749,1.62749,0,0,1,.60352.08789Z"/><path class="cls-1" d="M71.30273,34.83594v3.89648H70.1543V29.26953h1.14844v1.11914h.02344a2.44417,2.44417,0,0,1,2.22656-1.27148,2.37155,2.37155,0,0,1,1.94824.87012,3.59623,3.59623,0,0,1,.70605,2.335,3.98679,3.98679,0,0,1-.7998,2.59863,2.6334,2.6334,0,0,1-2.15332.98145,2.15941,2.15941,0,0,1-1.92773-1.06641Zm-.00586-1.75781a1.87229,1.87229,0,0,0,.50977,1.333,1.79171,1.79171,0,0,0,2.707-.16113,3.23272,3.23272,0,0,0,.51563-1.94531,2.54627,2.54627,0,0,0-.48047-1.64355,1.59654,1.59654,0,0,0-1.3125-.59473,1.79471,1.79471,0,0,0-1.39453.60352,2.22011,2.22011,0,0,0-.54492,1.54687Z"/><path class="cls-1" d="M80.99316,30.40625a1.33989,1.33989,0,0,0-.791-.20508,1.29761,1.29761,0,0,0-1.10156.624,2.82549,2.82549,0,0,0-.43359,1.64355V35.75H77.51855V29.26953H78.667v1.31836h.02344a1.772,1.772,0,0,1,1.69922-1.42969,1.62749,1.62749,0,0,1,.60352.08789Z"/><path class="cls-1" d="M81.66016,26.98438a.70886.70886,0,0,1,.7207-.7207.72671.72671,0,0,1,.52344.20508.68521.68521,0,0,1,.21484.51563.66908.66908,0,0,1-.21484.50684.73244.73244,0,0,1-.52344.20215.70456.70456,0,0,1-.51562-.20215A.68235.68235,0,0,1,81.66016,26.98438ZM81.79492,35.75V29.26953h1.14844V35.75Z"/><path class="cls-1" d="M84.33008,34.34961a3.12827,3.12827,0,0,0,1.86914.627q1.3418,0,1.3418-.87891a.76858.76858,0,0,0-.293-.61816,4.6,4.6,0,0,0-1.18945-.57715,3.39746,3.39746,0,0,1-1.40039-.8584,1.65194,1.65194,0,0,1-.32227-1.02832,1.61433,1.61433,0,0,1,.73047-1.37988,3.01718,3.01718,0,0,1,1.79492-.51855,4.05131,4.05131,0,0,1,1.53516.28711v1.10742A2.97083,2.97083,0,0,0,86.75,30.043a1.53845,1.53845,0,0,0-.89648.24023.73742.73742,0,0,0-.3457.63281.75847.75847,0,0,0,.25.60352,4.42845,4.42845,0,0,0,1.10352.55664,3.73308,3.73308,0,0,1,1.46484.83789,1.56654,1.56654,0,0,1,.38086,1.07227,1.62419,1.62419,0,0,1-.72852,1.40332,3.21849,3.21849,0,0,1-1.89062.5127,3.83464,3.83464,0,0,1-1.75781-.38086Z"/><path class="cls-1" d="M95.22754,32.80273H90.69238a2.33146,2.33146,0,0,0,.56836,1.60254,1.9814,1.9814,0,0,0,1.50586.56543,3.20708,3.20708,0,0,0,1.998-.69727v1.02539a3.85691,3.85691,0,0,1-2.26758.60352,2.7773,2.7773,0,0,1-2.19434-.89062,3.60358,3.60358,0,0,1-.78809-2.47266,3.5456,3.5456,0,0,1,.86426-2.45508,2.76383,2.76383,0,0,1,2.14746-.9668,2.4999,2.4999,0,0,1,1.98633.81738,3.3628,3.3628,0,0,1,.71484,2.28809Zm-1.14844-.91992a2.05494,2.05494,0,0,0-.416-1.35937,1.43515,1.43515,0,0,0-1.1543-.48047,1.60811,1.60811,0,0,0-1.18652.50977,2.363,2.363,0,0,0-.62988,1.33008Z"/><path class="cls-1" d="M99.34473,34.34961a3.12827,3.12827,0,0,0,1.86914.627q1.3418,0,1.3418-.87891a.76858.76858,0,0,0-.293-.61816,4.6,4.6,0,0,0-1.18945-.57715,3.39746,3.39746,0,0,1-1.40039-.8584,1.65194,1.65194,0,0,1-.32227-1.02832,1.61341,1.61341,0,0,1,.72949-1.37988,3.02027,3.02027,0,0,1,1.7959-.51855,4.05131,4.05131,0,0,1,1.53516.28711v1.10742a2.97083,2.97083,0,0,0-1.64648-.46875,1.53845,1.53845,0,0,0-.89648.24023.73742.73742,0,0,0-.3457.63281.75782.75782,0,0,0,.249.60352,4.44035,4.44035,0,0,0,1.10449.55664,3.73308,3.73308,0,0,1,1.46484.83789,1.56654,1.56654,0,0,1,.38086,1.07227,1.62505,1.62505,0,0,1-.72949,1.40332,3.21528,3.21528,0,0,1-1.88965.5127,3.83464,3.83464,0,0,1-1.75781-.38086Z"/><path class="cls-1" d="M110.24219,32.80273H105.707a2.33146,2.33146,0,0,0,.56836,1.60254,1.9814,1.9814,0,0,0,1.50586.56543,3.20708,3.20708,0,0,0,1.998-.69727v1.02539a3.85691,3.85691,0,0,1-2.26758.60352,2.77941,2.77941,0,0,1-2.19531-.89062,3.60327,3.60327,0,0,1-.78711-2.47266,3.545,3.545,0,0,1,.86328-2.45508,2.76582,2.76582,0,0,1,2.14844-.9668,2.4999,2.4999,0,0,1,1.98633.81738,3.3628,3.3628,0,0,1,.71484,2.28809Zm-1.14844-.91992a2.05494,2.05494,0,0,0-.416-1.35937,1.43515,1.43515,0,0,0-1.1543-.48047,1.61023,1.61023,0,0,0-1.1875.50977,2.36205,2.36205,0,0,0-.62891,1.33008Z"/><path class="cls-1" d="M114.94531,30.40625a1.33989,1.33989,0,0,0-.791-.20508,1.29761,1.29761,0,0,0-1.10156.624,2.82549,2.82549,0,0,0-.43359,1.64355V35.75H111.4707V29.26953h1.14844v1.31836h.02344a1.772,1.772,0,0,1,1.69922-1.42969,1.62749,1.62749,0,0,1,.60352.08789Z"/><path class="cls-1" d="M121.49512,29.26953,118.92871,35.75h-1.16016l-2.4375-6.48047H116.585l1.582,4.62891a4.13052,4.13052,0,0,1,.22852.93164h.0293a4.23749,4.23749,0,0,1,.20508-.9082l1.6582-4.65234Z"/><path class="cls-1" d="M122.13281,26.98438a.71044.71044,0,0,1,.7207-.7207.729.729,0,0,1,.52441.20508.68439.68439,0,0,1,.21387.51563.66824.66824,0,0,1-.21387.50684.73476.73476,0,0,1-.52441.20215.70456.70456,0,0,1-.51562-.20215A.68235.68235,0,0,1,122.13281,26.98438Zm.13477,8.76563V29.26953H123.416V35.75Z"/><path class="cls-1" d="M129.64355,35.457a3.42983,3.42983,0,0,1-1.793.44531A2.97158,2.97158,0,0,1,125.58887,35a3.25919,3.25919,0,0,1-.85547-2.33789,3.58545,3.58545,0,0,1,.92285-2.56934,3.239,3.239,0,0,1,2.46973-.97559,3.37524,3.37524,0,0,1,1.52344.31641v1.13672a2.51206,2.51206,0,0,0-1.52344-.50391,2.062,2.062,0,0,0-1.60254.68262,2.607,2.607,0,0,0-.61816,1.81934,2.48765,2.48765,0,0,0,.583,1.752,2.03469,2.03469,0,0,0,1.57324.63281,2.61355,2.61355,0,0,0,1.582-.55078Z"/><path class="cls-1" d="M136.16406,32.80273h-4.53516a2.33146,2.33146,0,0,0,.56836,1.60254,1.9814,1.9814,0,0,0,1.50586.56543,3.20708,3.20708,0,0,0,1.998-.69727v1.02539a3.85691,3.85691,0,0,1-2.26758.60352,2.77941,2.77941,0,0,1-2.19531-.89062,3.60327,3.60327,0,0,1-.78711-2.47266,3.545,3.545,0,0,1,.86328-2.45508,2.76582,2.76582,0,0,1,2.14844-.9668,2.4999,2.4999,0,0,1,1.98633.81738,3.3628,3.3628,0,0,1,.71484,2.28809Zm-1.14844-.91992a2.05494,2.05494,0,0,0-.416-1.35937,1.43515,1.43515,0,0,0-1.1543-.48047,1.61023,1.61023,0,0,0-1.1875.50977,2.36205,2.36205,0,0,0-.62891,1.33008Z"/><rect class="cls-2" width="137" height="39"/></g></g></svg>