<svg xmlns="http://www.w3.org/2000/svg" viewBox="0 0 137 39"><defs><style>.cls-1,.cls-2{fill:#c9a16d;}.cls-1{stroke:#c9a16d;stroke-miterlimit:10;stroke-width:0.5px;}.cls-3{fill:none;}</style></defs><title>联系我们</title><g id="图层_2" data-name="图层 2"><g id="图层_1-2" data-name="图层 1"><path class="cls-1" d="M23.9573,35.89338H12.32194A3.33564,3.33564,0,0,1,9.02348,32.692c0-3.90238,4.05442-9.663,8.18487-11.63113a1.01448,1.01448,0,1,1,.87,1.833c-3.7208,1.76957-7.02769,6.95163-7.02769,9.79816a1.30978,1.30978,0,0,0,1.27124,1.17412H23.95306a1.01119,1.01119,0,0,1,1.0136,1.00877v.00483A1.01025,1.01025,0,0,1,23.9573,35.89338Zm11.63113,0H23.9573a1.01119,1.01119,0,0,1-1.0136-1.00877v-.00483a1.01119,1.01119,0,0,1,1.00877-1.0136h11.636a1.30974,1.30974,0,0,0,1.2712-1.17412c0-2.84653-3.31108-8.02859-7.02765-9.79816a1.01448,1.01448,0,0,1,.87-1.833c4.13044,1.96386,8.18486,7.72455,8.18486,11.63113A3.3356,3.3356,0,0,1,35.58843,35.89338ZM24.10934,20.92579a9.96289,9.96289,0,1,1,9.96287-9.96291A9.97285,9.97285,0,0,1,24.10934,20.92579Zm0-17.90281a7.93568,7.93568,0,1,0,7.93566,7.9357A7.94514,7.94514,0,0,0,24.10934,3.023Zm-5.7142,8.4425a.50829.50829,0,0,1-.5068-.5068A6.222,6.222,0,0,1,24.1051,4.74187a.5068.5068,0,0,1,0,1.01361,5.20814,5.20814,0,0,0-5.20316,5.2032A.503.503,0,0,1,18.39514,11.46548ZM19.44675,13.007a.511.511,0,0,1-1.02208.0019V13.007a.511.511,0,0,1,1.02208,0Z"/><path class="cls-1" d="M8.52092,32.07121H4.11173a3.03336,3.03336,0,0,1-2.99857-2.90988c0-3.54762,3.687-8.7846,7.44153-10.57108a.92187.92187,0,0,1,.794,1.664c-3.38291,1.6091-6.39,6.32237-6.39,8.90706a1.18685,1.18685,0,0,0,1.153,1.06429H8.52092a.9228.9228,0,0,1,0,1.84559ZM15.14313,18.9957a8.05817,8.05817,0,0,1,0-16.11633.80029.80029,0,0,1,.81936.82355.79554.79554,0,0,1-.81936.81936,6.41739,6.41739,0,1,0,0,12.83478.80344.80344,0,0,1,.81936.79821A.85188.85188,0,0,1,15.14313,18.9957Z"/><path class="cls-2" d="M46.06543,21.03613q.55664-.08789,1.11328-.18262V11.9541h-.95215V10.92871h6.32813V11.9541H51.45605v8.14453q.6665-.123,1.333-.248A8.62179,8.62179,0,0,0,52.8916,20.876q-.6958.13916-1.43555.28516v3.09766H50.38672V21.38086q-1.88232.38086-4.043.82715ZM48.248,14.09277h2.13867V11.9541H48.248Zm0,3.13477h2.13867V15.08887H48.248Zm2.13867,3.06934V18.22363H48.248V20.6709Q49.32471,20.48779,50.38672,20.29688Zm1.582-3.58105h3.38379q.05859-1.06934.05176-2.65234H52.37891v-1.084H56.334q.65918-1.05469,1.72849-3.08984l1.1426.541q-.9082,1.415-1.69141,2.54883H59.9668v1.084H56.53906q0,1.59082-.05078,2.65234h3.97656v1.084H56.63477A8.8901,8.8901,0,0,0,60.66992,22.999a8.884,8.884,0,0,0-.9375,1.09961,10.55977,10.55977,0,0,1-3.66211-4.9375,8.71348,8.71348,0,0,1-3.55957,5.084q-.4541-.57129-.82031-.95312a7.48734,7.48734,0,0,0,3.57422-5.49219h-3.2959Zm.9668-6.22656.84961-.59961a19.07392,19.07392,0,0,1,1.65527,2.18164l-.95215.66016A26.49439,26.49439,0,0,0,52.93555,10.48926Z"/><path class="cls-2" d="M64.81543,19.92285l.95215.748q-1.875,1.68457-3.94043,3.252-.35156-.42627-.80566-.89453A30.38551,30.38551,0,0,0,64.81543,19.92285Zm6.5918-4.02734q1.875,1.50879,3.83789,3.31055-.4834.46875-.89355.89258-.60791-.59912-1.23047-1.18555-1.95557.08057-3.999.18945v3.29688q0,1.66992-1.75781,1.66992-.71777,0-1.88965-.0293c-.04883-.3623-.1123-.76172-.19043-1.20117q1.23047.13184,1.88965.13086a.70571.70571,0,0,0,.80566-.791V19.16113q-1.77979.09668-3.61816.20508a13.42073,13.42073,0,0,0-1.65527.19141l-.4834-1.25977a7.68678,7.68678,0,0,0,1.83105-.57227q2.24121-1.09863,4.16016-2.21094-2.54883.19629-4.27734.35156a10.30216,10.30216,0,0,0-1.15723.16016l-.46875-1.23047a5.51617,5.51617,0,0,0,1.31836-.51172,31.59307,31.59307,0,0,0,3.68357-2.4248q-2.51071.15381-5.08982.27051a10.01158,10.01158,0,0,0-.26367-1.02539q6.9873-.26367,12.40723-.80469l.21973,1.03906q-3.17871.26367-6.45312.47656l.59375.418q-2.2998,1.53809-4.248,2.5918,3.28125-.18164,5.43457-.35156,1.46484-.936,2.71-1.88867l.95215.77539a54.84542,54.84542,0,0,1-8.54,4.9082q2.915-.10254,7.06836-.30859-.73242-.67236-1.47266-1.31836ZM70.543,20.7002l.74707-.791q1.8457,1.23047,4.05762,2.94336l-.86426.95313Q72.43262,22.105,70.543,20.7002Z"/><path class="cls-2" d="M81.23633,22.35449a20.82013,20.82013,0,0,0,3.78711-2.29883,20.325,20.325,0,0,1-.791-4.70313H80.416v2.4248q1.4502-.25635,3.00293-.5498.0293.65918.04395,1.1582-1.53812.293-3.04687.58594v3.44141q0,1.66992-1.59668,1.68555-.98145.01318-1.96289-.04492a6.99833,6.99833,0,0,0-.249-1.24414,14.44654,14.44654,0,0,0,1.91895.14648q.68848.01318.68848-.70312V19.20605q-1.4502.28418-2.87109.57031l-.293-1.25977q1.51611-.24023,3.16406-.52734V15.35254H76.06543v-1.084h3.14941V12.05762q-1.15723.15234-2.49023.30664a7.6108,7.6108,0,0,0-.32227-1.17187,55.99584,55.99584,0,0,0,6.19629-.87891l.35156,1.17188q-1.106.19922-2.53418.41016v2.373h3.75q-.10254-1.793-.21973-4.33594h1.23047q.05127,2.34521.15332,4.33594h5.35449v1.084H85.39648a21.69482,21.69482,0,0,0,.60059,3.89648,16.639,16.639,0,0,0,2.79785-3.19336l1.05469.70313a21.16615,21.16615,0,0,1-3.457,3.68457,5.94766,5.94766,0,0,0,.98145,1.70605q.74707.87891,1.30371.87891c.20508,0,.35156-.16016.43945-.48242a20.80837,20.80837,0,0,0,.4248-2.47656,8.1944,8.1944,0,0,0,1.12793.42578,22.45915,22.45915,0,0,1-.52734,2.54883A1.42989,1.42989,0,0,1,88.707,24.22949a3.14382,3.14382,0,0,1-2.3877-1.50781,7.27644,7.27644,0,0,1-.87891-1.53125,21.9677,21.9677,0,0,1-3.457,2.08789A5.55138,5.55138,0,0,0,81.23633,22.35449Zm5.1123-11.11719.76172-.77734q1.28906.98291,2.63672,2.18359l-.89355.9082Q87.65234,12.33594,86.34863,11.2373Z"/><path class="cls-2" d="M91.06543,17.00879a24.1078,24.1078,0,0,0,3.252-7.01758l1.14258.45508q-.57129,1.67725-1.25977,3.207V24.22949H93.043V15.96094a26.42578,26.42578,0,0,1-1.50879,2.40918Q91.3584,17.771,91.06543,17.00879ZM96.32422,24.083V13.31738h1.20117V24.083Zm.04395-13.50586.86426-.64453q1.333,1.5542,1.86035,2.25586l-1.01074.71875A28.23563,28.23563,0,0,0,96.36816,10.57715Zm8.51074,11.19141a2.75607,2.75607,0,0,1-.43945,1.77344,2.26011,2.26011,0,0,1-1.626.55664q-.87891.02783-2.25586-.0293-.05859-.43945-.23437-1.1875,1.21582.08789,2.24121.08789a1.06867,1.06867,0,0,0,.95215-.35156,1.92051,1.92051,0,0,0,.16113-.95117v-9.3457h-3.7793V11.17871h4.98047Z"/><path class="cls-2" d="M53.25781,35.375a5.361,5.361,0,0,1-2.51367.52734A4.077,4.077,0,0,1,47.627,34.66309a4.58922,4.58922,0,0,1-1.166-3.27832,4.81591,4.81591,0,0,1,1.3125-3.52734,4.4752,4.4752,0,0,1,3.334-1.33594,5.42211,5.42211,0,0,1,2.15039.36914v1.22461a4.3379,4.3379,0,0,0-2.13867-.53906,3.24834,3.24834,0,0,0-2.47266,1.01074,3.80924,3.80924,0,0,0-.95508,2.72754,3.64871,3.64871,0,0,0,.89063,2.58691,3.03592,3.03592,0,0,0,2.332.958A4.402,4.402,0,0,0,53.25781,34.25Z"/><path class="cls-2" d="M54.19434,32.58008a3.49527,3.49527,0,0,1,.89648-2.53418,3.22207,3.22207,0,0,1,2.43164-.92871,2.96752,2.96752,0,0,1,2.28809.89355,3.491,3.491,0,0,1,.8291,2.46973,3.47627,3.47627,0,0,1-.88477,2.47852,3.09813,3.09813,0,0,1-2.373.94336,3.04773,3.04773,0,0,1-2.32031-.91406A3.35481,3.35481,0,0,1,54.19434,32.58008Zm1.17188-.03516a2.582,2.582,0,0,0,.56543,1.76367,1.92069,1.92069,0,0,0,1.52051.64453,1.82623,1.82623,0,0,0,1.5-.62988,2.788,2.788,0,0,0,.51563-1.80762,2.81081,2.81081,0,0,0-.51562-1.81641,1.82235,1.82235,0,0,0-1.5-.63281,1.89315,1.89315,0,0,0-1.52637.66211A2.72634,2.72634,0,0,0,55.36621,32.54492Z"/><path class="cls-2" d="M67.43555,35.75H66.293V32.06445q0-1.998-1.459-1.998a1.56882,1.56882,0,0,0-1.24219.5625,2.09912,2.09912,0,0,0-.48633,1.42383V35.75H61.957V29.26953h1.14844V30.3418h.02344a2.33805,2.33805,0,0,1,2.127-1.22461,1.97237,1.97237,0,0,1,1.623.68262,3.08364,3.08364,0,0,1,.55664,1.98926Z"/><path class="cls-2" d="M72.16211,35.68555a2.12034,2.12034,0,0,1-1.01367.20508q-1.74023,0-1.74023-1.92773V30.21875H68.29492v-.94922H69.4082V27.71094l1.14258-.36328v1.92188h1.61133v.94922H70.55078v3.53906a1.49662,1.49662,0,0,0,.2168.91406.86334.86334,0,0,0,.7207.27539,1.08677,1.08677,0,0,0,.67383-.2168Z"/><path class="cls-2" d="M73.374,29.7207a4.12732,4.12732,0,0,1,2.23242-.60352q2.34375,0,2.34375,2.46094V35.75H76.81348V34.748h-.0293a2.16565,2.16565,0,0,1-1.98633,1.1543,2.1352,2.1352,0,0,1-1.5-.50977,1.77536,1.77536,0,0,1-.55664-1.377q0-1.81641,2.15039-2.11523l1.92188-.26953q0-1.58789-1.3125-1.58789a3.28258,3.28258,0,0,0-2.127.78516Zm1.92188,2.98242a1.96623,1.96623,0,0,0-1.09863.39844,1.09036,1.09036,0,0,0-.30176.82031.9668.9668,0,0,0,.32813.75586,1.25336,1.25336,0,0,0,.86719.293,1.60821,1.60821,0,0,0,1.23633-.52734,1.87816,1.87816,0,0,0,.48633-1.32422V32.498Z"/><path class="cls-2" d="M84.03125,35.457a3.42988,3.42988,0,0,1-1.793.44531A2.97158,2.97158,0,0,1,79.97656,35a3.25919,3.25919,0,0,1-.85547-2.33789,3.58545,3.58545,0,0,1,.92285-2.56934,3.239,3.239,0,0,1,2.46973-.97559,3.37524,3.37524,0,0,1,1.52344.31641v1.13672a2.51206,2.51206,0,0,0-1.52344-.50391,2.062,2.062,0,0,0-1.60254.68262,2.607,2.607,0,0,0-.61816,1.81934,2.48765,2.48765,0,0,0,.583,1.752,2.03469,2.03469,0,0,0,1.57324.63281,2.61355,2.61355,0,0,0,1.582-.55078Z"/><path class="cls-2" d="M88.38379,35.68555a2.12034,2.12034,0,0,1-1.01367.20508q-1.74023,0-1.74023-1.92773V30.21875H84.5166v-.94922h1.11328V27.71094l1.14258-.36328v1.92188h1.61133v.94922H86.77246v3.53906a1.49662,1.49662,0,0,0,.2168.91406.86334.86334,0,0,0,.7207.27539,1.08677,1.08677,0,0,0,.67383-.2168Z"/><path class="cls-2" d="M98.043,35.75h-1.1543V34.73047h-.02344a2.13784,2.13784,0,0,1-1.998,1.17188q-2.30273,0-2.30273-2.75391V29.26953h1.13672v3.709q0,1.97461,1.51172,1.97461a1.50456,1.50456,0,0,0,1.21289-.55371,2.10475,2.10475,0,0,0,.46289-1.39746V29.26953H98.043Z"/><path class="cls-2" d="M99.4248,34.34961a3.12827,3.12827,0,0,0,1.86914.627q1.3418,0,1.3418-.87891a.76858.76858,0,0,0-.293-.61816,4.6,4.6,0,0,0-1.18945-.57715,3.39746,3.39746,0,0,1-1.40039-.8584,1.65194,1.65194,0,0,1-.32227-1.02832,1.61341,1.61341,0,0,1,.72949-1.37988,3.02027,3.02027,0,0,1,1.7959-.51855,4.05131,4.05131,0,0,1,1.53516.28711v1.10742a2.97083,2.97083,0,0,0-1.64648-.46875,1.53845,1.53845,0,0,0-.89648.24023.73742.73742,0,0,0-.3457.63281.75782.75782,0,0,0,.249.60352,4.44071,4.44071,0,0,0,1.10449.55664,3.73308,3.73308,0,0,1,1.46484.83789,1.56654,1.56654,0,0,1,.38086,1.07227,1.62505,1.62505,0,0,1-.72949,1.40332,3.21528,3.21528,0,0,1-1.88965.5127,3.83464,3.83464,0,0,1-1.75781-.38086Z"/><rect class="cls-3" width="137" height="39"/></g></g></svg>