<svg xmlns="http://www.w3.org/2000/svg" viewBox="0 0 259.56012 259.54439"><defs><style>.cls-1{fill:#c9a16c;}</style></defs><title>资源 1</title><g id="图层_2" data-name="图层 2"><g id="图层_1-2" data-name="图层 1"><path id="_路径_" data-name="&lt;路径&gt;" class="cls-1" d="M252.21188,119.24912c2.00838-.00313,4.01742.023,6.02478-.02364.81321-.01888,1.18979.13888,1.18393,1.08229q-.05837,9.39611-.00072,18.79268c.00531.90241-.28485,1.15028-1.14879,1.11992-1.6716-.05868-3.348.02179-5.0199-.03285-.83314-.0272-1.06881.2797-1.0446,1.07512q.07412,2.43652.00082,4.87667c-.02265.77193.27311.98777,1.00229.969,1.577-.04065,3.16156.07124,4.73189-.03865,1.22873-.086,1.48835.35,1.48519,1.51867q-.05955,22.0923-.02608,44.18482c0,.81293-.03564,1.62784.0098,2.43819.04063.72481-.18748,1.01265-.96251,1.00667q-6.09659-.04717-12.19366.00023c-.80567.00649-.94639-.34457-.93494-1.0341.03255-1.96005.01642-3.92093.01946-5.88147.06124-.05677.12247-.11353.183-.1713,1.48566-.48552,3.0162-.17968,4.52535-.24329,1.60668-.06775,1.71886-.13781,1.739-1.69322.01416-1.09286-.02021-2.18683.0072-3.2789.02468-.98286-.43758-1.327-1.3789-1.35958-1.65383-.05728-3.32521.2306-4.96339-.21993a.87217.87217,0,0,1-.3557-.37745,24.17964,24.17964,0,0,1-.16133-5.714c.01769-1.02171.69331-1.38619,1.62209-1.42852,1.24353-.05667,2.48806-.03867,3.73129-.0265,1.00173.0098,1.51783-.36468,1.48463-1.428-.03283-1.0513-.02244-2.10534-.00337-3.15737.01735-.95722-.39817-1.4043-1.36668-1.40007-1.10016.00479-2.20115.01755-3.30114-.01334-1.85174-.052-2.19176-.36369-2.21211-2.19255-.03674-3.30114-.00177-6.60276-.01523-9.90413-.00755-1.8479-.10769-1.95307-1.94389-1.962-3.15783-.01534-6.31575.00072-9.47361-.0081a5.38312,5.38312,0,0,1-1.98753-.19988.924.924,0,0,1-.4024-.35679,4.73643,4.73643,0,0,1-.25782-2.115c-.01118-3.25166.01164-6.50344-.01208-9.755-.0109-1.49564-.14429-1.62479-1.66005-1.63455-3.20377-.02067-6.40772-.00082-9.61156-.01038a5.86094,5.86094,0,0,1-2.1295-.19986.92044.92044,0,0,1-.402-.35651,4.74356,4.74356,0,0,1-.25686-2.113c-.01181-3.24875.01441-6.49769-.01371-9.7463-.013-1.49331-.16052-1.61969-1.661-1.64691-1.0029-.0182-2.00655.00287-3.00966.00053-.90127-.00209-1.28828.426-1.29816,1.31227-.01493,1.3376.04142,2.67675-.034,4.01243-.07975,1.41216-.42022,1.74737-1.83528,1.82574-1.14486.06338-2.29458.05707-3.43886.01441-1.17322-.04377-1.61322.46092-1.60226,1.6153.02992,3.15287.02086,6.30639.00624,9.45957-.01141,2.46313-.25355,2.73072-2.70416,2.70525a19.64869,19.64869,0,0,1-4.70812-.18818.93031.93031,0,0,1-.40287-.35155c-.504-1.4911-.192-3.03166-.259-4.54917-.07253-1.64281-.15754-1.75742-1.8357-1.78894-1.14633-.02152-2.293.01309-3.4396-.03039a1.46582,1.46582,0,0,1-1.602-1.60409c-.03544-1.19447.00116-2.38909-.0262-3.58312-.03429-1.49474-.16727-1.65392-1.64948-1.66754-3.29664-.03029-6.59366-.00047-9.89045-.016a3.35262,3.35262,0,0,1-2.07721-.37483c-.76919-1.18228-.40419-2.50818-.43069-3.76994-.06985-3.32777.26636-2.98358-3.00439-3.04585-1.17086-.02228-2.398.295-3.49827-.40234a3.13771,3.13771,0,0,1-.40569-2.0676c-.01546-3.15729.0067-6.31472-.01187-9.472-.00992-1.68855-.13-1.8-1.78307-1.81908-1.05219-.01216-2.10482.00227-3.15713.00242a1.14415,1.14415,0,0,0-1.31641,1.30135c-.01409,1.24367.03853,2.48888-.03367,3.73065-.08217,1.41351-.42631,1.837-1.83577,1.81183-1.83926-.03276-3.72391.43475-5.51511-.36689a3.53144,3.53144,0,0,1-.42142-2.34812c-.01358-5.26088-.00445-10.5218-.00784-15.78271-.00154-2.41443-.00582-2.41384-2.355-2.42184-.95648-.00326-1.914.02982-2.86923-.0172-1.513-.07449-1.852-.39875-1.931-1.88825-.06591-1.24174-.04547-2.48735-.01837-3.72965.02352-1.07635-.38878-1.59676-1.51206-1.55046-1.05017.04329-2.1042.02147-3.156.00721-.89834-.01217-1.30451.3862-1.30936,1.28828-.0072,1.339.04244,2.67953-.02968,4.01671-.0793,1.47053-.42536,1.79833-1.95877,1.85588q-1.93518.07265-3.87327.00046c-1.57015-.0575-1.90371-.38217-1.93176-2.01245-.05345-3.10815-.01377-6.21723-.01874-9.32592-.00434-2.71522-.003-2.71665-2.78489-2.716-2.9174.00064-5.83533.02946-8.752-.01379-1.16007-.0172-1.67566.4048-1.626,1.57826.04244,1.00237.01684,2.00837.01093,3.01244-.0056.95206.41724,1.39236,1.38169,1.39694,1.29082.00613,2.58239-.03121,3.873.03769.95119.05079,1.55721.48921,1.57753,1.48379.083,4.06361.10917,8.12771-.01552,12.19115a1.40641,1.40641,0,0,1-.29552.79676c-1.11256.79219-2.38721.43122-3.591.45617-3.19574.06618-2.89264-.23768-2.96107,2.91494-.02826,1.30149.34888,2.66525-.42122,3.89389a3.51448,3.51448,0,0,1-2.21177.39191c-3.2447.01574-6.48959-.01-9.73422.01394-1.50349.01108-1.633.15641-1.67108,1.63415-.02947,1.14468-.00119,2.29-.02344,3.43528-.02232,1.14916-.53013,1.83492-1.72883,1.78344-1.83757-.07893-3.7102.3875-5.50716-.33274-.80892-.83131-.51113-1.885-.52835-2.85434-.07476-4.21029.47206-3.65627-3.62228-3.68709-2.92145-.022-2.6924-.16507-2.68215,2.72675.01278,3.60038-.39732,3.2267,3.30959,3.29447,1.15933.02119,2.3945-.34315,3.45921.46107.769,1.33636.35436,2.79506.4017,4.19629.07414,2.1945.02529,2.20065,2.2569,2.2043,3.09565.00506,6.19133-.00636,9.28695.00677a3.44753,3.44753,0,0,1,2.07547.36336,1.89564,1.89564,0,0,1,.44349,1.46982A30.13331,30.13331,0,0,1,112.617,133.09a.92241.92241,0,0,1-.35.40631,4.68039,4.68039,0,0,1-2.11.25509c-3.198.011-6.39619-.00871-9.59416.01024-1.67864.01-1.77415.14217-1.8318,1.78095a21.21428,21.21428,0,0,1-.18032,4.4198.96035.96035,0,0,1-.32632.40341c-1.5742.527-3.19918.20235-4.80063.262-1.78558.06657-1.82431.09714-1.88661,1.83712-.054,1.50877.23618,3.03755-.23434,4.52751a.92154.92154,0,0,1-.4077.35861,10.585,10.585,0,0,1-3.27913.202c-2.9187.01542-5.83807.04424-8.75625-.01266-1.59147-.031-1.993-.38757-1.9639-1.97015.03209-1.74836-.3839-3.53439.31675-5.242.7671-.81209,1.77533-.537,2.69772-.55425,4.45907-.0834,3.81654.55779,3.86338-3.87469.02263-2.14136-.0026-2.16708-2.12493-2.143-4.44247.05046-3.81263-.61651-3.891,3.84094-.01553.8836.21689,1.8257-.43664,2.61077a2.33308,2.33308,0,0,1-1.743.43269,27.44419,27.44419,0,0,1-5.21685-.18608.91419.91419,0,0,1-.40287-.352,4.709,4.709,0,0,1-.25244-2.103c-.01109-3.23371.012-6.46759-.012-9.7012-.01161-1.566-.15577-1.6604-1.72958-1.72593a19.38489,19.38489,0,0,1-4.54109-.21169.88733.88733,0,0,1-.3858-.3755,4.71788,4.71788,0,0,1-.23548-1.97351q-.01294-4.65265-.00149-9.30534c.00712-2.57164.23028-2.8018,2.74946-2.8126,3.14946-.01349,6.29908.01127,9.44847-.00994,1.72835-.01163,1.82137-.149,1.87689-1.89408a22.03106,22.03106,0,0,1,.181-4.56148,1.004,1.004,0,0,1,.33019-.41877c1.39024-.53155,2.84-.23354,4.26279-.27383,2.09279-.05925,2.11582-.04873,2.12669-2.21345.005-1.005.00226-2.00989.01449-3.015a1.48707,1.48707,0,0,1,1.688-1.66294c1.24439-.01634,2.48942-.03264,3.73272-.00838,1.03236.02014,1.44171-.412,1.46824-1.44808a22.11337,22.11337,0,0,1,.21221-5.14339.88416.88416,0,0,1,.38007-.37576,8.94958,8.94958,0,0,1,3.12655-.22483c3.01176-.01709,6.024-.03565,9.03549.00661,1.81576.02548,2.17048.3829,2.19392,2.21728.04215,3.29838.00064,6.5974.01832,9.89606.0097,1.812.1325,1.92208,1.97763,1.94194.90824.00977,1.81925-.04019,2.72438.00961,1.203.0662,1.61413-.49939,1.56389-1.634-.04646-1.04937-.00813-2.103-.00811-3.15479q.00032-10.03965-.00256-20.07928c-.0022-2.0123-.06545-2.06027-2.10882-2.0785-1.14714-.01023-2.29432.01945-3.44152-.03011a1.47383,1.47383,0,0,1-1.60131-1.6126c-.03813-1.57742-.03256-3.15454-.00255-4.73206a1.53138,1.53138,0,0,1,1.68074-1.69592c1.29072-.045,2.58268-.05336,3.87151-.01789,1.15383.03176,1.59849-.42637,1.62764-1.59773.03994-1.6043-.34847-3.25059.33663-4.81186,1.163-.82223,2.49205-.4361,3.74725-.46266,2.99485-.06343,2.785.14518,2.796-2.81766.00249-.66764-.00657-1.33536.00344-2.00291.03139-2.0914.28827-2.34264,2.43487-2.37342,1.00133-.01436,2.00365-.026,3.0041-.00212,1.02326.02445,1.45925-.41172,1.454-1.447q-.0255-5.00706-.00025-10.01443c.00519-1.04814-.46279-1.40907-1.4697-1.43879-1.61173-.04758-3.24241.237-4.83753-.224a.908.908,0,0,1-.38057-.40142,25.087,25.087,0,0,1-.15059-6.13131,1.27606,1.27606,0,0,1,1.30061-1.269,11.03848,11.03848,0,0,1,1.28724-.05914c5.54048-.00305,11.081-.01134,16.62143.00346,2.35118.00628,2.65738.27128,2.59109,2.65972-.04557,1.64255.41188,3.33909-.3871,4.92461-1.05.84958-2.295.47994-3.45728.50336-3.23212.06513-3.02682-.236-3.03171,3.04366-.00768,5.16206.01052,10.32417-.00833,15.48619-.00771,2.11088-.31625,2.40554-2.39885,2.44532-1.14687.02191-2.29418.00933-3.44118.01167-.87382.00178-1.32528.35048-1.32652,1.27246-.00478,3.53688-.01266,7.07371.00477,10.61059.004.81683.369,1.2362,1.20765,1.24259,3.58443.02727,7.16878.04325,10.75307-.00961a1.04519,1.04519,0,0,0,1.15788-1.15093c.01542-.52573.02165-1.05116.0217-1.57678q.0015-14.69757.0084-29.39512a3.58609,3.58609,0,0,1,.38-2.35484,1.35372,1.35372,0,0,1,.99847-.46383c1.91807.006,3.848-.29873,5.7495.19823.06932.06153.138.12416.20676.18678.00323,4.15908.04622,8.31876-.01709,12.47683-.01669,1.097.31653,1.35917,1.37124,1.34212,3.82349-.0618,7.64907.01007,11.4727-.04728,1.01373-.01521,1.32442.28434,1.27583,1.28762-.07853,1.62159.01665,3.251-.03646,4.87467-.02682.8194.25558,1.08082,1.064,1.05522,1.62377-.05144,3.25327-.07441,4.87462.00656,1.01513.05068,1.28633-.28292,1.27878-1.284-.04466-5.9276-.03057-11.85572-.01751-17.78363.00482-2.18637-.27486-1.89182,1.8862-1.91576,1.24279-.01377,2.48974.05785,3.72761-.02149.99117-.06353,1.31364.2386,1.29718,1.265-.05982,3.7279.01322,7.45794-.04708,11.18583-.01684,1.04188.21919,1.43492,1.33382,1.37919,1.8596-.093,3.72748-.01984,5.59188-.01664.06047.06755.12095.13509.18249.20194a21.55634,21.55634,0,0,1,.17621,6.1274c-.03541.96844-.78241,1.2226-1.617,1.26641-1.24267.06524-2.48718.04168-3.72988.02874-1.02187-.01066-1.48644.4088-1.46148,1.45131.02745,1.14675.03513,2.29629-.0101,3.44322-.06245,1.58363-.39167,1.948-1.979,1.97732-3.29962.06085-6.60034.01025-9.90055.024-2.10855.00876-2.17218.07-2.176,2.1727-.00561,3.109-.02221,6.21807.00824,9.32681.01451,1.48154.17725,1.62,1.6698,1.65259,1.24316.02719,2.48692.0055,3.7305.01786a1.55882,1.55882,0,0,1,1.752,1.76987c.01283,1.43481.02768,2.86912-.0081,4.30391a1.53871,1.53871,0,0,1-1.68884,1.69387c-1.33911.04569-2.67855.033-4.01709.02475-1.03676-.00642-1.45334.458-1.45034,1.47641.01,3.39585.02137,6.792-.00577,10.18763-.0089,1.11393.46219,1.51367,1.5454,1.50488,3.3-.02681,6.6005-.02081,9.90073-.00566,2.36012.01084,2.61621.268,2.62872,2.65207.01656,3.15673-.00852,6.31363.01,9.47034.01059,1.80685.142,1.92059,1.98324,1.94364.90867.01137,1.81793-.01689,2.72618.012,1.8047.05737,2.11649.38075,2.16874,2.248.02941,1.05182.02479,2.10486.00987,3.1565-.01429,1.007.39185,1.50353,1.44221,1.479,1.09908-.02572,2.20154-.03973,3.29953.00615,1.10837.0463,1.53627-.43249,1.52978-1.52672q-.02834-4.8066.00047-9.61373a3.48092,3.48092,0,0,1,.398-2.21637,1.893,1.893,0,0,1,1.328-.41256c3.93358-.03143,7.86728-.05665,11.80078.01189a2.30108,2.30108,0,0,1,.69358.13566,1.07743,1.07743,0,0,1,.42927.3048c.58832,1.51571.22725,3.09787.29512,4.64979.07376,1.68562.11593,1.77235,1.78128,1.78913.90237.00909,1.80789-.044,2.70663.01174,1.19561.07412,1.55539-.47948,1.56957-1.61007.01946-1.55477-.26832-3.133.22874-4.66636.05735-.06136.1157-.122.17407-.18266,1.86617-.00316,3.73609.06406,5.59709-.03572,1.12735-.06045,1.39229.352,1.32463,1.38812-.084,1.2865.0895,2.59452-.04892,3.8715-.15826,1.45994.421,1.80315,1.75683,1.68369,1.28172-.11462,2.588.0543,3.87193-.04757,1.21517-.09641,1.65267.21119,1.61541,1.54042-.10315,3.68165.01032,7.369-.06273,11.05208-.023,1.15953.239,1.55606,1.47672,1.53318,4.20937-.07783,8.42116-.02452,12.632-.0213.05918.0654.11835.13078.1786.19549a4.54565,4.54565,0,0,1,.25451,2.11411c.01171,3.061-.00561,6.12217.00906,9.18319.0082,1.70831.118,1.81117,1.76242,1.83206.9086.01155,1.81953-.03516,2.72569.01024,1.11582.05592,1.52321-.44108,1.51408-1.52984-.02649-3.15643-.01609-6.31336-.0051-9.47005a5.95794,5.95794,0,0,1,.19455-2.131.92176.92176,0,0,1,.34632-.39768c1.38751-.4873,2.82463-.2132,4.2391-.25145,2.03928-.05514,2.10185-.07481,2.1079-2.06437.00954-3.136-.00312-6.272.00687-9.408a4.17183,4.17183,0,0,1,.25044-1.95909C252.09023,119.37908,252.15106,119.3141,252.21188,119.24912Z"/><path id="_路径_2" data-name="&lt;路径&gt;" class="cls-1" d="M42.29948,182.14293l-14.09063-.02012.0198.01975-.0008-6.91194c.06113-.0567.12227-.11343.18271-.17115,1.53516-.49637,3.116-.21251,4.67352-.22857,1.13719-.01174,1.681-.37218,1.60667-1.57229a26.71039,26.71039,0,0,1-.00247-2.99627c.05744-1.13436-.48271-1.4749-1.54132-1.49909-1.60727-.03674-3.23426.24876-4.82476-.22347a.90246.90246,0,0,1-.35353-.39835,10.47138,10.47138,0,0,1-.20293-3.25508c-.02057-2.85-.01563-5.70024-.00123-8.55033a3.2963,3.2963,0,0,1,.38388-2.06228c2.11791-.85985,4.3003-.43754,6.461-.27972.599.04375.80439.61053.88509,1.15967a15.50727,15.50727,0,0,1,.07156,2.14189c.03059,3.86159-.33994,3.3731,3.48375,3.4156.572.00635,1.14433-.01008,1.716.01139a2.14939,2.14939,0,0,1,1.48113.40317c.784.96287.46071,2.10834.481,3.179.07731,4.08639-.44395,3.55281,3.60893,3.588q3.7999.033,7.60031-.00158c1.54277-.01192,1.65388-.12747,1.6818-1.60857.01982-1.05126-.029-2.10466.01071-3.15436.04223-1.11627-.46289-1.52226-1.54473-1.51592q-4.8754.02855-9.75131.00084a2.83015,2.83015,0,0,1-2.048-.45032c-.84785-2.12969-.52979-4.32278-.2191-6.47415.135-.935,1.173-.842,1.92055-.8521,3.06091-.04126,6.12234-.01225,9.18356-.018.4304-.00082.8605-.0105,1.29087-.02457a1.04633,1.04633,0,0,0,1.13356-1.17682q.05865-5.3806.0033-10.76131c-.00737-.84909-.45458-1.18116-1.26367-1.18723-1.1001-.00824-2.20032.00738-3.30018-.01381a3.19354,3.19354,0,0,1-1.80444-.33956c-.79705-1.00686-.45545-2.19507-.47509-3.30637-.06424-3.63607.30046-3.23992-3.19918-3.2497-2.97753-.00829-2.78733-.27448-2.83935,2.89822-.01984,1.21008.32205,2.48383-.42541,3.61747-1.44606.719-2.99175.31844-4.49054.368-2.21419.07325-2.21985.031-2.23486,2.22876-.00714,1.0456.04422,2.09269-.04585,3.13639-.05586.64743-.23174,1.33057-.97574,1.38819-2.11364.16368-4.24538.49432-6.33094-.233a3.13128,3.13128,0,0,1-.4416-2.19274c-.01812-3.15306.0083-6.30637-.01418-9.4594-.01135-1.59175-.15048-1.71537-1.71429-1.7427-.90749-.01585-1.81549-.01185-2.72311-.00138-1.68939.01947-1.812.123-1.822,1.77423-.0192,3.153.00245,6.3063-.01146,9.45942a3.44929,3.44929,0,0,1-.36459,2.08182,2.37941,2.37941,0,0,1-1.86446.4476c-1.63189-.06666-3.28412.255-4.89512-.23817-.06919-.06145-.13778-.124-.20636-.18652-.00324-4.20529-.0336-8.41087.01093-12.61567.01007-.951-.28857-1.20921-1.216-1.19815-3.87026.04612-7.74185-.01313-11.61189.04144-.99785.01408-1.30267-.26038-1.28765-1.27535.05726-3.87.04835-7.74158.00455-11.61189-.01032-.91179.21721-1.26,1.18682-1.2275,2.00467.0671,4.01337.014,6.02041.01041.77739,1.239.3784,2.61424.412,3.92607.06487,2.53425.02068,2.5548,2.5183,2.53261,4.00973-.03562,3.47288.50127,3.50849-3.5085.02218-2.49763.00165-2.45345-2.5326-2.51831-1.31184-.03358-2.687.3654-3.92608-.412.00352-1.91281-.04351-3.82762.03157-5.73762.03844-.97776-.32492-1.21848-1.23325-1.182-1.57557.06322-3.162-.07026-4.73156.04528-1.23949.09124-1.25019-.54035-1.24839-1.45651Q.09185,95.49549.07427,80.073c0-2.91711.03465-5.83487-.01986-8.75095C.03691,70.38558.315,70.09935,1.25923,70.111q5.88114.07246,11.76363.00223c.87183-.00923,1.17677.232,1.14149,1.12787-.06582,1.67116-.05461,3.34784-.00365,5.02.02464.80852-.23557,1.09115-1.05541,1.06438-1.62418-.053-3.25216.01541-4.87691-.02815-.74769-.02005-.99059.23108-.98779.98312q.03555,9.54025.00367,19.08067c-.00177.66636.20168.92791.8967.92392,4.01686-.02312,8.03411-.032,12.05081.00261,1.039.009.84325-.66419.84374-1.2543.005-6.07332.03314-12.14692-.02324-18.21971-.01072-1.15439.22913-1.62512,1.47491-1.52949,1.47378.11312,2.96559-.02781,4.44439.04571.97193.04833,1.36639-.20619,1.309-1.2536-.08616-1.57338.02336-3.15682-.03976-4.7324-.03636-.90771.20306-1.272,1.18149-1.23366,1.91.07492,3.82471.02734,5.73748.03047.06093.06848.12186.137.18389.20477a3.80133,3.80133,0,0,1,.25943,1.82795q.01188,8.39952-.00154,16.799c-.00673,2.27935-.29459,2.547-2.57251,2.57783-1.00492.01358-2.01.00721-3.015.01184-.90454.00416-1.292.43965-1.29135,1.32448.00082,1.19639.01362,2.39322-.00453,3.58911-.01523,1.00319.49465,1.343,1.4215,1.339,1.14834-.005,2.298-.03071,3.44554.01905,1.59671.06924,2.01672.40431,1.98677,1.96446-.03443,1.79385.40577,3.63142-.35937,5.37953a2.9831,2.9831,0,0,1-2.0414.43973c-.85552.02191-1.71189-.00125-2.56778.00833-1.76736.01978-1.85853.11-1.887,1.84453-.0203,1.236.04212,2.47345-.04188,3.708-.04322.63517-.16186,1.37289-.90265,1.44295-2.20443.20848-4.42684.52163-6.60874-.19135a2.31415,2.31415,0,0,1-.51944-1.87127c-.02388-1.24385-.00366-2.4881-.01445-3.73225a1.067,1.067,0,0,0-1.23115-1.21319c-1.19616.00353-2.39237-.00247-3.58863.00236-.746.003-1.16875.29533-1.17315,1.09612-.00735,1.33979-.00453,2.67939-.00088,4.01913.00239.87486.48328,1.16106,1.27533,1.16788,1.14843.0099,2.29693-.00681,3.44518.01307a2.36789,2.36789,0,0,1,1.75483.46867c.612.80187.39694,1.74118.41368,2.63029.08107,4.30466-.57012,3.72876,3.84528,3.77073,2.67358.02542,5.34775-.01813,8.02126.01436,1.84088.02237,2.15078.34835,2.20371,2.18716.03159,1.09766.02,2.19643.01174,3.29422-.007.93871.36454,1.4027,1.35226,1.40045q5.22805-.01188,10.45622-.00145c.98233.001,1.36523-.446,1.35292-1.39385-.01425-1.09761-.016-2.19637.00864-3.29421a2.74326,2.74326,0,0,1,.40231-1.77978c2.13258-.79493,4.31749-.45866,6.48018-.22843.7399.07876.83578.84.87674,1.47179.08347,1.28735.04069,2.578.03777,3.86675-.00221.97394.437,1.3729,1.3925,1.35773,1.19319-.019,2.38748-.01318,3.58117.00393a2.47487,2.47487,0,0,1,1.757.46128l-.0195-.0195a2.82209,2.82209,0,0,1,.46062,2.03467c.01153,3.18581-.0029,6.37169.00769,9.55751.00649,1.95076.079,2.01663,1.98391,2.03269.95095.008,1.902-.00782,2.85292.0094a2.29,2.29,0,0,1,1.60679.45723l-.0195-.01946c.88449,2.11781.48417,4.3012.26335,6.45715-.07539.7361-.84644.82562-1.47622.867-1.19068.0783-2.38473.009-3.5766.04265-1.46839.0414-1.6.17774-1.6301,1.68307q-.02863,1.43057.00047,2.862c.03327,1.54647.16533,1.69048,1.76082,1.70417,2.81428.02412,5.62882.006,8.44326.00764.477.00028.95413-.00528,1.431.00438,2.09187.04235,2.45626.33972,2.4067,2.41673-.03926,1.64531.38178,3.33762-.36591,4.934-1.17769.77118-2.50043.40667-3.75895.43526-3.24889.07381-3.02147-.29348-3.03091,3.00419-.00818,2.85888.00713,5.71784-.00775,8.57669a3.244,3.244,0,0,1-.39132,2.06627,3.18135,3.18135,0,0,1-2.19232.4336c-3.19465.01693-6.38945-.00421-9.5841.01153-1.76824.00869-1.883.119-1.89275,1.84976-.01852,3.29.00169,6.58014-.01057,9.87019a3.49189,3.49189,0,0,1-.25534,1.6794c-.06115.068-.12338.13525-.18562.20256-4.19961.00316-8.3995-.01823-12.59862.02859-.92392.01029-1.24662-.24124-1.21586-1.19541.06453-2.00214.01343-4.008.0098-6.01233,1.239-.77743,2.61422-.37852,3.926-.41206,2.53428-.06482,2.55479-.02063,2.53263-2.51822-.03557-4.01007.5009-3.47283-3.50851-3.50845-2.49765-.02219-2.45345-.00168-2.51832,2.53251C42.67785,179.52867,43.07682,180.90388,42.29948,182.14293Z"/><path id="_路径_3" data-name="&lt;路径&gt;" class="cls-1" d="M245.33884,189.30267c-1.91262.00312-3.8271.05769-5.73705-.012-.9758-.03564-1.18838.325-1.18328,1.23171.0343,6.12027-.0133,12.24112.0454,18.361.011,1.151-.32767,1.43753-1.44093,1.41827-3.82415-.06619-7.65051-.05432-11.47517-.00512-.94684.01216-1.24256-.2777-1.20174-1.21348.06868-1.57492-.01427-3.156.032-4.73256.0223-.75947-.25144-.98143-.99189-.9788q-9.46747.03358-18.93506-.00245c-.80271-.00344-1.07026.23088-1.06654,1.05172q.04291,9.46742-.00167,18.935c-.00457.87969.36317,1.02428,1.11275,1.005,1.57688-.0406,3.1566.02226,4.733-.0264.78983-.02438,1.11073.20079,1.07934,1.04-.05716,1.528-.07192,3.06241.00417,4.58874.0491.98528-.23125,1.31711-1.26251,1.30106-3.82436-.05958-7.65077.01215-11.47514-.0471-1.04024-.01611-1.43334.21623-1.38078,1.33277.09208,1.95593.02009,3.91961.01684,5.88-.0698.06158-.13958.12317-.20869.18587a19.77237,19.77237,0,0,1-5.8344.179c-.96725-.03846-1.2264-.77584-1.26842-1.61092-.06729-1.33692-.04044-2.67556-.02859-4.01262.009-1.01712-.40771-1.48062-1.44568-1.47185-1.337.01131-2.6755.03376-4.01269-.02787-.909-.04189-1.63194-.36036-1.65834-1.39054-.10529-4.10681-.12116-8.21448.011-12.32133a1.3483,1.3483,0,0,1,.31069-.78912c1.17815-.78162,2.50615-.4248,3.76664-.43991,3.94035-.04724,3.93505-.01711,3.94324,3.91149.00745,3.563-.2465,3.23455,3.25222,3.24824,2.72534.01064,2.72695.00107,2.72677-2.75421-.00019-2.91464.01995-5.82944-.00929-8.74386-.01472-1.46786-.183-1.6121-1.67425-1.65352-1.14612-.03183-2.293-.0007-3.43977-.0268a1.58069,1.58069,0,0,1-1.75125-1.78224c-.017-1.43338-.02277-2.86625.00328-4.29964a1.50419,1.50419,0,0,1,1.67476-1.68449c1.05123-.01853,2.10221-.00961,3.15326-.01727,1.97975-.01441,2.0271-.05863,2.04287-1.98026.009-1.09888-.034-2.199.0206-3.29646.07462-1.49946.40362-1.85609,1.91551-1.88193,3.34407-.05723,6.68914-.009,10.03375-.023,2.02613-.00848,2.02957-.07718,2.12133-2.08767.06617-1.44977-.40839-2.96586.43251-4.34136a2.8039,2.8039,0,0,1,2.173-.45146c1.54272.09875,3.13043-.35816,4.624.35011.836.88351.50941,1.99022.52762,3.00852.07174,4.01437-.41784,3.51015,3.5142,3.53357,3.05913.01819,2.80094.19895,2.792-2.77736-.0105-3.517.39477-3.18109-3.23557-3.24437-1.16691-.02035-2.39929.32873-3.48782-.41477-.77128-1.07484-.41607-2.30627-.43775-3.46778-.06924-3.70783.31966-3.25452-3.31634-3.27311-2.78884-.01425-2.66237-.23935-2.72676,2.73047-.02918,1.34686.39933,2.76961-.45449,4.03209-2.08033.80078-4.2187.433-6.33116.25379-.81808-.06941-.91389-.87713-.95221-1.56012-.07485-1.33355-.043-2.67-.02976-4.00425.01017-1.0233-.41312-1.47976-1.45045-1.44878-1.14306.03415-2.28874.02223-3.43253.00428-.95855-.015-1.38821.40385-1.38521,1.36793.004,1.28705.0386,2.57572-.02307,3.86163-.07257,1.51345-.40573,1.93681-1.87888,1.90811-1.83143-.03565-3.712.44708-5.49155-.38285a2.654,2.654,0,0,1-.40985-1.77888c-.01674-3.49115-.02906-6.98249.00259-10.47346.01751-1.93115.35567-2.24934,2.26322-2.304,1.09945-.03155,2.19975-.01136,3.29962-.01667.88537-.00428,1.31858-.38627,1.31264-1.29443-.00687-1.05187-.02982-2.10545.00833-3.15581.04074-1.12214-.48957-1.51755-1.55786-1.51364q-4.80616.01764-9.61265.001c-2.665-.0101-2.89477-.23067-2.9015-2.82825-.00854-3.29986-.02358-6.59992.00715-9.8996.01793-1.92158.3374-2.21642,2.28231-2.25929,1.19526-.02634,2.39119-.01334,3.58657-.01174.90925.00121,1.28446-.427,1.293-1.31255.0129-1.33892-.04424-2.67962.03527-4.01644.08419-1.41517.42573-1.83793,1.84659-1.80014,1.83173.04873,3.72443-.50262,5.48973.42641l-.01946-.01947a2.84019,2.84019,0,0,1,.46184,2.04638c.012,3.25138-.007,6.50288.01,9.75422.00883,1.69865.1184,1.79947,1.77509,1.82053,1.00392.01278,2.009-.02174,3.012.00561,1.0233.02794,1.48652-.40408,1.47392-1.44148-.01453-1.19459-.04528-2.3919.02491-3.58528.0838-1.42579.41418-1.759,1.82708-1.84273,1.14556-.0679,2.2961-.0557,3.44161-.0176,1.16817.03883,1.6169-.46326,1.60682-1.61914-.02752-3.15543-.01334-6.31144-.00717-9.46722a9.844,9.844,0,0,1,.083-1.71688c.08776-.49267.26359-1.02276.80236-1.07322,2.165-.2028,4.34863-.615,6.47252.26387l-.01947-.01947c.77372,1.07655.42252,2.31123.4461,3.47672.06466,3.19629-.25407,2.9572,2.92444,2.9745.90695.00493,1.81385-.01266,2.72087.02761a1.41123,1.41123,0,0,1,1.52069,1.52125c.04917,1.14563.02137,2.29139.02791,3.437.01248,2.18659.01008,2.18655,2.25889,2.19311.85938.00249,1.71883-.0078,2.57812.00761a2.29579,2.29579,0,0,1,1.61448.45367l-.01947-.01947a2.18306,2.18306,0,0,1,.45456,1.72454c-.13537,1.70782.40739,3.46894-.392,5.12345-1.05545.83866-2.3.46757-3.463.48934-3.30913.062-3.01746-.21316-3.02859,3.03343-.01485,4.32956.30913,4.16578-4.11482,4.16546-3.40752-.00023-3.04749-.22708-3.06383,3.12153-.014,2.86376-.00244,2.86213,2.91445,2.86584.86073.0011,1.7213-.00242,2.58227.02377a1.5248,1.5248,0,0,1,1.66319,1.71078c.02177,1.10009.00366,2.2.01832,3.29991.023,1.72838.12785,1.83124,1.90442,1.85441.76513.01,1.53075.01492,2.2957-.00223,1.625-.03641,1.77653-.17271,1.78145-1.84819.01614-5.50028-.00005-11.00059.01131-16.50089a2.97368,2.97368,0,0,1,.474-2.1859c1.3321-.79056,2.79541-.39227,4.196-.41635,3.3756-.05807,3.41658.02188,3.41835,3.41427.00272,5.19636-.00918,10.39273.00621,15.589.00538,1.81748.13087,1.85791,1.96231,1.95867,1.49348.08217,3.0575-.42364,4.47114.4554l-.01946-.01947a1.5963,1.5963,0,0,1,.43405,1.17654c-.13642,2.008.51451,4.074-.43405,6.02255Z"/><path id="_路径_4" data-name="&lt;路径&gt;" class="cls-1" d="M161.17417,252.19589c.00317,2.008-.04275,4.01786.03057,6.02332.03567.9755-.32475,1.18612-1.23115,1.183q-12.76541-.04457-25.531.00039c-.88248.00312-1.16905-.25123-1.133-1.135.06428-1.57515-.05067-3.15881.04145-4.73119.0634-1.08211-.28315-1.36051-1.3556-1.35571-8.94044.03995-17.88117.01788-26.82181.01451l.01979.01982c-.00334-1.86524-.07739-3.73406.01647-5.59439.0565-1.12-.34212-1.3885-1.38373-1.32917-1.47786.08417-2.965-.00975-4.44637.03386-.759.02235-1.13794-.14075-1.10543-1.01357.06046-1.62388.05876-3.25311.00038-4.87715-.03074-.85545.3175-1.04977,1.09228-1.02726,1.577.04584,3.15709-.01765,4.73415.02663.76688.02152,1.12825-.15667,1.099-1.0205-.05827-1.71983-.05812-3.44438,0-5.16421.02912-.86229-.32946-1.04432-1.09784-1.02167-1.52915.0451-3.06234-.03124-4.59038.02989-.89665.03586-1.29283-.182-1.24145-1.17331a43.74957,43.74957,0,0,0-.00046-4.58923c-.05377-1.00714.37221-1.17154,1.25193-1.16265,3.82581.03874,7.65275-.01767,11.47811.03918,1.02743.01527,1.46637-.19234,1.388-1.32432a35.6755,35.6755,0,0,1-.00435-4.44507c.06047-1.08171-.202-1.54927-1.39656-1.45967-1.47436.11059-2.96685-.036-4.44478.04754-1.039.05875-1.46282-.204-1.38325-1.32789.10108-1.42766-.03127-2.87082.04363-4.30173.0511-.9764-.21266-1.36712-1.25673-1.30584-1.47757.08673-2.96613-.026-4.4459.03935-.91367.04033-1.27944-.21241-1.22892-1.18595a42.99958,42.99958,0,0,0,.00008-4.4459c-.05105-.98586.23146-1.31729,1.26279-1.30123,3.82527.0596,7.65261-.01278,11.47786.04745,1.046.01648,1.395-.22911,1.37835-1.33606-.064-4.25561-.02076-8.51282-.01754-12.76943.06609-.05946.13217-.11889.19761-.1794a21.07294,21.07294,0,0,1,5.83852-.18005c.79877.02091,1.1669.56229,1.23727,1.32312.09706,1.04951.04567,2.10177.05193,3.15276.01388,2.33081.0123,2.3086,2.28389,2.35007a14.49661,14.49661,0,0,1,3.99106.20243.88353.88353,0,0,1,.3849.36592,24.25542,24.25542,0,0,1,.16836,6.13424c-.025.9545-.69979,1.28246-1.55828,1.331-1.29027.073-2.5821.03264-3.87287.03783-.95657.00384-1.39835.41493-1.38411,1.38256.01619,1.09943.00843,2.19975.00386,3.29951-.00377.90723.42941,1.28428,1.3142,1.29364,1.29106.01369,2.58219-.00873,3.87337.02829a1.50859,1.50859,0,0,1,1.67888,1.68508q.04387,5.73872-.00071,11.47734a1.5755,1.5755,0,0,1-1.75555,1.7773c-1.24343.02563-2.48687.02014-3.73.01979-.95856-.00026-1.38836.42227-1.38546,1.38575.00374,1.243.0053,2.48651-.01846,3.72994a1.5834,1.5834,0,0,1-1.77961,1.75706c-1.19562.02386-2.39144.02685-3.58649.01651-.99105-.00857-1.5107.35937-1.50846,1.42053.00731,3.4433-.00053,6.88665.004,10.33.00124.931.36013,1.4297,1.35181,1.41432,1.05158-.0163,2.105-.02666,3.156.00549,1.0236.03131,1.48842-.39938,1.47457-1.4392-.01592-1.19483-.04259-2.39228.022-3.58615.07754-1.43315.40851-1.77968,1.81179-1.84657,1.33726-.06375,2.67844-.05248,4.01639-.00692,1.51787.05171,1.85061.38235,1.9265,1.87425.05831,1.14626.04045,2.29593.01686,3.44272-.02172,1.056.35884,1.60952,1.49612,1.56375,1.05-.04223,2.10562-.045,3.15546.00223,1.1493.05167,1.6657-.40762,1.63419-1.58652-.03317-1.24137-.04462-2.48651.02953-3.729.05224-.87535.43313-1.49445,1.37363-1.5196a25.03109,25.03109,0,0,1,5.71495.13535.93451.93451,0,0,1,.40247.34843,4.62874,4.62874,0,0,1,.26277,2.109c.01115,3.14989-.01174,6.29994.01188,9.44974.01139,1.51792.15213,1.64395,1.6268,1.675.90642.01909,1.81385.02081,2.72024-.00084,1.466-.035,1.59516-.17032,1.63227-1.68473.02924-1.19256-.01693-2.38583.03471-3.57876a1.4755,1.4755,0,0,1,1.61441-1.59658c1.57473-.04351,3.14922-.02436,4.72405-.01039a1.50066,1.50066,0,0,1,1.6912,1.6626c.02922,1.14546.002,2.29084.02422,3.43592.03187,1.64153.14482,1.716,1.83029,1.785,1.46773.06005,2.95818-.23989,4.40178.25109C161.04356,252.07367,161.10887,252.13479,161.17417,252.19589Z"/><path id="_路径_5" data-name="&lt;路径&gt;" class="cls-1" d="M35.11983,70.1407c-.003-4.19991.03764-8.40059-.03716-12.59922-.021-1.17981.28266-1.51891,1.49008-1.51109,8.39952.05439,16.79971.00489,25.19927.05592,1.17692.00715,1.58014-.27494,1.51036-1.49022-.10377-1.80743-.0213-3.62556-.01808-5.43914.06609-.059.13219-.118.19771-.178a19.18978,19.18978,0,0,1,6.56391-.01347.88817.88817,0,0,1,.36191.38883,16.369,16.369,0,0,1,.20151,4.28172c.03923,2.53579.02893,5.07281.00322,7.60878-.01092,1.0771.3777,1.59556,1.50658,1.54784,1.09844-.04642,2.20152-.03089,3.30128-.00521,1.02174.02386,1.48524-.40631,1.474-1.44573-.014-1.29138-.04694-2.58534.02412-3.8755.07845-1.42445.41185-1.75592,1.83033-1.83644,1.14668-.06509,2.29831-.05694,3.44455-.01536,1.17807.04274,1.61331-.47144,1.6025-1.62389-.02958-3.15811-.0213-6.31687-.006-9.47531.01187-2.44559.25406-2.70634,2.73674-2.68063a16.32734,16.32734,0,0,1,4.42638.206.90488.90488,0,0,1,.39572.38341,4.62512,4.62512,0,0,1,.24224,1.96519q.01044,8.343-.00079,16.68611a3.85858,3.85858,0,0,1-.32411,2.08385c-.89477.80027-1.99526.49081-3.0149.50935-4.08822.07436-3.51611-.44106-3.56958,3.618-.00126.0955-.00043.191,0,.28655.00869,2.06884.03946,2.10147,2.05187,2.11455.95512.00621,1.91055-.0157,2.8653.01252a2.24873,2.24873,0,0,1,1.61685.44568,14.30122,14.30122,0,0,1-.00452,7.15456,3.03336,3.03336,0,0,1-2.18313.4566c-3.14923.01838-6.29865-.00677-9.44786.01352-1.65643.01067-1.75722.131-1.77742,1.81731-.01029.85879.0402,1.72046-.0109,2.576-.0702,1.17523.43987,1.60824,1.59877,1.59617,3.19657-.0333,6.39393-.02258,9.59087-.00422a3.26782,3.26782,0,0,1,2.20084.42408,11.59568,11.59568,0,0,1-.06075,6.92518l.0195-.0195a2.63134,2.63134,0,0,1-1.90322.4632c-5.69192.00869-11.38388.01833-17.07575-.00345-2.10318-.008-2.40623-.33189-2.44851-2.40843q-.03067-1.50632-.00742-3.01307c.01683-1.02042-.41847-1.4502-1.45473-1.47134a21.42652,21.42652,0,0,1-4.71607-.18178,1.01021,1.01021,0,0,1-.429-.34832,15.14622,15.14622,0,0,1,.0843-6.79733c1.17354-.78792,2.49949-.41611,3.75718-.43876,3.05043-.0549,2.76017.10692,2.77629-2.82711.00367-.66786-.03731-1.3385.0067-2.00307.07524-1.136-.48043-1.45844-1.53973-1.50329-1.64552-.06966-3.33766.37769-4.93434-.36544a3.32029,3.32029,0,0,1-.41894-2.20207c-.024-.90776-.04874-1.81916.00319-2.72418.06711-1.16953-.41022-1.65979-1.59121-1.59162a27.19142,27.19142,0,0,1-3.15366,0c-1.2095-.071-1.61837.48408-1.56785,1.62208.04658,1.04931.02488,2.1032.00018,3.1546a2.47181,2.47181,0,0,1-.44267,1.76449,13.89233,13.89233,0,0,1-6.82794.03669c-.809-1.005-.46266-2.19719-.48259-3.3102-.06528-3.64619.30429-3.24018-3.20957-3.25059-2.90893-.00862-2.778-.2829-2.83133,2.77712-.02192,1.257.3538,2.5848-.4486,3.759a12.97055,12.97055,0,0,1-7.16509-.10155Z"/><path id="_路径_6" data-name="&lt;路径&gt;" class="cls-1" d="M91.10181,14.13986c4.25545-.00322,8.51148-.04577,12.766.01726,1.10058.01631,1.35672-.32244,1.33989-1.37393-.06123-3.82418.011-7.65046-.04743-11.47473-.0156-1.021.30019-1.27554,1.292-1.27128q12.83794.05518,25.6762.00269c.923-.00338,1.26289.23679,1.21828,1.1958-.0732,1.57447-.07681,3.15765.00091,4.73169.0492.99611-.24911,1.30885-1.27055,1.29323-3.82427-.05849-7.65055.0137-11.47472-.04745-1.051-.01681-1.39117.23847-1.37425,1.33961.06386,4.15879.0205,8.31923.01728,12.47905-.06826.06081-.13651.12162-.20408.18354-1.4933.50464-3.03565.18117-4.55419.26067-1.47707.07733-1.64217.18725-1.65669,1.68026-.03208,3.30064.00619,6.60171-.017,9.90245-.0155,2.20347-.2903,2.46429-2.49021,2.48981-1.00451.01166-2.00954-.01538-3.01371.00919-1.47584.0361-1.64515.18161-1.6583,1.6721-.03081,3.492-.00823,6.98435-.011,10.47656-.00168,2.15273.01086,4.30552-.00725,6.45816a2.92326,2.92326,0,0,1-.4069,1.92568c-2.13185.80017-4.32289.49637-6.47759.219-.94482-.12161-.88855-1.1362-.89951-1.88868-.04383-3.00784-.0134-6.01622-.01852-9.02439-.00453-2.65954-.00462-2.61337-2.6803-2.68079-1.35357-.0341-2.77774.381-4.04862-.45117l.01951.01953c-.778-1.07543-.44082-2.31206-.45258-3.47774-.04329-4.29314-.251-4.17836,4.11337-4.173,3.31534.00407,3.044.18277,3.04676-3.007.00273-3.12655.213-2.96061-2.95583-2.96425-5.15983-.00593-10.3197.01149-15.47947-.008-2.21454-.00838-2.49446-.2986-2.52077-2.46395-.01451-1.19423-.031-2.38939.00816-3.583.0541-1.64782.38545-1.99718,2.07225-2.02475,3.15271-.05153,6.30627-.0088,9.45947-.01948,2.20091-.00746,2.2-.0414,2.25132-2.243.03092-1.32618-.23253-2.67666.2517-3.976C90.97679,14.27521,91.0393,14.20754,91.10181,14.13986Z"/><path id="_路径_7" data-name="&lt;路径&gt;" class="cls-1" d="M105.17334,189.30265c.00315,1.91094-.04315,3.82378.03008,5.732.03713.96772-.31173,1.1985-1.22514,1.18814-3.86923-.044-7.73973.01476-11.60866-.04114-1.00619-.01455-1.29575.27512-1.28122,1.28118.05583,3.86892-.00291,7.73941.04111,11.60865.01039.91344-.22033,1.26235-1.188,1.22525-1.90826-.07316-3.8211-.027-5.732-.03011-.06017-.06722-.12034-.13446-.18161-.201a4.15381,4.15381,0,0,1-.25585-1.96175c-.01081-3.23785.00764-6.47582-.0099-9.71363-.00868-1.60067-.1243-1.7197-1.69661-1.72868-3.19018-.01818-6.38052-.00032-9.57077-.00929a5.92177,5.92177,0,0,1-2.122-.19534.94693.94693,0,0,1-.413-.36061,14.22367,14.22367,0,0,1,.169-6.83849,3.20385,3.20385,0,0,1,2.06821-.39875c3.24938-.01511,6.49887.00533,9.74823-.01117,1.6923-.00859,1.80071-.11439,1.80941-1.77928.017-3.24935-.00333-6.49885.011-9.74823a3.36112,3.36112,0,0,1,.37885-2.077,3.07671,3.07671,0,0,1,2.18941-.45086c3.24928-.01816,6.49875.00733,9.748-.014,1.60484-.0105,1.72373-.14279,1.75027-1.70289.01545-.90769-.02918-1.81734.00989-2.72329.04652-1.07838-.38568-1.5814-1.49951-1.55474-1.24108.02973-2.48544.0418-3.72652-.014-1.522-.06845-1.87635-.40036-1.9374-1.87025-.05947-1.432-.0553-2.86756-.00272-4.29973.05458-1.48717.39592-1.812,1.91874-1.881,1.28883-.05839,2.58024-.028,3.87-.02053.96332.00556,1.39251-.41325,1.37141-1.38028-.024-1.09827-.00826-2.19779-.00785-3.29671.00034-.90516-.43715-1.28472-1.31805-1.2959-1.33783-.017-2.6773.04212-4.01309-.03527-1.40843-.08163-1.755-.423-1.81585-1.84564-.06324-1.47951-.03863-2.962-.00576-4.44313a1.95705,1.95705,0,0,1,.44559-1.32887l-.0195.01947c1.16871-.80145,2.49195-.41321,3.7446-.44064,3.279-.07181,2.94682.25533,3.01157-3.01178.023-1.15955-.32719-2.38816.44293-3.45946l-.0195.01947a2.82225,2.82225,0,0,1,2.03468-.46063c3.18581-.01153,6.37169.0028,9.5575-.00764,1.95049-.0064,2.01665-.07919,2.03269-1.98391.008-.95095-.00789-1.902.00937-2.85293a2.29012,2.29012,0,0,1,.45727-1.60679l-.0195.01947c1.2705-.84125,2.69855-.4361,4.05384-.46013,3.24457-.05754,3.31506.05014,3.31768,3.24264.00245,2.9657.00875,5.93146-.00514,8.89711a3.407,3.407,0,0,1-.38015,2.08,2.98741,2.98741,0,0,1-2.17957.47083c-3.19753.01826-6.39521-.00174-9.59279.01115-1.83081.00738-1.91519.08783-1.91682,1.96413q-.013,14.962-.00788,29.92393a7.31905,7.31905,0,0,1-.18535,2.41384,1.022,1.022,0,0,1-.335.426,4.28735,4.28735,0,0,1-2.10729.28647c-3.206.01155-6.41217-.00619-9.61819.00943-1.70683.00831-1.81323.1217-1.8331,1.76542-.01215,1.00472.03668,2.01178-.0108,3.01406-.05367,1.13317.477,1.51,1.54714,1.50347q4.88058-.02976,9.76167-.002a4.573,4.573,0,0,1,2.1163.25348C105.04334,189.18078,105.10834,189.24171,105.17334,189.30265Z"/><path id="_路径_8" data-name="&lt;路径&gt;" class="cls-1" d="M245.319,91.0858c.00321,4.25809-.03409,8.51687.037,12.77383.01865,1.11623-.3432,1.39227-1.38523,1.32824-1.38228-.08494-2.78055.06441-4.15908-.04668-1.19682-.09643-1.454.38022-1.39613,1.46051.08182,1.52662-.01691,3.0622.03542,4.59142.0284.82954-.16461,1.18469-1.09494,1.17349q-5.95572-.07163-11.9127,0c-.93231.01125-1.11931-.34776-1.09343-1.175.05081-1.62511-.02349-3.2542.03032-4.87912.02785-.8406-.18357-1.17619-1.10362-1.16534q-5.9558.07025-11.91273-.00052c-.94113-.0115-1.10358.36481-1.08637,1.18209.0423,2.00846.00861,4.01852.00547,6.028l.01921-.01961c-1.60466.90351-3.34863.31925-5.02442.45732a2.37061,2.37061,0,0,1-1.88748-.45732l.01947.0195c-.793-1.1264-.42159-2.41083-.44934-3.62511-.07646-3.346.33332-3.097-3.08963-3.10732-2.8212-.00853-5.64247.0067-8.46363-.0075a3.3585,3.3585,0,0,1-2.07865-.37738c-.85458-2.12627-.45947-4.31628-.26484-6.48093.06712-.74647.81889-.8552,1.456-.89762,1.28945-.08589,2.582-.03594,3.873-.0414.96225-.00407,1.38446-.43117,1.37659-1.3926-.01057-1.291-.03853-2.58359.01741-3.87366.06508-1.50088.38948-1.81995,1.91374-1.89006,1.29-.05933,2.58255-.02566,3.87363-.02254.96443.00233,1.349-.42712,1.38048-1.38714a21.52379,21.52379,0,0,1,.20385-4.85582.90732.90732,0,0,1,.36785-.39809,4.50545,4.50545,0,0,1,1.97272-.24931q4.65908-.01366,9.31819-.00166c2.608.00734,2.80861.22,2.82385,2.893.00463.81233.03788,1.62687-.00368,2.43652-.061,1.18872.49027,1.62118,1.63338,1.56991,1.09654-.04918,2.19773-.02254,3.2966-.00261a2.92519,2.92519,0,0,1,1.79145.37334c.78467,1.17724.41411,2.50459.44142,3.76525.07131,3.292-.268,3.0262,3.00994,3.037q4.15637.01366,8.31277-.00237c1.72316-.00936,1.83127-.1346,1.86-1.90178.02019-1.24169-.039-2.48446.04328-3.72525.05311-.8008.38263-1.436,1.25909-1.46593a20.29476,20.29476,0,0,1,5.8356.177C245.18739,90.96294,245.25323,91.02437,245.319,91.0858Z"/><path id="_路径_9" data-name="&lt;路径&gt;" class="cls-1" d="M252.2119,63.228c2.00988.00363,4.02043.03841,6.02934-.00423.82082-.01741,1.18055.15231,1.17853,1.08913q-.04262,19.88386-.00032,39.76782c.00193.92139-.32822,1.12917-1.16635,1.10165-1.62533-.05335-3.25651-.07357-4.87971.00579-.99976.04888-1.178-.36022-1.16877-1.24752.03993-3.828-.01781-7.65723.03991-11.48479.01558-1.03254-.2011-1.44518-1.32782-1.38753-1.8613.09524-3.7313.02059-5.59765.01751l.01961.01917c-.87584-2.12447-.48918-4.31192-.25258-6.47228.08067-.7368.86071-.81072,1.491-.85013,1.24151-.07764,2.48622-.04525,3.7286-.03232,1.02225.01062,1.4928-.41513,1.46363-1.45361-.02815-1.003-.041-2.00985.00491-3.0117.0506-1.10422-.422-1.53535-1.51883-1.5275q-4.80521.03438-9.61105.00131a3.55639,3.55639,0,0,1-2.21886-.38629,3.16765,3.16765,0,0,1-.4353-2.19436c-.0177-3.247.009-6.49424-.01448-9.74121-.01146-1.58366-.15781-1.72989-1.71863-1.73893q-4.79885-.02782-9.598-.00067c-1.72226.00912-1.76894.12693-1.85441,1.90967-.0722,1.50634.34322,3.05763-.36108,4.51533a2.02766,2.02766,0,0,1-1.58468.43975c-1.81925-.07075-3.65709.26794-5.45761-.23512-.06924-.06149-.13788-.12408-.2065-.18668-.00317-4.29684.01837-8.59394-.029-12.89029-.01027-.93139.25661-1.21269,1.20055-1.21006q16.328.04551,32.6561.0012c.91918-.00238,1.25054.2332,1.21929,1.192-.06528,2.00292-.01364,4.00964-.01,6.0148-1.23906.77735-2.61424.37838-3.92608.412-2.53419.06486-2.5547.02067-2.53251,2.51834.03562,4.0095-.50161,3.47288,3.50843,3.50846,2.49761.02217,2.45338.00164,2.51819-2.53262C251.83335,65.8422,251.4345,64.467,252.2119,63.228Z"/><path id="_路径_10" data-name="&lt;路径&gt;" class="cls-1" d="M70.15639,245.30274c-4.25441.0033-8.50942-.03188-12.7628.03634-1.09555.01758-1.40226-.31069-1.34091-1.37092.08822-1.52461.05715-3.05915.00893-4.58732-.02423-.768.26545-.98919.99848-.97219,1.72.03989,3.44266-.0254,5.16189.028.829.02571,1.07088-.27311,1.04738-1.07182-.0492-1.67164.03332-3.34768-.03368-5.01807-.0362-.90227.27868-1.15585,1.146-1.12251,1.57515.06056,3.15567-.02233,4.73125.03253.8274.02883,1.05546-.27108,1.04889-1.06984q-.04955-6.02276-.00193-12.04607c.00536-.74916-.23519-1.00549-.98553-.98506-1.62408.04428-3.25139.05011-4.875-.00221-.81273-.02617-1.08485.24373-1.0606,1.05857.05117,1.71935-.01451,3.44205.02817,5.16188.01856.74792-.23076,1.00584-.98355.98732-1.76763-.04349-3.53746-.03585-5.30556-.00328-.67889.01252-.9141-.22562-.91218-.90812q.02705-9.60827-.00086-19.21664c-.00235-.73833.3355-.86635.96241-.8568,1.6727.02554,3.34776-.03711,5.01848.0257.912.03429,1.26309-.2123,1.23019-1.18481-.06782-2.00527-.01486-4.01463-.01159-6.02231.06847-.06051.137-.121.20483-.18268,2.23984-.299,4.48114-.62534,6.68744.20187l-.01951-.01949c.77385,1.07655.42265,2.31127.4466,3.47681.074,3.59979-.35539,3.24659,3.20882,3.2569,4.16979.012,3.98526-.20431,3.9882,3.98664.00222,3.17792-.22561,2.86041,2.97107,2.925,1.16553.02354,2.40026-.3276,3.47682.44618l-.01915-.0196q-.00026,3.45583-.00051,6.91171c-.06107.05669-.12214.11337-.1825.17106-1.54076.49777-3.12752.2156-4.69049.22883-1.16739.00989-1.65362.429-1.58963,1.6053.05957,1.095.045,2.19735.00408,3.294-.039,1.04351.41293,1.42458,1.44194,1.45459,1.61161.047,3.24533-.2682,4.83539.23376.06088.05707.12105.11513.18123.1732.00318,1.866-.06384,3.73567.03573,5.59647.06026,1.12607-.3502,1.39084-1.38721,1.32556-1.3344-.084-2.68815.08175-4.015-.049-1.34085-.13208-1.63048.40168-1.53927,1.61094.10048,1.3321-.055,2.68353.04591,4.01558.09173,1.2108-.20077,1.73458-1.54,1.61113-1.42328-.13118-2.87172.0333-4.30219-.05043-1.03805-.06077-1.4442.202-1.387,1.32667.09468,1.861.02,3.73057.01665,5.59653Z"/><path id="_路径_11" data-name="&lt;路径&gt;" class="cls-1" d="M203.39019,63.229c.00328,1.90895.05542,3.81959-.01078,5.72611-.03315.95524.29339,1.20412,1.21641,1.19513,4.19929-.04088,8.39925-.01308,12.599-.01l-.01961-.01917c.77889,1.07334.44347,2.30866.45454,3.47293.04086,4.287.266,4.19-4.0974,4.17889-2.67214-.0068-5.34452-.02471-8.01638.00949-1.4827.019-1.614.17442-1.64943,1.66915-.02377,1.00166.00361,2.0041-.012,3.00606a2.47679,2.47679,0,0,1-.46422,1.755l.01947-.01951a2.62451,2.62451,0,0,1-1.89984.47054c-5.83.00884-11.66006.02069-17.49-.00493-1.98343-.00871-2.29428-.348-2.32865-2.37386-.02107-1.24184-.02417-2.48427.01858-3.72669a1.55576,1.55576,0,0,1,1.70387-1.686c1.29-.05014,2.58148-.05408,3.86983-.02147,1.17911.02983,1.59569-.49126,1.58675-1.634q-.0387-4.94547-.00231-9.89174c.01641-2.25071.30929-2.53689,2.592-2.54778,3.29723-.01573,6.59461-.00967,9.89189-.00026a3.83611,3.83611,0,0,1,1.826.261C203.24914,63.10078,203.31967,63.16488,203.39019,63.229Z"/><path id="_路径_12" data-name="&lt;路径&gt;" class="cls-1" d="M63.2643,49.157c-2.00986.003-4.02044-.02429-6.02922.02366-.82026.01958-1.18112-.15067-1.17911-1.08817q.04268-19.88347.007-39.76706c-.001-.75907.14353-1.13437,1.01487-1.10439,1.72072.0592,3.44631.05835,5.16711.00018.8626-.02916,1.046.32908,1.02227,1.09818-.0457,1.48208.04855,2.97-.03415,4.44888-.05793,1.03579.19843,1.44637,1.32566,1.3887,1.86125-.09522,3.73122-.0203,5.59751-.01708.06173.07.12347.13994.18634.20925a2.84451,2.84451,0,0,1,.2562,1.39393c.01692,3.58143.0329,7.16308-.00523,10.74424-.01876,1.76123-.37447,2.09251-2.09854,2.1637-.76337.03153-1.52793.01076-2.292.0127-2.48062.00631-2.48452.00608-2.486,2.42485q-.00444,7.37784-.00129,14.75568c-.0001.62075.00707,1.24157-.01225,1.86222a2.15473,2.15473,0,0,1-.45888,1.46972Z"/><path id="_路径_13" data-name="&lt;路径&gt;" class="cls-1" d="M231.24728,231.251l14.09113-.00018c.05874.06556.11749.13111.17732.19607a19.66141,19.66141,0,0,1,.00223,6.769c-.05914.06529-.11933.13-.17954.19477-1.86641.00326-3.73651.07839-5.59788-.017-1.128-.05781-1.39187.35355-1.32428,1.38922.08394,1.28667-.08966,2.59493.049,3.872.15874,1.46218-.42478,1.79471-1.75846,1.68345-1.37827-.115-2.77655.02955-4.16048-.04433-.96984-.05178-1.374.20054-1.31163,1.25192a43.20294,43.20294,0,0,1,.00459,4.44867c-.04014.91245.20932,1.27525,1.185,1.23161,1.67166-.07478,3.34977.00741,5.02382-.03262.73116-.01746,1.022.19984,1.00185.97091-.04633,1.76952-.03611,3.54147-.00407,5.31162.0122.67444-.21516.92218-.904.9184q-6.10167-.03352-12.20354.003c-.74944.00531-1.00548-.2343-.98658-.986.04329-1.72177-.02386-3.44652.02864-5.16778.02512-.8235-.26175-1.07789-1.06777-1.05361-1.6735.05041-3.35155-.03372-5.02381.03423-.90788.03686-1.15324-.2868-1.12043-1.15049.05986-1.577.058-3.15944.00082-4.73668-.03059-.84318.29546-1.06215,1.08286-1.03808,1.57783.0482,3.164-.06892,4.73557.04105,1.19433.08359,1.46982-.3771,1.39645-1.46076-.08387-1.23862.10105-2.50211-.04978-3.72785-.19009-1.54472.4496-1.8804,1.83116-1.75446,1.234.11248,2.49083-.04075,3.72939.04342,1.0362.07043,1.44328-.19693,1.38919-1.32419-.09393-1.95746-.0204-3.92292-.01709-5.885Z"/><path id="_路径_14" data-name="&lt;路径&gt;" class="cls-1" d="M175.266,7.247c-.00316-2.00955.0238-4.01983-.02407-6.02832C175.22237.39939,175.39.02649,176.32949.038q5.95614.07269,11.9135.00036c.92444-.011,1.10132.335,1.09962,1.16833q-.03368,16.36374-.00093,32.72756c.00156.81769-.14559,1.21937-1.08779,1.1795-1.67166-.07074-3.35057-.06979-5.02232-.00021-.93068.03874-1.10605-.34-1.09817-1.17052.03553-3.73176-.04429-7.46551.04713-11.19536.03266-1.33247-.23351-1.912-1.69155-1.75434-1.27694.13808-2.58483-.03522-3.8712.049-1.03676.06785-1.44789-.19853-1.38759-1.325.09963-1.86085.03257-3.73063.03576-5.59664.06093-.05661.12186-.11323.18208-.17084,1.54112-.49759,3.12822-.21557,4.6915-.22848,1.16789-.00964,1.65858-.428,1.58908-1.60525-.059-.99946-.04514-2.0069-.00384-3.008.04308-1.04462-.41221-1.4249-1.44153-1.45471-1.612-.04667-3.246.26833-4.83646-.23331C175.38607,7.36295,175.326,7.305,175.266,7.247Z"/><path id="_路径_15" data-name="&lt;路径&gt;" class="cls-1" d="M182.15794,56.06869c-.003-4.1625.03516-8.32571-.0366-12.487-.01926-1.11634.34334-1.38809,1.38523-1.32873a33.7709,33.7709,0,0,0,4.44637-.00516c1.19759-.09023,1.45718.38239,1.39518,1.4618-.08217,1.43063.0187,2.871-.035,4.30434-.03111.83095.16394,1.21391,1.09633,1.172,1.57571-.07085,3.15927-.07141,4.7349.00012.93915.04263,1.09825-.35521,1.09117-1.1769-.03346-3.87517.01423-7.75117-.03514-11.626-.01232-.96627.2027-1.37064,1.25343-1.31066a40.919,40.919,0,0,0,4.59065.0005c1.04556-.058,1.39187.22023,1.38211,1.33127-.05755,6.55428-.03316,13.10928-.03635,19.664-.07141.06244-.1428.12487-.21355.18846a4.14964,4.14964,0,0,1-1.96534.26148q-8.44461.01158-16.88925-.00069a3.02451,3.02451,0,0,1-2.18333-.46846Z"/><path id="_路径_16" data-name="&lt;路径&gt;" class="cls-1" d="M196.21063,238.43c4.30122-.003,8.60275.02044,12.90341-.02957.95233-.011,1.23667.288,1.19664,1.21722-.06782,1.57422-.05173,3.15439-.00514,4.73014.02251.76089-.25314.99729-.99308.97726-1.576-.0427-3.15629.03979-4.73014-.03173-.95033-.04317-1.2132.28042-1.202,1.212.04671,3.87055-.01264,7.74245.04152,11.6128.01392.99538-.256,1.30482-1.27361,1.28968-3.87027-.05763-7.74218-.04838-11.61282-.00473-.911.01027-1.263-.21553-1.22782-1.18633.07255-2.00471.02722-4.01367.03039-6.02089.0664-.05974.13279-.11946.19853-.18023,1.38851-.4912,2.82637-.20284,4.24117-.24962,1.89576-.06272,1.98308-.10815,1.99053-2.04878.01187-3.09028-.0034-6.18067.00792-9.271a2.81793,2.81793,0,0,1,.45407-2.03549Z"/><path id="_路径_17" data-name="&lt;路径&gt;" class="cls-1" d="M70.15624,14.13986c-.003-1.86578.06392-3.7353-.0352-5.596-.05989-1.12416.35046-1.34551,1.385-1.32918,3.73071.05888,7.46471-.0432,11.19356.05868,1.32518.0362,1.629-.39388,1.54392-1.61274-.10309-1.47588.01326-2.96579-.039-4.447C84.17537.38677,84.36435.02685,85.29718.03811,89.26744.086,93.23873.074,97.20936.045c.76692-.0056,1.127.1592,1.09784,1.0219-.05819,1.72032-.05872,3.44542.00012,5.1657.02969.86817-.33879,1.0387-1.10224,1.0176-1.57756-.04361-3.16037.04808-4.7348-.03451-1.03887-.0545-1.443.205-1.38583,1.32813.09463,1.86082.02045,3.73022.01737,5.596l.01917-.01964a2.62075,2.62075,0,0,1-1.8975.47357q-8.59445.01478-17.18893,0a2.62076,2.62076,0,0,1-1.8975-.47357Z"/><path id="_路径_18" data-name="&lt;路径&gt;" class="cls-1" d="M147.10248,7.24775l14.09071-.00046-.01981-.01978c.00351,4.048.07928,8.09788-.02812,12.14292-.03828,1.44136.42177,1.78471,1.75609,1.67881,1.4671-.11643,2.952.013,4.42634-.04162.8177-.03028,1.06989.25756,1.05065,1.061-.049,2.04669-.02165,4.09521-.02484,6.143l.01979-.01979-14.091.00033c-.05919-.06555-.11837-.13109-.17863-.196a4.16121,4.16121,0,0,1-.25181-1.96187c-.0111-3.23732.01039-6.47477-.01138-9.712-.01066-1.58554-.1542-1.67785-1.70386-1.754-1.6065-.0789-3.23536.25626-4.81993-.248-.06533-.05959-.13-.12023-.19467-.18086q.00013-3.45573.0003-6.91146Z"/><path id="_路径_19" data-name="&lt;路径&gt;" class="cls-1" d="M231.267,231.2313c-4.30092.00308-8.60216-.02012-12.90254.02969-.95067.011-1.238-.28527-1.19776-1.216.06812-1.57408.0515-3.15418.00529-4.72986-.02224-.75864.2495-.99687.99135-.979,1.71939.04159,3.44154-.02358,5.16037.028.81727.02452,1.08-.25279,1.05622-1.06241-.05038-1.7189.015-3.44105-.02812-5.16035-.01881-.75011.23621-.9904.985-.98509q6.0927.04317,12.18589.00363c.66585-.00338.9372.2007.92374.89633-.03423,1.7675-.05367,3.5376.007,5.30368.03055.88842-.37383,1.01783-1.117,1.0001-1.62389-.03874-3.25117.03448-4.87343-.02971-.9151-.03621-1.26216.21777-1.22735,1.18684.06861,1.90894.01476,3.82226.01157,5.73377Z"/><path id="_路径_20" data-name="&lt;路径&gt;" class="cls-1" d="M203.39959,17.75562c.00007,3.10925-.02925,6.219.01874,9.32746.01358.87981-.24466,1.17-1.13326,1.137-1.7197-.06393-3.44384-.04181-5.16524-.00846-.68408.01325-.91023-.23467-.90835-.913q.0264-9.54292-.0031-19.08591c-.00272-.74629.2296-1.00716.98341-.98793,1.72093.04391,3.44482.0497,5.16531-.00228.8171-.02469,1.068.252,1.05815,1.06211C203.37668,11.44117,203.39952,14.59853,203.39959,17.75562Z"/><path id="_路径_21" data-name="&lt;路径&gt;" class="cls-1" d="M252.2119,231.25084c2.00648-.00316,4.0136.02142,6.01917-.02314.80355-.01783,1.20172.12261,1.19007,1.07435-.04915,4.01246-.03628,8.026-.00762,12.03879.00535.74842-.23586.99-.9845.98465-4.01284-.02869-8.02635-.04151-12.03881.00762-.95152.01167-1.0935-.3861-1.07443-1.18993.04529-1.91.0196-3.82157.02261-5.73255l-.01918.01961c1.17229-.79628,2.49591-.40142,3.74945-.42992,2.71182-.06168,2.68571-.02009,2.72577-2.74486a10.97033,10.97033,0,0,1,.23979-3.81547C252.09276,231.3765,252.15232,231.31368,252.2119,231.25084Z"/><path id="_路径_22" data-name="&lt;路径&gt;" class="cls-1" d="M14.15542,161.1582c-4.29817.00317-8.59661-.01893-12.89428.02929-.93789.01052-1.24807-.264-1.2059-1.20632.0704-1.57287.04953-3.152.00659-4.72679-.02019-.74048.21821-1.01233.97737-.99177,1.67029.04524,3.34447-.03316,5.01347.0316.921.03574,1.2536-.22966,1.222-1.19107-.06591-2.00352-.01425-4.0109-.0109-6.0167l-.01979.01981q3.45593-.00039,6.91188-.00075l-.01963-.01918a2.0783,2.0783,0,0,1,.45488,1.46626c.02107,3.763.02852,7.526-.00474,11.289a2.3054,2.3054,0,0,1-.24154,1.10658C14.28242,161.0186,14.21892,161.0884,14.15542,161.1582Z"/><path id="_路径_23" data-name="&lt;路径&gt;" class="cls-1" d="M133.31777,21.03226c1.90137-.00324,3.804-.04938,5.70352.00886.91195.028,1.26384-.222,1.21845-1.18388-.07388-1.56516.02009-3.13777-.03539-4.70445-.02945-.83089.28382-1.05585,1.07123-1.03676,1.94783.04721,3.89745.02042,5.84637.02337l-.0196-.0192a1.90705,1.90705,0,0,1,.448,1.32247c.02717,3.90272.04719,7.80549-.01131,11.7081a2.24856,2.24856,0,0,1-.17539.83487.93581.93581,0,0,1-.37605.417,3.36726,3.36726,0,0,1-1.541.25235c-3.44021.01394-6.88056.02671-10.32058-.00349-1.91691-.01683-2.26515-.34431-2.23876-2.28352.02323-1.70782-.27612-3.43718.24009-5.12369C133.19,21.1732,133.2539,21.10273,133.31777,21.03226Z"/><path id="_路径_24" data-name="&lt;路径&gt;" class="cls-1" d="M154.30128,42.26379l-7.19905.00074.01958.01922a2.43437,2.43437,0,0,1-.47-1.75235q-.02006-5.2934,0-10.58684a2.43427,2.43427,0,0,1,.47-1.75235l-.01947.01953a1.59621,1.59621,0,0,1,1.17652-.4341c2.008.13642,4.07405-.51454,6.02257.4341l-.01916-.01961q-.00039,7.04571-.00077,14.09146Z"/><path id="_路径_25" data-name="&lt;路径&gt;" class="cls-1" d="M105.17366,252.19514c.003,2.00657-.02159,4.01376.02273,6.01941.01775.803-.12144,1.2023-1.07385,1.19061-4.01261-.04918-8.02627-.03634-12.03928-.00764-.74856.00535-1.00428-.23484-.98466-.98485.04372-1.671.062-3.346-.006-5.01539-.03815-.93568.25658-1.22246,1.20159-1.2117,4.29931.04908,8.59944.02631,12.89928.02938Z"/><path id="_路径_26" data-name="&lt;路径&gt;" class="cls-1" d="M35.10034,196.2152c4.2997-.00344,8.5997.01895,12.89888-.03043.9446-.01083,1.24.2753,1.20184,1.21135-.06812,1.66936-.04965,3.34426-.00606,5.01525.01954.74932-.23494.9907-.98414.98534-4.01289-.02876-8.02644-.04156-12.03893.00757-.95125.01166-1.09267-.38555-1.07477-1.18966.04464-2.00561.01988-4.01272.023-6.01924Z"/><path id="_路径_27" data-name="&lt;路径&gt;" class="cls-1" d="M7.10891,196.20514c1.96082-.00019,3.9224.03188,5.88208-.01541.82611-.01993,1.21336.15839,1.17417,1.09356-.07,1.67094-.05009,3.34771-.00615,5.02042.02021.76926-.16341,1.10532-1.02226,1.09692-4.0169-.03916-8.03446-.02894-12.05161-.00643-.69983.00393-1.04669-.14769-1.02491-.945q.07245-2.6523,0-5.30773c-.02166-.795.3199-.95875,1.02295-.94746C3.0913,196.22623,5.10027,196.20535,7.10891,196.20514Z"/><path id="_路径_28" data-name="&lt;路径&gt;" class="cls-1" d="M70.13661,245.32257c2.00657-.00307,4.01375.02152,6.01941-.0228.80295-.01774,1.20223.12147,1.19056,1.07389-.0492,4.0126-.03633,8.02625-.00763,12.03925.00536.74858-.23484,1.0043-.98484.98471-1.671-.0437-3.346-.062-5.01536.006-.93568.03814-1.22246-.25656-1.21167-1.2016.04909-4.29931.02627-8.59942.02932-12.89926Z"/><path id="_路径_29" data-name="&lt;路径&gt;" class="cls-1" d="M7.19855,182.133c1.96082.00005,3.92233.02992,5.88213-.0146.78746-.0179,1.10826.19735,1.08113,1.03845-.05547,1.71991-.0432,3.44345-.00429,5.16428.01643.72644-.1939,1.01033-.96664,1.00439q-6.09734-.04691-12.19516.0003c-.80985.00654-.94393-.35253-.93117-1.03794C.0957,186.6146.115,184.939.05765,183.267c-.02941-.857.20347-1.18351,1.11558-1.15413C3.1798,182.17755,5.18989,182.133,7.19855,182.133Z"/><path id="_路径_30" data-name="&lt;路径&gt;" class="cls-1" d="M168.37315,252.19544l-7.199.00047.01963.01918a2.44106,2.44106,0,0,1-.47128-1.7577c-.01248-3.44409-.03239-6.88836.0075-10.33215.02053-1.77087.37218-2.116,2.09637-2.15937,1.43411-.03606,2.86972-.03756,4.30439.01192.92565.03194,1.61884.39265,1.63809,1.41212.07669,4.06254.17392,8.126-.05153,12.18754a1.27277,1.27277,0,0,1-.15071.40117C168.50289,252.05128,168.43806,252.1234,168.37315,252.19544Z"/><path id="_路径_31" data-name="&lt;路径&gt;" class="cls-1" d="M182.13859,252.19589c.0031,2.04769-.02436,4.0961.02456,6.14269.01918.80311-.23427,1.06891-1.04995,1.06153q-5.857-.053-11.71461,0c-.81619.0074-1.06863-.25935-1.04954-1.062.04869-2.04661.02112-4.095.02408-6.14273l-.01918.01963a2.07843,2.07843,0,0,1,1.46617-.45467c3.66734-.02116,7.33476-.02857,11.00208.00477a2.30662,2.30662,0,0,1,1.10649.2414C181.99908,252.069,182.06884,252.13244,182.13859,252.19589Z"/><path id="_路径_32" data-name="&lt;路径&gt;" class="cls-1" d="M252.23885,210.27585c-1.913.00025-3.82776-.04962-5.73812.0211-.96746.03583-1.229-.30778-1.18933-1.22619.06592-1.52754.04673-3.06074.0057-4.59-.02011-.74921.12382-1.12274,1.00481-1.11375q6.02521.06158,12.05133.00128c.83431-.00766,1.06569.28529,1.04183,1.07778q-.07336,2.43684-.0006,4.8772c.023.777-.28324.97727-1.00651.96479C256.35214,210.25256,254.29529,210.27559,252.23885,210.27585Z"/><path id="_路径_33" data-name="&lt;路径&gt;" class="cls-1" d="M245.33842,231.25082c-.003-4.29028.01579-8.58076-.02684-12.87065-.00894-.899.19723-1.281,1.17643-1.23122a45.15355,45.15355,0,0,0,4.57428,0c.97915-.04973,1.18535.33216,1.17643,1.23121-.04263,4.2899-.02377,8.58039-.0268,12.87069l.01919-.01961c-1.60468.90346-3.34863.31928-5.02442.45728a2.37045,2.37045,0,0,1-1.88748-.4573Z"/><path id="_路径_34" data-name="&lt;路径&gt;" class="cls-1" d="M238.446,133.32112c-.003-4.29514.0179-8.59053-.0281-12.88521-.0099-.92247.23835-1.25214,1.19443-1.21639,1.90638.07127,3.8171.02649,5.726.02963.062.07067.12391.14132.187.21134a3.47716,3.47716,0,0,1,.2573,1.67681q.01475,5.14442.00014,10.28889a2.61958,2.61958,0,0,1-.46361,1.89481l.01947-.01947c-1.01843.76134-2.2025.45931-3.31318.4472-1.20518-.01313-2.48317.34994-3.59872-.4472Z"/><path id="_路径_35" data-name="&lt;路径&gt;" class="cls-1" d="M168.37329,7.22736l-7.19989.00015.01981.01978c-.00287-2.04445.0231-4.08956-.02312-6.133-.01781-.78725.20566-1.09806,1.03676-1.07177q2.56494.08114,5.134,0c.83095-.02627,1.05482.28425,1.03687,1.07165-.04654,2.04346-.021,4.08857-.02419,6.133Z"/><path id="_路径_36" data-name="&lt;路径&gt;" class="cls-1" d="M28.228,189.30141c-2.04458.00338-4.08981-.022-6.1334.02466-.78745.018-1.098-.20591-1.07172-1.03692q.08112-2.56512,0-5.1343c-.02636-.83181.28567-1.05414,1.07234-1.03629,2.0436.0464,4.08884.02084,6.13343.024l-.0198-.01974q-.00031,3.59918-.00061,7.1984Z"/><path id="_路径_37" data-name="&lt;路径&gt;" class="cls-1" d="M112.37274,189.30265q-3.59969,0-7.19939,0l.01964.01918a1.59618,1.59618,0,0,1-.43411-1.17652c.13643-2.008-.51453-4.07405.43411-6.02257l-.01951.01947c.82548-.6741,1.81314-.44916,2.74626-.47141,1.093-.02606,2.18883-.0474,3.28113.02706.634.04324,1.381.15423,1.44382.89931.18938,2.24685.61054,4.51992-.29162,6.72463Z"/><path id="_路径_38" data-name="&lt;路径&gt;" class="cls-1" d="M252.22154,255.88674c0-3.68121.00026-3.70515,3.49844-3.66783,1.17794.01255,2.69868-.52967,3.445.24268.73843.76415.21332,2.27631.22431,3.45777.03222,3.46522.01122,3.48938-3.487,3.452-1.17794-.01255-2.69461.52865-3.44642-.24215C251.70812,258.36251,252.33787,256.8505,252.22154,255.88674Z"/><path id="_路径_39" data-name="&lt;路径&gt;" class="cls-1" d="M28.20779,196.19491c.00316,2.05241-.02666,4.10567.02561,6.15684.02105.826-.27071,1.06961-1.06933,1.04681-1.71693-.049-3.437-.045-5.15421-.00179-.74919.01883-1.00294-.2349-.9841-.98413.04319-1.71723.04726-3.43727-.00178-5.15422-.02281-.79861.22074-1.09042,1.04678-1.06937,2.05116.05227,4.10441.02247,6.15682.02564Z"/><path id="_路径_40" data-name="&lt;路径&gt;" class="cls-1" d="M203.39023,56.06826c1.949-.003,3.89879.0239,5.84676-.02342.788-.01914,1.0972.207,1.071,1.0372q-.08093,2.56451,0,5.1331c.0262.83012-.283,1.05635-1.071,1.03723-1.948-.04733-3.89772-.02044-5.84678-.02338l.01961.01917a1.59632,1.59632,0,0,1-.43407-1.17654c.13642-2.008-.51447-4.074.43407-6.02258Z"/><path id="_路径_41" data-name="&lt;路径&gt;" class="cls-1" d="M189.338,252.19589l-7.19942,0,.01963.01918a2.69074,2.69074,0,0,1-.445-2.04513c.061-1.56689-.22363-3.15071.21371-4.70157a.90155.90155,0,0,1,.39935-.39041,25.8872,25.8872,0,0,1,6.10951-.15595c.5503.01243,1.13534.24818,1.17764.84623.15244,2.15554.6076,4.3365-.295,6.44682Z"/><path id="_路径_42" data-name="&lt;路径&gt;" class="cls-1" d="M147.12227,7.228c-1.95691.003-3.91477-.02813-5.87032.025-.8263.02245-1.06947-.271-1.04669-1.0694.049-1.7169.04493-3.43691.00175-5.15412-.01881-.74919.23481-1.00444.98414-.984,1.62163.04418,3.24638.04845,4.86768-.00178.79962-.02477,1.08958.22228,1.06867,1.04739-.052,2.05114-.02207,4.10435-.025,6.15674Z"/><path id="_路径_43" data-name="&lt;路径&gt;" class="cls-1" d="M84.20892,217.17836c1.949-.003,3.89879.02384,5.84675-.02345.788-.01912,1.09721.20706,1.071,1.03726q-.081,2.56451,0,5.1331c.0262.83014-.283,1.05636-1.071,1.03724-1.948-.04727-3.89771-.02042-5.84676-.0234l.01964.01918a1.59614,1.59614,0,0,1-.43411-1.17652c.13642-2.008-.51453-4.07405.43411-6.02257Z"/><path id="_路径_44" data-name="&lt;路径&gt;" class="cls-1" d="M126.15757,21.03181c-.0031-1.949.02364-3.8987-.02386-5.84661-.01922-.78836.20771-1.09683,1.03746-1.07067q2.56446.08084,5.133,0c.83029-.02622,1.05619.28327,1.03707,1.07109-.04727,1.94791-.02046,3.89763-.02344,5.84664l.01919-.01963a1.95194,1.95194,0,0,1-1.4616.44052c-1.83776-.07771-3.6941.26575-5.5138-.236C126.29318,21.1561,126.22537,21.094,126.15757,21.03181Z"/><path id="_路径_45" data-name="&lt;路径&gt;" class="cls-1" d="M119.24535,21.0318q3.45609,0,6.91219,0l-.01963-.01919c.67449.82513.45551,1.81292.47322,2.7463.02165,1.14063.04757,2.28337-.03771,3.42408a1.38878,1.38878,0,0,1-1.44693,1.44287,44.90473,44.90473,0,0,1-4.84985-.00359c-.59354-.03366-1.25018-.21582-1.30509-.88438-.18465-2.24834-.6114-4.52046.29345-6.72529Z"/><path id="_路径_46" data-name="&lt;路径&gt;" class="cls-1" d="M63.26431,196.19506c-2.0492.00294-4.09916-.02542-6.14721.02435-.80989.01968-1.07836-.24427-1.05717-1.05592.051-1.95264.02139-3.90736.02432-5.86126l-.0192.0196a1.61852,1.61852,0,0,1,1.17519-.4336c2.01316.1078,4.06848-.44557,6.03784.37456a11.34254,11.34254,0,0,1-.03342,6.95146Z"/><path id="_路径_47" data-name="&lt;路径&gt;" class="cls-1" d="M28.22785,175.23063c-2.04913.00293-4.099-.02542-6.147.02433-.80959.01967-1.07861-.24375-1.05735-1.05566.05113-1.95255.02168-3.90724.02474-5.861.06864-.06065.13728-.1213.20532-.183,2.33545-.31481,4.67119-.6181,6.97419.20219l-.01952-.01947c.90343,1.60468.31933,3.34861.45733,5.02442a2.37066,2.37066,0,0,1-.45734,1.88748Z"/><path id="_路径_48" data-name="&lt;路径&gt;" class="cls-1" d="M7.26375,147.08645c-2.05238.003-4.10559-.02692-6.15673.025-.82511.02089-1.07217-.269-1.0474-1.06867.05023-1.6213.046-3.24605.00178-4.86768-.02042-.74934.23482-1.003.984-.98414,1.71721.04317,3.43722.04726,5.15412-.00177.79845-.02277,1.09185.22038,1.0694,1.0467-.05312,1.95555-.022,3.91341-.025,5.87032Z"/><path id="_路径_49" data-name="&lt;路径&gt;" class="cls-1" d="M14.15616,168.35729q-.00038-3.59952-.00076-7.19907l-.0192.0196c1.2624-.83938,2.68276-.43733,4.0303-.4604,3.2891-.0563,3.38456.03374,3.32078,3.32424-.02794,1.44151.41591,2.9568-.45866,4.31577l.0196-.01916q-3.4559-.00039-6.91184-.00077Z"/><path id="_路径_50" data-name="&lt;路径&gt;" class="cls-1" d="M21.03809,59.67581c0,3.56233,0,3.56233-3.54487,3.56233-3.347,0-3.36768-.00019-3.33615-3.32991.01163-1.2287-.52959-2.81257.23625-3.59153.76958-.78277,2.35787-.23172,3.58487-.24593,3.05963-.03542,3.0599-.01167,3.0599,3.03139Z"/><path id="_路径_51" data-name="&lt;路径&gt;" class="cls-1" d="M168.3535,28.21158c1.95681-.003,3.91453.02806,5.87-.025.82572-.0224,1.0717.26988,1.047,1.069-.05013,1.6212-.046,3.24586-.00179,4.86739.0204.74929-.23474,1.00442-.984.984-1.62153-.04417-3.24619-.04836-4.86738.00177-.799.02471-1.09137-.22122-1.069-1.04694.053-1.95545.022-3.91316.025-5.87Z"/><path id="_路径_52" data-name="&lt;路径&gt;" class="cls-1" d="M154.28149,42.28359c1.95681-.003,3.91453.02806,5.87-.025.82572-.02239,1.07168.26988,1.047,1.069-.05011,1.6212-.04592,3.24586-.00177,4.86739.02039.74929-.23472,1.00442-.984.984-1.62153-.04417-3.24619-.04836-4.86738.00177-.799.02471-1.09137-.22122-1.069-1.04695.053-1.95545.022-3.91316.025-5.87Z"/><path id="_路径_53" data-name="&lt;路径&gt;" class="cls-1" d="M14.13637,168.3375c.003,1.95681-.02807,3.91453.025,5.87.02239.82572-.2699,1.07168-1.069,1.047-1.62119-.05015-3.24586-.04591-4.86739-.00175-.74927.02039-1.00441-.23476-.984-.984.04417-1.62153.04837-3.24621-.00177-4.8674-.02471-.799.22125-1.09135,1.04695-1.069,1.95545.053,3.91317.022,5.87.025Z"/><path id="_路径_54" data-name="&lt;路径&gt;" class="cls-1" d="M28.22758,196.2147l.00045-6.91329-.01978.01982c1.9538-.00284,3.90845.0268,5.861-.024.81141-.02112,1.07709.24685,1.056,1.057-.05092,1.95255-.02174,3.9072-.02487,5.861l.01978-.01982-6.91232-.00047Z"/><path id="_路径_55" data-name="&lt;路径&gt;" class="cls-1" d="M245.3384,119.24915c-.003-1.94884.02377-3.89841-.0234-5.84618-.01905-.78706.20533-1.09988,1.03647-1.07148,1.61427.05517,3.23306.05516,4.84733,0,.83107-.0284,1.05557.2843,1.0365,1.07142-.04717,1.94777-.02042,3.89734-.0234,5.8462l.01921-.01961c-1.01841.76139-2.2025.45929-3.31318.44721-1.20519-.01311-2.48318.35-3.59872-.44722Z"/><path id="_路径_56" data-name="&lt;路径&gt;" class="cls-1" d="M168.3535,7.24715,175.266,7.247l-.0196-.0192c.90336,1.6047.31933,3.34864.45728,5.02445a2.3708,2.3708,0,0,1-.4573,1.8875l.0196-.01915c-1.95372.00289-3.90832-.02662-5.86082.02424-.811.02113-1.07741-.24606-1.05629-1.05662.05085-1.9525.02147-3.90709.02445-5.86084Z"/><path class="cls-1" d="M48.358,212.72827a3.93515,3.93515,0,0,0-3.34167-2.45044q-10.19247-.00366-20.38495-.00122-10.33612,0-20.67212.00708a1.92394,1.92394,0,0,0-1.484.30078,6.42418,6.42418,0,0,0-2.386,4.92529Q.04556,234.38721.0871,253.26489a5.79723,5.79723,0,0,0,5.87476,5.85205c12.537-.04858,25.0744-.019,37.61163-.01978a5.70979,5.70979,0,0,0,5.32092-5.26733q.00183-18.5907-.00146-37.18115A8.8339,8.8339,0,0,0,48.358,212.72827Zm-6.687,34.84521c-.03363,2.56274-.95276,4.14063-4.19275,4.09717-8.70563-.11621-17.41388-.03906-26.121-.04A3.47829,3.47829,0,0,1,7.54126,247.804q-.00192-13.49121.00067-26.98267a3.23225,3.23225,0,0,1,3.35107-3.35986c4.68848-.01636,9.377-.00537,14.06549-.00537,4.30573,0,8.61871.14966,12.91443-.05786a3.53306,3.53306,0,0,1,3.82526,3.76758C41.73883,229.96826,41.78662,238.77222,41.671,247.57349Z"/><path class="cls-1" d="M259.09021,9.6377a16.3937,16.3937,0,0,0-.467-5.36963c-.88855-2.67432-2.41681-4.2085-5.24036-4.209-12.67487-.0022-25.35046.07227-38.024-.05884a5.20584,5.20584,0,0,0-5.12329,5.09521c.1441,9.89844.05707,19.80054.05713,29.70117,0,3.20459-.02374,6.40967.00739,9.61377a4.24364,4.24364,0,0,0,4.46,4.46851h19.658q10.25949,0,20.51886-.00806c.40942-.00049.90973.2002,1.22217-.15771,1.56372-1.791,2.96039-3.66406,2.95831-6.21655C259.10846,31.5437,259.1369,20.59058,259.09021,9.6377Zm-7.7384,28.80859a3.22876,3.22876,0,0,1-3.15729,2.96362q-7.03354.011-14.06708.00244c-4.35406,0-8.71515-.14795-13.05963.05688a3.51207,3.51207,0,0,1-3.86127-3.72681c-.04987-8.85132-.10034-17.70459.02869-26.5542.03723-2.54785,1.02063-4.02734,4.15125-3.98828,8.75464.1084,17.5116.0376,26.26758.0376a3.39921,3.39921,0,0,1,3.69232,3.50537Q251.39279,24.59448,251.35181,38.44629Z"/><path class="cls-1" d="M48.91882,4.80347c.006-1.73657-2.43811-4.78467-4.6217-4.7749C30.8985.08814,17.49951.05884,4.10065.05811a4.18631,4.18631,0,0,0-4.099,4.126c.20209,6.64551.07257,13.301.07257,19.95264q0,10.26453.0083,20.52905c.00092.501-.15277,1.02612.27747,1.49a7.6888,7.6888,0,0,0,5.71625,2.70581c11.34106.03809,22.68231.01978,34.0235.01489a11.89368,11.89368,0,0,0,5.047-.65479c1.84845-.81812,3.74634-2.81226,3.74683-4.94434C48.89636,30.45264,48.87469,17.62793,48.91882,4.80347Zm-7.491,32.87329a3.38077,3.38077,0,0,1-3.46533,3.44458q-13.781.01282-27.562,0a3.20033,3.20033,0,0,1-3.14532-3.26807q-.00723-6.89062-.00159-13.781c0-4.40234.14868-8.81152-.05682-13.2041A3.49906,3.49906,0,0,1,10.88916,6.9751c8.852-.0564,17.70563-.09985,26.55634.02271,2.574.03564,4.05737,1.04028,4.02039,4.12207C41.35962,19.97095,41.42914,28.82422,41.42786,37.67676Z"/><path id="_路径_57" data-name="&lt;路径&gt;" class="cls-1" d="M182.15825,189.32185c-1.911-.00321-3.82266.02226-5.73265-.02322-.80381-.01912-1.20164.12272-1.19,1.07438.04915,4.01255.03628,8.02616.00764,12.03909-.00535.74816.234,1.00625.98453.98493,1.5753-.04475,3.155.03695,4.72856-.03166.93508-.04079,1.22228.25526,1.21243,1.20086-.0438,4.20373-.01383,8.40822-.01053,12.61244l-6.91169-.01972c-.05662-.06095-.11322-.12187-.1708-.1821-.49745-1.54114-.21537-3.12821-.22832-4.69149-.00968-1.16793-.42816-1.65851-1.60533-1.589a30.07335,30.07335,0,0,1-3.008.00386c-1.04463-.04308-1.42491.41218-1.45474,1.44148-.04673,1.612.26827,3.24595-.23323,4.83641-.057.06075-.115.12081-.17292.18084-1.99663.00328-3.99451-.034-5.98932.028-.91046.02831-1.26533-.21881-1.21969-1.18235.07414-1.56528-.01995-3.13808.03546-4.70491.02936-.83018-.2825-1.05485-1.07059-1.03783-1.9481.04209-3.89786.00808-5.84694.00466-.0589-.066-.11781-.132-.17781-.19737a19.42306,19.42306,0,0,1-.02039-6.55345.87346.87346,0,0,1,.38071-.36494,5.535,5.535,0,0,1,2.12133-.21179c3.24579-.01064,6.49191-.02741,9.73727.00815,1.152.0126,1.6804-.39763,1.60056-1.585-.0543-.80751-.00733-1.62216-.00968-2.43361-.00647-2.2323-.03585-2.26191-2.20543-2.27463-1.00234-.00587-2.00566.0292-3.00684-.01727-1.57413-.073-1.94629-.39845-1.9386-2.0004.00822-1.70586-.27807-3.43236.22938-5.11816.05995-.06578.12093-.13088.18189-.196,2.00725-.00338,4.01619-.0562,6.02106.0112.9703.03262,1.19131-.31721,1.18612-1.22789-.03486-6.11729.01048-12.23513-.04391-18.35214-.01-1.12451.28277-1.509,1.42633-1.42942a36.36117,36.36117,0,0,0,4.29878.00554c.935-.04591,1.22616.25327,1.21347,1.20037-.04989,3.72717.01912,7.45609-.04468,11.18283-.01879,1.09871.23868,1.53241,1.41082,1.44516,1.42588-.10613,2.86795.02344,4.29868-.04263.91442-.04224,1.26106.2156,1.22844,1.18567C182.10225,185.30565,182.155,187.31457,182.15825,189.32185Z"/><path id="_路径_58" data-name="&lt;路径&gt;" class="cls-1" d="M119.24549,147.08633c4.21094.00326,8.42281.05656,12.63225-.02121,1.2379-.02287,1.49907.37439,1.47655,1.53346-.07251,3.73106.006,7.46487-.04878,11.19652-.01488,1.01336.16636,1.48272,1.31469,1.39818a29.52432,29.52432,0,0,1,4.303-.00021c1.14239.08335,1.37585-.37262,1.31646-1.39524-.08033-1.383.043-2.77808-.04065-4.16071-.06273-1.03662.19923-1.44566,1.32561-1.38814,1.86116.09507,3.731.02021,5.59721.01695-.00321,1.909.04149,3.8198-.02976,5.72627-.03571.95563.293,1.20474,1.21606,1.1948,4.29484-.04626,8.5904-.02545,12.88571-.02866-.00331,2.0099-.03762,4.02047.00512,6.02939.01744.8201-.151,1.18181-1.08858,1.1792q-16.43829-.04567-32.87671-.00037c-.92184.00251-1.11-.3305-1.10169-1.1664.03665-3.68452.02773-7.36966.0111-11.05447-.00968-2.14385.27711-1.84358-1.93789-1.86771-1.19625-.013-2.39733-.067-3.58776.01723-1.0363.07332-1.44317-.19707-1.38913-1.32405C119.32218,151.01378,119.24876,149.04838,119.24549,147.08633Z"/><path id="_路径_59" data-name="&lt;路径&gt;" class="cls-1" d="M147.12162,210.26653c-4.15819.00333-8.317-.03225-12.47414.03625-1.0925.018-1.40472-.30571-1.34279-1.36872.0888-1.52431.05677-3.05867.00925-4.58665-.02375-.76334.25705-.99459.99477-.97564,1.624.04173,3.251-.0258,4.87432.02787.82355.0272,1.0747-.26328,1.05159-1.06714-.04945-1.71921.01623-3.44163-.02826-5.16112-.01961-.758.24838-.99976.99117-.97939,1.57608.04326,3.1565-.03925,4.73054.03183.94812.0428,1.215-.27663,1.20367-1.21047-.047-3.87088.01243-7.74313-.04168-11.61382-.01392-.99485.25486-1.3054,1.27322-1.29021,3.8706.05774,7.74283.04845,11.6138.00475.9113-.01027,1.26286.21588,1.22775,1.18658-.0725,2.00487-.02713,4.014-.03027,6.02141l.01926-.01968c-1.16788.80669-2.49291.41987-3.74687.44759-2.69724.05961-2.69836.01926-2.69948,2.765-.00121,2.94809.00652,5.89621-.005,8.84426a2.8229,2.8229,0,0,1-.46057,2.03469l.01947-.01947c-1.0745.76621-2.30348.40992-3.46342.433-3.6478.07273-3.24442-.34045-3.29457,3.311a7.38358,7.38358,0,0,1-.24419,2.959C147.24072,210.1409,147.18116,210.20372,147.12162,210.26653Z"/><path id="_路径_60" data-name="&lt;路径&gt;" class="cls-1" d="M161.17434,161.17783c.0033-4.29848.03215-8.59722-.01017-12.89526-.00924-.93843.268-1.21564,1.2064-1.2064,4.298.0423,8.59678.01348,12.89526.01018-.0033,4.29848-.03213,8.5972.01017,12.89524.00925.93845-.268,1.21561-1.20642,1.20639C169.77154,161.14568,165.47283,161.17454,161.17434,161.17783Z"/><path id="_路径_61" data-name="&lt;路径&gt;" class="cls-1" d="M119.24564,175.25033c4.29344-.00337,8.58712.01648,12.88012-.02869.91422-.00959,1.22823.227,1.222,1.1874q-.0605,9.30214-.00147,18.60483c.00552.92886-.25141,1.24306-1.19925,1.21043-2.00133-.06883-4.00649-.02657-6.01007-.0299l.01986.01982c-.003-4.19062-.06693-8.3826.0265-12.57108.02948-1.32137-.39844-1.62095-1.60807-1.53448-1.42137.10161-2.8571-.0162-4.2836.03877-.81682.0315-1.072-.25572-1.05129-1.06011.05017-1.95123.02185-3.90447.02514-5.85689Z"/><path id="_路径_62" data-name="&lt;路径&gt;" class="cls-1" d="M140.22938,238.43065c-.00319-2.00694.04175-4.01561-.03036-6.02006-.03481-.96784.30992-1.2267,1.22619-1.1874,1.5263.06547,3.05981-.03316,4.58572.0367.90826.04156,1.15021-.28878,1.11789-1.14954-.05916-1.57469.02277-3.15455-.03234-4.72954-.029-.82895.273-1.0697,1.07126-1.047q2.57832.07341,5.16.00124c.76164-.02005.98123.25619.97622.99359-.02729,4.01376-.04168,8.02818.00834,12.04149.012.96585-.41232,1.06825-1.201,1.06281-4.30045-.02961-8.60116-.01895-12.90178-.02214Z"/><path id="_路径_63" data-name="&lt;路径&gt;" class="cls-1" d="M175.24656,217.159c.00316,4.25884-.01783,8.518.02822,12.77631.01018.94181-.164,1.34794-1.23391,1.33049-3.875-.06326-7.75193-.04719-11.62758-.00808-.88316.0089-1.30355-.16119-1.25024-1.16553a43.57682,43.57682,0,0,0,.00014-4.59163c-.05257-.99946.35737-1.20311,1.24735-1.1684,1.52894.05965,3.06523-.04484,4.592.03772,1.03668.05606,1.44191-.20059,1.388-1.32638-.09376-1.95728-.02058-3.92254-.01739-5.88448l-.01925.01968c1.01843-.76134,2.2025-.45929,3.31318-.4472,1.20518.01313,2.48317-.34994,3.59872.4472Z"/><path id="_路径_64" data-name="&lt;路径&gt;" class="cls-1" d="M119.2655,175.23043c-1.91105.00316-3.82278-.0223-5.73283.0231-.80353.01909-1.20194-.12224-1.19029-1.07419.04916-4.01269.0363-8.02641.00763-12.03948-.00535-.74856.23467-1.00591.98487-.98462,1.57537.04473,3.1551.06324,4.72872-.00592.936-.04114,1.22244.25658,1.21164,1.2015-.04915,4.29938-.02646,8.5996-.0296,12.8995Z"/><path id="_路径_65" data-name="&lt;路径&gt;" class="cls-1" d="M154.28214,210.26655c.00308,1.94917-.02361,3.899.0238,5.84713.01918.78809-.20717,1.09718-1.03733,1.071q-2.56467-.081-5.13345,0c-.83011.02619-1.05654-.28284-1.03734-1.071.04741-1.9481.02068-3.898.02377-5.84715l-.01926.01968a1.59625,1.59625,0,0,1,1.17654-.43407c2.008.13641,4.074-.51449,6.02255.43407Z"/><path id="_路径_66" data-name="&lt;路径&gt;" class="cls-1" d="M189.33785,189.30235c-.00333,1.94911-.03723,3.89891.00487,5.847.017.788-.20771,1.097-1.03775,1.07087q-2.56462-.08093-5.13334,0c-.83.02617-1.05475-.28289-1.03773-1.07087.0421-1.94813.0082-3.89793.00486-5.847Z"/><path id="_路径_67" data-name="&lt;路径&gt;" class="cls-1" d="M168.354,133.30151h6.91187q0,3.456,0,6.9119c-1.95376-.00338-3.90827-.03989-5.86089.00573-.81056.01895-1.07571-.24619-1.05676-1.05675C168.39383,137.20978,168.35732,135.25527,168.354,133.30151Z"/><path id="_路径_68" data-name="&lt;路径&gt;" class="cls-1" d="M175.24635,147.10582q0-3.456,0-6.9119c1.94894.00335,3.89851.03712,5.84648-.00484.78711-.01695,1.09967.20608,1.0713,1.037-.05514,1.61434-.05513,3.23324,0,4.84758.02838.83095-.28422,1.05394-1.07131,1.037C179.14486,147.06866,177.19529,147.10246,175.24635,147.10582Z"/><path id="_路径_69" data-name="&lt;路径&gt;" class="cls-1" d="M182.15859,245.30324c-1.95691.00308-3.91476-.02782-5.8703.02536-.826.02247-1.07147-.27034-1.04679-1.06919.0501-1.6213.04591-3.24605.00174-4.86768-.0204-.74934.23472-1.00444.98406-.984,1.62163.04417,3.24638.04836,4.86768-.00175.79885-.02468,1.09165.22077,1.06919,1.04679-.05316,1.95555-.02228,3.91339-.02536,5.8703Z"/><path id="_路径_70" data-name="&lt;路径&gt;" class="cls-1" d="M189.33785,105.15748q0,3.59957,0,7.19911c-2.04457-.00335-4.08976-.03616-6.13344.00486-.78727.0158-1.09794-.2063-1.07166-1.03729q.08111-2.56509,0-5.13427c-.02627-.831.28443-1.05307,1.07168-1.03728C185.24809,105.19363,187.29328,105.16082,189.33785,105.15748Z"/><path id="_路径_71" data-name="&lt;路径&gt;" class="cls-1" d="M175.2561,94.64158c0-3.54635,0-3.54635,3.56175-3.54635,3.33066,0,3.353.00023,3.319,3.347-.01246,1.227.52531,2.78214-.24473,3.5918-.72064.75771-2.26755.21576-3.44813.22876-3.18759.03509-3.18784.012-3.18784-3.19095Z"/><path id="_路径_72" data-name="&lt;路径&gt;" class="cls-1" d="M77.33663,105.15762c-4.29991.00316-8.60013-.01953-12.89952.02964-.945.01081-1.24259-.27569-1.20146-1.21166.06917-1.57361.05061-3.15335.00589-4.72873-.0213-.75015.236-.99024.98461-.98489,4.01309.02869,8.02682.04152,12.03951-.00763.952-.01166,1.09328.3867,1.0742,1.19026-.04537,1.91005-.01991,3.82178-.02307,5.73285Z"/><path id="_路径_73" data-name="&lt;路径&gt;" class="cls-1" d="M63.26416,70.12106v7.1991c-2.04943-.00337-4.09955-.03885-6.14793.00579-.81061.01766-1.07463-.24635-1.057-1.057.04464-2.04838.00916-4.0985.00578-6.14792Z"/><path id="_路径_74" data-name="&lt;路径&gt;" class="cls-1" d="M42.29948,112.33687c-2.04939.0032-4.09955-.025-6.14779.02516-.811.01987-1.07449-.24628-1.05684-1.05672.04462-2.04834.00915-4.09843.00578-6.14783l7.19886.01972c.05875.06556.11749.13111.1773.19608a19.66745,19.66745,0,0,1,.00223,6.76878C42.41987,112.2074,42.35968,112.27214,42.29948,112.33687Z"/><path id="_路径_75" data-name="&lt;路径&gt;" class="cls-1" d="M42.28022,70.12106h6.91194c-.00335,2.0444-.03607,4.08937.00481,6.13288.01574.78637-.2046,1.10062-1.03655,1.07214-1.61463-.05527-3.23384-.05527-4.84848,0-.832.02848-1.05227-.28577-1.03654-1.07214C42.31629,74.21043,42.28357,72.16545,42.28022,70.12106Z"/><path id="_路径_76" data-name="&lt;路径&gt;" class="cls-1" d="M63.24475,84.19262c.00308,1.957-.02789,3.915.02535,5.8707.02251.82651-.27123,1.06938-1.06958,1.0466-1.717-.049-3.43715-.04494-5.15447-.00176-.74923.01883-1.00451-.23473-.9841-.98414.04419-1.62175.04842-3.24662-.00178-4.868-.02475-.79946.22188-1.08986,1.04729-1.06888,2.05127.05211,4.10462.02227,6.15715.02535Z"/><path id="_路径_77" data-name="&lt;路径&gt;" class="cls-1" d="M49.1729,105.1772c1.94907-.00323,3.89887.02336,5.84686-.02422.78827-.01925,1.097.20753,1.07078,1.03743q-.08089,2.56457,0,5.13323c.02617.82987-.28246,1.05671-1.07077,1.03745-1.948-.04759-3.89779-.021-5.84686-.02421-.05875-.06555-.11749-.1311-.17731-.19607a19.66646,19.66646,0,0,1-.00225-6.7688C49.05251,105.30668,49.1127,105.24194,49.1729,105.1772Z"/><path id="_路径_78" data-name="&lt;路径&gt;" class="cls-1" d="M49.19216,119.249c-1.95378-.00337-3.90834-.03989-5.861.00578-.8107.01895-1.0775-.24625-1.05635-1.05693.05093-1.95254.02159-3.90716.02463-5.861l-.01925.0197c1.60468-.90349,3.34864-.31929,5.02444-.45733a2.37068,2.37068,0,0,1,1.8875.45733l-.01922-.01968Q49.18253,115.79293,49.19216,119.249Z"/><path id="_路径_79" data-name="&lt;路径&gt;" class="cls-1" d="M42.29948,105.1772c-.00307-1.949.02358-3.89867-.02371-5.84658-.01911-.78723.20551-1.09984,1.03658-1.07145,1.61437.05515,3.23329.05515,4.84765,0,.831-.02839,1.05573.28414,1.03662,1.07142-.04728,1.9479-.02063,3.89759-.0237,5.84659l.01925-.0197c-1.60468.90349-3.34864.31928-5.02444.45731a2.3706,2.3706,0,0,1-1.8875-.45731Z"/><path id="_路径_80" data-name="&lt;路径&gt;" class="cls-1" d="M45.84491,91.09523c-3.55492,0-3.55492,0-3.55492-3.55263,0-3.33978,0-3.33978,3.33751-3.33978,3.5549,0,3.5549,0,3.5549,3.55266C49.1824,91.09523,49.1824,91.09523,45.84491,91.09523Z"/><path id="_路径_81" data-name="&lt;路径&gt;" class="cls-1" d="M112.37259,63.24815c-2.04943-.00337-4.09955-.03884-6.14792.00579-.81062.01766-1.07462-.24639-1.057-1.057.04463-2.04837.00915-4.0985.00577-6.14792,2.04944.00338,4.09956.03886,6.14793-.00578.81062-.01766,1.07463.24637,1.057,1.057C112.33374,59.14861,112.36922,61.19873,112.37259,63.24815Z"/><path id="_路径_82" data-name="&lt;路径&gt;" class="cls-1" d="M119.2456,42.26376c.00307,1.95693-.02785,3.91479.0253,5.87036.02245.82593-.27016,1.07158-1.06913,1.04688-1.6213-.05011-3.24607-.04592-4.86772-.00175-.74932.02042-1.00448-.23468-.98407-.984.04418-1.62164.04835-3.24641-.00174-4.86772-.02469-.79892.22086-1.09162,1.04684-1.06917,1.95557.05316,3.91343.02224,5.87036.02531Z"/><path id="_路径_83" data-name="&lt;路径&gt;" class="cls-1" d="M91.10148,70.14056V63.22865c2.04439.00335,4.08937.03606,6.13288-.0048.78634-.01573,1.10062.20459,1.07215,1.03653-.05528,1.61463-.05528,3.23383,0,4.84846.02848.83195-.28579,1.05227-1.07214,1.03655C95.19085,70.1045,93.14587,70.13721,91.10148,70.14056Z"/><path id="_路径_84" data-name="&lt;路径&gt;" class="cls-1" d="M91.10148,84.21257V77.30065c2.04439.00335,4.08937.03606,6.13288-.00481.78634-.01573,1.10062.2046,1.07215,1.03654-.05528,1.61463-.05528,3.23383,0,4.84846.02848.83195-.28579,1.05227-1.07214,1.03654C95.19085,84.17651,93.14587,84.20923,91.10148,84.21257Z"/><path id="_路径_85" data-name="&lt;路径&gt;" class="cls-1" d="M147.10234,154.28542c.00324-1.9608-.06128-3.925.0359-5.8811.0556-1.119-.34043-1.39124-1.38284-1.32945-1.42973.08475-2.87229-.04464-4.30168.043-1.04854.06429-1.26046-.341-1.25413-1.30817.03977-6.07356-.01548-12.14787.05-18.221.01318-1.22262-.34848-1.60544-1.5237-1.47009a4.13,4.13,0,0,1-3.96553-1.455,6.4152,6.4152,0,0,0-7.70091-1.29511c-.25229.115-.51163.21463-.92149.38552v-4.52457h28.16352c-.00324,4.25282-.04438,8.50618.01641,12.75809.01553,1.08591-.296,1.40548-1.36453,1.347-1.61981-.08873-3.249.00862-4.8724-.03642-.75489-.02093-1.0015.243-.98153.98861.04345,1.62351.05006,3.2502-.00245,4.87319-.02636.81384.24613,1.08316,1.05927,1.05906,1.71876-.051,3.44077.0142,5.16-.028.74539-.01832.994.22789.98856.98129-.02927,4.01372-.0417,8.02811.00738,12.04144.01162.9507-.3844,1.0918-1.18926,1.076C151.11676,154.25013,149.10927,154.28212,147.10234,154.28542Z"/><path id="_路径_86" data-name="&lt;路径&gt;" class="cls-1" d="M126.1379,112.35659q0-3.59956,0-7.1991c2.04458.00335,4.08976.03619,6.13344-.00484.78727-.01581,1.098.20626,1.07168,1.03726q-.08109,2.56509,0,5.13428c.02627.831-.28443,1.05307-1.07169,1.03727C130.22765,112.32043,128.18248,112.35323,126.1379,112.35659Z"/><path id="_路径_87" data-name="&lt;路径&gt;" class="cls-1" d="M147.11208,108.77047c0,3.57636,0,3.57636-3.53136,3.57636-3.36105,0-3.38047-.00018-3.35094-3.31629.01094-1.23022-.52392-2.81085.22852-3.59712.76185-.79614,2.35407-.239,3.57974-.25385,3.07375-.03731,3.074-.01232,3.074,3.01722Z"/><path id="_路径_88" data-name="&lt;路径&gt;" class="cls-1" d="M119.2455,112.33708h6.91192V119.249h-6.91193Q119.24549,115.793,119.2455,112.33708Z"/><path id="_路径_89" data-name="&lt;路径&gt;" class="cls-1" d="M168.37343,126.1219V133.321c-2.04457-.00335-4.08974-.03614-6.13342.00489-.78725.01581-1.098-.20627-1.0717-1.03727q.08109-2.56509,0-5.13427c-.02627-.831.28447-1.05306,1.0717-1.03726C164.28369,126.15807,166.32886,126.12525,168.37343,126.1219Z"/><path id="_路径_90" data-name="&lt;路径&gt;" class="cls-1" d="M112.35307,126.14141c.00337-1.95376.0399-3.90828-.00575-5.8609-.01895-.81058.2462-1.07573,1.05678-1.05678,1.95262.04563,3.90714.00912,5.8609.00575-.00338,1.95376-.03989,3.90828.00575,5.86089.01894.81057-.24624,1.07571-1.0568,1.05677C116.26134,126.10151,114.30682,126.138,112.35307,126.14141Z"/><path id="_路径_91" data-name="&lt;路径&gt;" class="cls-1" d="M84.22858,175.24984q-3.456,0-6.91192,0V161.15836c1.909.0033,3.8197.05549,5.72628-.01071.95539-.03316,1.20363.29367,1.195,1.21648C84.19777,166.659,84.22528,170.95454,84.22858,175.24984Z"/><path id="_路径_92" data-name="&lt;路径&gt;" class="cls-1" d="M21.02861,147.08633l7.19913,0v7.19907c-2.04943-.00338-4.09956-.03891-6.14795.00577-.81062.01767-1.07462-.24627-1.057-1.0569C21.06748,151.18591,21.032,149.13576,21.02861,147.08633Z"/><path id="_路径_93" data-name="&lt;路径&gt;" class="cls-1" d="M42.28022,140.19392l6.91194,0c-.00335,1.94894-.03713,3.89852.00482,5.8465.017.78713-.20605,1.09967-1.037,1.07128-1.61434-.05516-3.23322-.05513-4.84756,0-.831.0284-1.05394-.28422-1.037-1.07133C42.31736,144.09244,42.28357,142.14286,42.28022,140.19392Z"/><path id="_路径_94" data-name="&lt;路径&gt;" class="cls-1" d="M70.15657,189.32185q-3.456,0-6.91193,0c.00337-2.04923.03872-4.09919-.00577-6.14737-.01759-.80972.2448-1.07652,1.05629-1.05748,1.95277.04578,3.90748.00917,5.86141.0058Z"/><path id="_路径_95" data-name="&lt;路径&gt;" class="cls-1" d="M77.33616,175.23035c-.00337,1.95393-.04,3.90864.00579,5.86143.019.81142-.2477,1.07384-1.05748,1.05624-2.04822-.04456-4.09815-.00915-6.14741-.00578v-6.91189Z"/><path id="_路径_96" data-name="&lt;路径&gt;" class="cls-1" d="M24.71656,243.877c-5.09616.76111-10.20508-4.80437-9.769-10.07834a10.95168,10.95168,0,0,1,2.58312-6.19691,9.24777,9.24777,0,0,1,7.26091-3.10256,9.04083,9.04083,0,0,1,6.81865,2.81832,10.77868,10.77868,0,0,1,2.92927,7.1189C34.58886,239.01925,30.03041,244.57637,24.71656,243.877Z"/><path id="_路径_97" data-name="&lt;路径&gt;" class="cls-1" d="M243.893,24.82646a9.7309,9.7309,0,0,1-9.72408,9.61088c-5.92939-.104-9.59079-4.2693-9.68239-9.94333-.07558-4.6816,3.497-10.03023,10.85008-9.60621C239.19867,15.1105,244.39885,19.7826,243.893,24.82646Z"/><path id="_路径_98" data-name="&lt;路径&gt;" class="cls-1" d="M33.67447,23.90443c.81342,5.16441-4.7182,10.17224-10.02194,9.81405a11.01943,11.01943,0,0,1-6.21319-2.53884,9.15953,9.15953,0,0,1-3.13918-7.27786,9.38251,9.38251,0,0,1,2.774-6.83688A10.07,10.07,0,0,1,24.192,14.21933C28.99177,14.2854,34.06128,18.05616,33.67447,23.90443Z"/><path id="_路径_99" data-name="&lt;路径&gt;" class="cls-1" d="M70.15646,49.17663c-.00307-1.957.02791-3.915-.02533-5.87071-.02249-.82648.27117-1.06942,1.06956-1.04663,1.717.049,3.43714.045,5.15447.00177.74924-.01885,1.00452.23473.98411.98414-.04419,1.62174-.04844,3.24661.00176,4.868.02476.79946-.22187,1.08985-1.04728,1.06888-2.05128-.05212-4.10462-.02227-6.15714-.02533Z"/><path id="_路径_100" data-name="&lt;路径&gt;" class="cls-1" d="M224.35478,70.12106c1.90177.0033,3.80485.04981,5.70471-.00883.914-.02822,1.26083.22548,1.21734,1.18545-.07309,1.61321.03369,3.23459-.03988,4.84775-.04391.96276.308,1.21148,1.21932,1.18308,1.995-.06213,3.99314-.02465,5.99-.02786-.00338,1.95693-.04163,3.91471.00631,5.87038.02026.82636-.27172,1.06907-1.06993,1.04651-1.71693-.04854-3.43693.01528-5.15416-.02764-.74863-.01869-1.00486.2338-.98446.98372.04414,1.62163-.02212,3.24638.02752,4.86771.02443.79842-.2201,1.09023-1.04639,1.07-1.95567-.04791-3.91346-.00971-5.87039-.00632Z"/></g></g></svg>