<svg xmlns="http://www.w3.org/2000/svg" viewBox="0 0 35 35"><defs><style>.cls-1{fill:none;stroke:#e3d0b5;stroke-miterlimit:10;}.cls-2{fill:#e3d0b5;}</style></defs><title>口碑资源 7</title><g id="图层_2" data-name="图层 2"><g id="图层_1-2" data-name="图层 1"><circle class="cls-1" cx="17.5" cy="17.5" r="17"/><path class="cls-2" d="M14.79,22.63a1.65,1.65,0,0,1-2,.65,1.15,1.15,0,0,1-.44-1.73,1.64,1.64,0,0,1,1.93-.65A1.15,1.15,0,0,1,14.79,22.63Zm1.36-1.76a.62.62,0,0,1-.74.28.44.44,0,0,1-.19-.65.64.64,0,0,1,.73-.28A.44.44,0,0,1,16.16,20.87Zm2.52,1.55a3.21,3.21,0,0,0-2.34-4.5,4.72,4.72,0,0,0-5.25,2.29,3.2,3.2,0,0,0,2,4.56A4.64,4.64,0,0,0,18.68,22.42Zm4.53-2.32c.28,2.83-3,5.46-7.28,5.89s-8-1.52-8.3-4.35,3-5.46,7.28-5.89S22.93,17.27,23.21,20.1Zm4.47.06c0-2-1.65-3.09-3.15-3.55-.36-.12-.61-.19-.42-.67a2.73,2.73,0,0,0,0-2.58c-.84-1.2-3.15-1.15-5.79,0,0,0-.83.36-.62-.3.41-1.31.35-2.41-.29-3C16,8.55,12.15,10,8.87,13.31,6.42,15.76,5,18.36,5,20.61c0,4.31,5.51,6.92,10.91,6.92C23,27.53,27.68,23.42,27.68,20.16ZM26.6,11.11a3.32,3.32,0,0,0-3.19-1,.85.85,0,1,0,.36,1.67,1.65,1.65,0,0,1,1.9,2.12.85.85,0,1,0,1.63.52A3.34,3.34,0,0,0,26.6,11.11Zm2.63-2.37a6.87,6.87,0,0,0-6.56-2.12A1,1,0,0,0,21.9,7.8a1,1,0,0,0,1.19.77,4.89,4.89,0,0,1,5.67,6.3,1,1,0,0,0,.65,1.25,1,1,0,0,0,1.25-.64A6.87,6.87,0,0,0,29.23,8.74Z"/></g></g></svg>